<svg width="670" height="600" viewBox="0 0 670 600" fill="none" xmlns="http://www.w3.org/2000/svg">
<g clip-path="url(#clip0_2_2996)">
<path d="M179.174 270.153L92.1043 320.244L48.5888 345.286L37.708 351.578C34.0579 353.649 30.3925 355.667 26.7887 357.738C23.1849 359.809 19.6118 361.989 16.2082 364.353C14.5149 365.511 12.8995 366.779 11.3723 368.149C10.9796 368.472 10.6484 368.857 10.2942 369.212C9.94 369.566 9.59348 369.982 9.25466 370.336C8.91584 370.69 8.55392 371.106 8.22279 371.483L7.29103 372.685C6.97843 373.084 6.68794 373.501 6.42088 373.932C6.15136 374.363 5.85104 374.771 5.60462 375.218C5.09238 376.092 4.62962 376.995 4.21853 377.921C3.79924 378.843 3.42911 379.786 3.10967 380.747C2.95566 381.232 2.83245 381.725 2.69384 382.21L2.49362 382.942L2.34731 383.712C1.53324 387.706 1.58313 391.828 2.49362 395.801C3.50082 399.776 5.15266 403.558 7.38344 406.998C9.59692 410.481 12.1786 413.716 15.0839 416.647C21.0158 422.469 27.6971 427.475 34.9512 431.532L56.682 444.122L143.597 494.483L230.528 544.806C245 553.23 259.48 561.632 273.967 570.01C281.221 574.204 288.49 578.355 295.775 582.462C299.434 584.478 303.209 586.278 307.079 587.852C310.929 589.477 314.864 590.886 318.83 592.187C334.792 597.262 351.465 599.742 368.213 599.533C376.579 599.519 384.918 598.579 393.078 596.731C397.145 595.777 401.143 594.549 405.045 593.057C408.943 591.545 412.741 589.789 416.418 587.798C417.342 587.313 418.259 586.805 419.16 586.258C420.061 585.711 420.977 585.234 421.862 584.664L424.527 583.016L427.253 581.476L438.134 575.215L459.903 562.687L503.441 537.637L459.98 562.818L438.234 575.362L427.399 581.691L424.681 583.232L422.009 584.887C421.131 585.449 420.215 585.958 419.314 586.489C418.413 587.02 417.496 587.536 416.565 588.029C412.884 590.039 409.08 591.813 405.176 593.342C401.264 594.864 397.253 596.117 393.17 597.092C384.989 598.976 376.624 599.945 368.229 599.98C351.425 600.248 334.688 597.809 318.66 592.757C314.664 591.463 310.714 590.062 306.84 588.445C302.946 586.868 299.146 585.068 295.459 583.054C288.143 578.948 280.856 574.825 273.597 570.687C259.059 562.386 244.551 554.029 230.074 545.615L142.997 495.492L55.9273 445.393L34.1581 432.864C26.7599 428.77 19.9412 423.707 13.8827 417.81C10.881 414.8 8.2139 411.475 5.92804 407.891C5.35051 406.998 4.84227 406.059 4.30324 405.142C3.7642 404.226 3.31758 403.263 2.88635 402.278C1.99385 400.321 1.28992 398.284 0.784114 396.194C-0.191907 391.978 -0.257538 387.601 0.591602 383.358L0.745615 382.587L0.953526 381.817C1.10754 381.301 1.23074 380.77 1.39245 380.277C1.73106 379.252 2.12173 378.244 2.56293 377.259C3.00224 376.274 3.49318 375.312 4.03372 374.379C4.29554 373.901 4.61126 373.462 4.89618 373.008C5.1794 372.55 5.48789 372.108 5.82024 371.684L6.8059 370.398C7.15242 369.989 7.51435 369.628 7.86857 369.204C8.22279 368.78 8.58472 368.434 8.96204 368.026C9.31463 367.613 9.68997 367.219 10.0863 366.848C11.6689 365.418 13.3435 364.093 15.0993 362.882C18.5723 360.456 22.1684 358.262 25.7953 356.152C29.4222 354.042 33.0877 352.001 36.7069 349.93L47.5492 343.623L91.0185 318.442L177.957 268.073C178.233 267.913 178.561 267.869 178.869 267.95C179.178 268.032 179.441 268.233 179.601 268.508C179.761 268.784 179.806 269.112 179.724 269.421C179.642 269.729 179.442 269.992 179.166 270.153H179.174Z" fill="#F9CD87"/>
<path d="M215.389 247.921C221.018 244.579 226.578 241.091 232.484 238.249C238.445 235.537 244.694 233.509 251.112 232.205C263.948 229.517 277.193 229.124 290.238 230.233C303.319 231.348 316.198 234.167 328.548 238.619C334.723 240.822 340.761 243.393 346.629 246.32L350.987 248.591L355.276 251.001C358.11 252.649 360.859 254.444 363.747 256.03L499.984 334.352L568.103 373.509L585.136 383.296C587.978 384.928 590.811 386.561 593.607 388.216C596.402 389.872 599.29 391.443 602.139 393.068C604.988 394.693 607.837 396.317 610.609 398.035C613.381 399.752 616.184 401.538 618.864 403.479C624.303 407.288 629.17 411.855 633.318 417.039C637.399 422.253 640.726 428.282 642.004 434.935C642.328 436.595 642.506 438.281 642.536 439.972C642.528 441.665 642.402 443.355 642.158 445.031C641.654 448.39 640.52 451.625 638.816 454.564C637.124 457.485 635.015 460.144 632.556 462.457C630.103 464.716 627.474 466.776 624.694 468.617C619.18 472.329 613.305 475.232 607.699 478.628L539.742 518.039C539.466 518.199 539.138 518.244 538.83 518.162C538.521 518.08 538.258 517.88 538.098 517.604C537.937 517.328 537.893 517 537.975 516.692C538.056 516.384 538.257 516.12 538.533 515.96L606.659 476.803C612.28 473.446 618.21 470.55 623.6 466.962C626.293 465.2 628.84 463.225 631.216 461.055C633.541 458.882 635.541 456.384 637.153 453.64C638.75 450.907 639.816 447.897 640.295 444.769C640.528 443.206 640.654 441.629 640.672 440.048C640.645 438.467 640.483 436.89 640.187 435.336C639.016 429.068 635.867 423.261 631.924 418.194C627.9 413.124 623.17 408.656 617.879 404.927C615.26 403.009 612.488 401.23 609.755 399.536C607.021 397.842 604.164 396.179 601.323 394.554C598.481 392.929 595.632 391.327 592.798 389.672C589.964 388.016 587.146 386.353 584.328 384.713L567.333 374.856L499.376 335.445L363.439 256.561C360.582 254.967 357.841 253.173 355.022 251.517L350.764 249.092L346.421 246.782C340.585 243.831 334.576 241.239 328.425 239.019C316.119 234.544 303.282 231.697 290.238 230.549C277.224 229.394 264.002 229.733 251.173 232.366C244.748 233.644 238.489 235.646 232.515 238.334C226.601 241.152 221.034 244.618 215.389 247.937" fill="#F9CD87"/>
<path d="M665.699 251.047C666.373 251.116 667.023 251.338 667.599 251.696C668.175 252.055 668.661 252.54 669.02 253.116C669.379 253.691 669.601 254.341 669.67 255.015C669.739 255.69 669.653 256.371 669.418 257.008C661.055 278.792 601.138 311.35 583.85 323.332C573.116 330.07 559.84 337.909 548.998 344.454C540.889 336.184 527.583 329.708 517.741 323.832C542.19 310.88 636.275 247.952 665.699 251.047Z" fill="#FFD166"/>
<path d="M397.129 254.189L338.512 220.346C333.53 211.582 326.815 199.824 321.849 191.038C304.268 159.604 289.429 133.084 272.057 100.087C178.881 -82.353 265.758 23.5827 314.787 112C343.11 159.104 370.054 206.569 397.129 254.189Z" fill="#FFD166"/>
<path d="M553.056 341.998C551.67 342.837 550.322 343.661 548.998 344.455C540.889 336.177 527.583 329.7 517.741 323.833C518.707 323.319 519.774 322.734 520.945 322.077C527.914 326.081 534.806 330.085 541.459 333.913C541.489 333.925 541.517 333.94 541.544 333.959L542.899 334.729C546.499 336.831 549.899 339.26 553.056 341.983" fill="#FFD166"/>
<path d="M397.129 254.189L338.512 220.346L335.817 215.602C336.587 215.918 337.273 216.241 337.981 216.596C356.616 227.192 375.3 237.911 394.033 248.753C395.065 250.563 396.089 252.372 397.113 254.189" fill="#FFD166"/>
<path d="M581.663 426.511V431.77L573.762 436.321L552.971 448.35L542.552 454.364L532.134 460.378L521.715 466.392L511.296 472.414L490.443 484.442L480.024 490.456L459.233 502.484L448.776 508.537L438.357 514.551L427.938 520.565L417.519 526.579L397.498 538.13L396.728 538.584L386.309 544.598L365.472 556.634C365.387 545.853 370.285 492.789 329.872 466.115C318.637 458.722 143.305 357.445 119.749 343.838C110.508 338.448 98.3417 335.114 88.5082 340.758L94.0217 337.586L104.441 331.572L114.813 325.55L125.232 319.536L135.651 313.522L146.069 307.508L166.907 295.479L177.326 289.458C205.124 273.405 232.916 257.362 260.699 241.33L271.133 235.323L278.834 230.872C287.889 225.651 296.94 220.443 305.986 215.248C314.456 211.12 324.467 213.2 332.537 217.158C384.23 246.558 436.424 277.121 488.01 306.761C503.357 315.624 520.552 325.542 536.015 334.482C536.043 334.492 536.07 334.508 536.092 334.529L537.455 335.299C541.752 337.829 545.773 340.803 549.452 344.17C550.584 345.178 551.685 346.226 552.748 347.25C560.987 355.72 568.149 364.36 573.293 376.281C574.405 378.868 575.384 381.51 576.227 384.197L576.281 384.32C579.561 394.777 581.501 407.637 581.671 424.409C581.671 425.094 581.671 425.779 581.671 426.473" fill="#1AD3BD"/>
<path d="M397.129 254.189L338.512 220.346L335.817 215.602C336.587 215.918 337.273 216.241 337.981 216.596C356.616 227.192 375.3 237.911 394.033 248.753C395.065 250.563 396.089 252.372 397.113 254.189" fill="#EDB74C"/>
<path d="M553.056 341.998C551.67 342.837 550.322 343.661 548.998 344.455C540.889 336.177 527.583 329.7 517.741 323.833C518.707 323.319 519.774 322.734 520.945 322.077C527.914 326.081 534.806 330.085 541.459 333.913C541.489 333.925 541.517 333.94 541.544 333.959L542.899 334.729C546.499 336.831 549.899 339.26 553.056 341.983" fill="#EDB74C"/>
<path d="M160.077 333.905C160.077 335.799 161.724 337.478 164.235 338.464C160.385 337.755 157.582 335.661 157.582 333.189C157.582 330.109 161.894 327.645 167.223 327.645C169.103 327.623 170.969 327.963 172.721 328.646C171.729 328.448 170.721 328.35 169.71 328.353C164.381 328.353 160.077 330.832 160.077 333.905Z" fill="#006D58"/>
<path d="M176.856 333.189C176.856 336.269 172.536 338.741 167.223 338.741C166.22 338.741 165.22 338.648 164.235 338.464C161.724 337.478 160.077 335.799 160.077 333.905C160.077 330.825 164.381 328.353 169.71 328.353C170.721 328.35 171.729 328.448 172.721 328.645C175.223 329.647 176.856 331.302 176.856 333.189Z" fill="#059B89"/>
<path d="M187.144 318.273C187.144 320.16 188.776 321.823 191.279 322.832C187.429 322.116 184.656 320.029 184.656 317.564C184.656 314.484 188.969 312.02 194.29 312.02C196.156 312 198.008 312.335 199.749 313.006C198.77 312.817 197.775 312.724 196.777 312.729C191.464 312.729 187.144 315.208 187.144 318.273Z" fill="#006D58"/>
<path d="M203.923 317.564C203.923 320.645 199.611 323.109 194.29 323.109C193.28 323.112 192.271 323.02 191.279 322.832C188.776 321.823 187.144 320.167 187.144 318.273C187.144 315.193 191.464 312.729 196.777 312.729C197.774 312.728 198.769 312.821 199.749 313.006C202.275 313.991 203.923 315.662 203.923 317.564Z" fill="#059B89"/>
<path d="M214.249 302.633C214.249 304.52 215.882 306.183 218.385 307.184C214.534 306.476 211.755 304.389 211.755 301.925C211.755 298.845 216.074 296.38 221.403 296.38C223.272 296.361 225.127 296.696 226.871 297.366C225.891 297.178 224.896 297.085 223.898 297.089C218.569 297.089 214.249 299.568 214.249 302.633Z" fill="#006D58"/>
<path d="M231.044 301.925C231.044 305.005 226.724 307.469 221.403 307.469C220.39 307.474 219.379 307.379 218.385 307.184C215.882 306.183 214.25 304.52 214.25 302.633C214.25 299.553 218.569 297.089 223.898 297.089C224.896 297.085 225.891 297.178 226.871 297.366C229.396 298.352 231.044 300.023 231.044 301.925Z" fill="#059B89"/>
<path d="M241.332 287.009C241.332 288.911 242.98 290.582 245.49 291.568C241.64 290.859 238.837 288.765 238.837 286.3C238.837 283.22 243.142 280.748 248.478 280.748C250.358 280.728 252.224 281.068 253.976 281.75C252.985 281.552 251.976 281.454 250.965 281.457C245.637 281.457 241.332 283.936 241.332 287.009Z" fill="#006D58"/>
<path d="M258.112 286.3C258.112 289.381 253.792 291.845 248.478 291.845C247.476 291.845 246.476 291.752 245.49 291.568C242.98 290.582 241.332 288.911 241.332 287.009C241.332 283.929 245.637 281.457 250.965 281.457C251.976 281.454 252.985 281.552 253.976 281.749C256.479 282.751 258.112 284.406 258.112 286.3Z" fill="#059B89"/>
<path d="M268.384 271.362C268.384 273.256 270.024 274.911 272.527 275.913C268.677 275.204 265.897 273.117 265.897 270.653C265.897 267.573 270.217 265.109 275.545 265.109C277.411 265.089 279.264 265.424 281.005 266.094C280.026 265.906 279.03 265.813 278.033 265.817C272.704 265.817 268.384 268.297 268.384 271.362Z" fill="#006D58"/>
<path d="M285.179 270.668C285.179 273.749 280.859 276.213 275.545 276.213C274.532 276.219 273.521 276.123 272.527 275.928C270.024 274.927 268.384 273.271 268.384 271.377C268.384 268.297 272.704 265.833 278.033 265.833C279.03 265.832 280.025 265.925 281.005 266.11C283.531 267.095 285.179 268.766 285.179 270.668Z" fill="#059B89"/>
<path d="M295.467 255.753C295.467 257.655 297.115 259.326 299.633 260.311C295.782 259.603 292.979 257.508 292.979 255.044C292.979 251.964 297.284 249.492 302.613 249.492C304.493 249.469 306.359 249.809 308.111 250.493C307.119 250.298 306.111 250.202 305.1 250.208C299.771 250.208 295.467 252.68 295.467 255.753Z" fill="#006D58"/>
<path d="M312.246 255.044C312.246 258.124 307.934 260.589 302.613 260.589C301.613 260.59 300.615 260.497 299.633 260.311C297.115 259.326 295.467 257.655 295.467 255.753C295.467 252.672 299.771 250.208 305.1 250.208C306.111 250.202 307.119 250.298 308.111 250.493C310.613 251.494 312.246 253.15 312.246 255.044Z" fill="#059B89"/>
<path d="M188.353 350.238C188.353 352.14 190.001 353.811 192.511 354.796C188.661 354.088 185.858 351.993 185.858 349.529C185.858 346.449 190.17 343.985 195.499 343.985C197.378 343.961 199.245 344.298 200.997 344.978C200.005 344.783 198.997 344.688 197.986 344.693C192.657 344.693 188.353 347.173 188.353 350.238Z" fill="#006D58"/>
<path d="M205.132 349.529C205.132 352.609 200.812 355.073 195.499 355.073C194.496 355.078 193.496 354.985 192.511 354.796C190.001 353.811 188.353 352.14 188.353 350.237C188.353 347.157 192.657 344.693 197.986 344.693C198.997 344.687 200.005 344.783 200.997 344.978C203.5 345.979 205.132 347.642 205.132 349.529Z" fill="#059B89"/>
<path d="M215.42 334.613C215.42 336.5 217.052 338.156 219.555 339.172C215.705 338.448 212.925 336.369 212.925 333.897C212.925 330.817 217.245 328.353 222.566 328.353C224.432 328.333 226.284 328.668 228.026 329.339C227.046 329.154 226.051 329.061 225.053 329.061C219.74 329.061 215.42 331.541 215.42 334.613Z" fill="#006D58"/>
<path d="M232.199 333.897C232.199 336.977 227.879 339.449 222.566 339.449C221.556 339.449 220.548 339.356 219.555 339.172C217.052 338.156 215.42 336.5 215.42 334.613C215.42 331.533 219.74 329.061 225.053 329.061C226.051 329.061 227.046 329.154 228.026 329.338C230.551 330.324 232.199 331.995 232.199 333.897Z" fill="#059B89"/>
<path d="M242.526 318.974C242.526 320.86 244.158 322.516 246.661 323.517C242.811 322.809 240.031 320.729 240.031 318.258C240.031 315.177 244.351 312.713 249.679 312.713C251.548 312.694 253.403 313.029 255.147 313.699C254.167 313.515 253.172 313.422 252.174 313.422C246.846 313.422 242.526 315.901 242.526 318.974Z" fill="#006D58"/>
<path d="M259.32 318.257C259.32 321.338 255.001 323.809 249.679 323.809C248.666 323.812 247.655 323.714 246.661 323.517C244.158 322.516 242.526 320.86 242.526 318.973C242.526 315.893 246.846 313.421 252.174 313.421C253.172 313.422 254.167 313.514 255.147 313.699C257.673 314.684 259.32 316.355 259.32 318.257Z" fill="#059B89"/>
<path d="M269.593 303.341C269.593 305.243 271.241 306.915 273.751 307.9C269.901 307.192 267.098 305.097 267.098 302.633C267.098 299.553 271.402 297.089 276.739 297.089C278.618 297.069 280.484 297.406 282.237 298.082C281.246 297.887 280.237 297.791 279.226 297.797C273.897 297.797 269.593 300.277 269.593 303.341Z" fill="#006D58"/>
<path d="M286.388 302.633C286.388 305.713 282.068 308.177 276.754 308.177C275.752 308.182 274.751 308.089 273.767 307.9C271.256 306.915 269.608 305.244 269.608 303.342C269.608 300.261 273.913 297.797 279.242 297.797C280.25 297.791 281.256 297.886 282.245 298.082C284.748 299.083 286.388 300.746 286.388 302.633Z" fill="#059B89"/>
<path d="M296.66 287.717C296.66 289.604 298.3 291.267 300.803 292.261C296.953 291.552 294.173 289.473 294.173 287.009C294.173 283.929 298.493 281.457 303.822 281.457C305.687 281.438 307.54 281.772 309.281 282.442C308.301 282.258 307.306 282.165 306.309 282.165C300.98 282.165 296.66 284.645 296.66 287.717Z" fill="#006D58"/>
<path d="M313.486 287.001C313.486 290.081 309.166 292.553 303.852 292.553C302.839 292.557 301.828 292.459 300.834 292.261C298.331 291.26 296.691 289.604 296.691 287.717C296.691 284.637 301.011 282.165 306.34 282.165C307.337 282.165 308.332 282.258 309.312 282.443C311.838 283.428 313.486 285.107 313.486 287.001Z" fill="#059B89"/>
<path d="M323.743 272.085C323.743 273.987 325.391 275.658 327.909 276.644C324.059 275.935 321.256 273.841 321.256 271.377C321.256 268.297 325.56 265.832 330.889 265.832C332.768 265.812 334.634 266.149 336.387 266.826C335.395 266.631 334.387 266.535 333.376 266.541C328.047 266.541 323.743 269.02 323.743 272.085Z" fill="#006D58"/>
<path d="M340.522 271.362C340.522 274.442 336.21 276.906 330.889 276.906C329.889 276.91 328.891 276.818 327.909 276.629C325.391 275.643 323.743 273.972 323.743 272.07C323.743 268.99 328.047 266.526 333.376 266.526C334.387 266.52 335.395 266.615 336.387 266.811C338.89 267.812 340.522 269.475 340.522 271.362Z" fill="#059B89"/>
<path d="M365.426 556.626L361.229 554.216V551.991C361.229 499.034 340.599 476.526 325.876 467.986C135.096 357.553 118.194 347.789 118.194 347.789L116.653 347.019L115.375 346.426L115.09 346.295L113.55 345.648L112.01 345.071L110.47 344.578L108.93 344.154L107.39 343.808L105.911 343.538L104.44 343.361L103 343.253H101.591L100.197 343.315L98.8345 343.446L97.51 343.661L96.224 343.962L94.9766 344.324L93.7599 344.778L92.5817 345.309L91.4497 345.91L90.3563 346.588L89.309 347.358L88.3079 348.189L87.3608 349.09L86.4521 350.061L85.6128 351.1L84.8427 352.209L84.0727 353.387L83.3873 354.627L82.7636 355.921L82.186 357.284L81.6701 358.7L81.2081 360.171L80.8154 361.711L80.4765 363.298L80.1993 364.922L79.9837 366.593L79.8297 368.318L79.745 370.09V371.899V391.743L75.5944 389.356V369.366L75.6329 367.41L75.7407 365.462L75.9101 363.559L76.1335 361.719L76.4492 359.909L76.8188 358.169L77.2577 356.483L77.7583 354.858L78.3281 353.318L78.9595 351.816L79.6603 350.384L80.4303 349.013L81.2543 347.712L82.1321 346.495L83.0716 345.34L84.0573 344.27L85.1045 343.276L86.2057 342.368L87.3608 341.528L88.5697 340.758C98.411 335.114 110.585 338.448 119.811 343.839C143.305 357.445 318.637 458.722 329.826 466.107C370.238 492.781 365.341 545.869 365.426 556.626Z" fill="#04BFAD"/>
<path d="M332.583 472.614C331.1 471.523 329.557 470.515 327.963 469.595C137.183 359.147 120.28 349.398 120.28 349.398L118.702 348.59L117.424 348.005L117.139 347.866L115.598 347.219L114.058 346.642L112.518 346.149L110.978 345.725L109.438 345.379L107.96 345.117L106.489 344.932L105.049 344.824H103.64L102.246 344.886L100.883 345.017L99.5583 345.232L98.2724 345.533L97.0249 345.895L95.8082 346.349L94.63 346.88L93.4981 347.481L92.4046 348.159L91.3573 348.929L90.3563 349.76L89.4014 350.623L88.5004 351.601L87.6534 352.632L86.8833 353.741L86.1133 354.92L85.4279 356.159L84.8042 357.461L84.2267 358.816L83.7107 360.233L83.2487 361.704L82.856 363.244L82.5171 364.83L82.2399 366.455L82.0243 368.126L81.8703 369.843L81.7856 371.614L81.7471 373.432V390.658L81.5931 390.565L79.668 391.666V371.807V369.997L79.745 368.226L79.9067 366.501L80.1223 364.83L80.3995 363.205L80.7383 361.619L81.1311 360.079L81.5931 358.608L82.109 357.191L82.6866 355.828L83.3103 354.535L83.9956 353.295L84.7657 352.117L85.5357 351.008L86.3751 349.968L87.2838 348.998L88.2309 348.097L89.232 347.265L90.2792 346.495L91.3727 345.818L92.5047 345.217L93.6829 344.686L94.8918 344.231L96.147 343.869L97.433 343.569L98.7575 343.353L100.12 343.223L101.514 343.161H102.923L104.363 343.269L105.834 343.446L107.313 343.715L108.853 344.062L110.393 344.485L111.933 344.978L113.473 345.556L115.013 346.203L115.298 346.333L116.576 346.926L118.117 347.696C118.117 347.696 135.019 357.461 325.83 467.894C328.176 469.251 330.409 470.796 332.506 472.514" fill="#04BFAD"/>
<path d="M361.229 551.991L357.825 550.035L81.6239 390.557L79.6987 391.659V371.807V369.997L79.7834 368.226L79.9375 366.501L80.1531 364.83L80.4303 363.205L80.7691 361.619L81.1618 360.079L81.6239 358.608L82.1398 357.191L82.7173 355.828L83.3411 354.535L84.0264 353.295L84.7965 352.117L85.5665 351.008L86.4059 349.968L87.3145 348.998L88.2617 348.097L89.2628 347.265L90.31 346.495L91.4035 345.818L92.5355 345.217L93.7136 344.686L94.9303 344.231L96.1778 343.869L97.4638 343.569L98.7883 343.353L100.151 343.223L101.545 343.161H102.954L104.394 343.269L105.865 343.446L107.344 343.715L108.884 344.062L110.424 344.485L111.964 344.978L113.504 345.556L115.044 346.203L115.329 346.333L116.607 346.926L118.147 347.696C118.147 347.696 135.05 357.461 325.86 467.893C340.63 476.503 361.229 499.034 361.229 551.991Z" fill="#059B89"/>
<path d="M332.583 472.614C331.1 471.523 329.557 470.515 327.963 469.595C137.183 359.147 120.28 349.398 120.28 349.398L118.702 348.59L117.424 348.005L117.139 347.866L115.598 347.219L114.058 346.642L112.518 346.149L110.978 345.725L109.438 345.379L107.96 345.117L106.489 344.932L105.049 344.824H103.64L102.246 344.886L100.883 345.017L99.5583 345.232L98.2724 345.533L97.0249 345.895L95.8082 346.349L94.63 346.88L93.4981 347.481L92.4046 348.159L91.3573 348.929L90.3563 349.76L89.4014 350.623L88.5004 351.601L87.6534 352.632L86.8833 353.741L86.1133 354.92L85.4279 356.159L84.8042 357.461L84.2267 358.816L83.7107 360.233L83.2487 361.704L82.856 363.244L82.5171 364.83L82.2399 366.455L82.0243 368.126L81.8703 369.843L81.7856 371.614L81.7471 373.432V390.658L81.5931 390.565L79.668 391.666V371.807V369.997L79.745 368.226L79.9067 366.501L80.1223 364.83L80.3995 363.205L80.7383 361.619L81.1311 360.079L81.5931 358.608L82.109 357.191L82.6866 355.828L83.3103 354.535L83.9956 353.295L84.7657 352.117L85.5357 351.008L86.3751 349.968L87.2838 348.998L88.2309 348.097L89.232 347.265L90.2792 346.495L91.3727 345.818L92.5047 345.217L93.6829 344.686L94.8918 344.231L96.147 343.869L97.433 343.569L98.7575 343.353L100.12 343.223L101.514 343.161H102.923L104.363 343.269L105.834 343.446L107.313 343.715L108.853 344.062L110.393 344.485L111.933 344.978L113.473 345.556L115.013 346.203L115.298 346.333L116.576 346.926L118.117 347.696C118.117 347.696 135.019 357.461 325.83 467.894C328.176 469.251 330.409 470.796 332.506 472.514" fill="#006D58"/>
<path d="M271.734 445.885V470.442L268.931 472.052L261.615 476.264V440.041L268.931 444.261L271.734 445.885Z" fill="#006D58"/>
<path d="M271.734 470.442V482.109L261.615 476.264L268.931 472.052L271.734 470.442Z" fill="#1AD3BD"/>
<path d="M320.308 473.931V498.457L317.498 500.081L310.19 504.309V468.086L317.498 472.306L320.308 473.931Z" fill="#006D58"/>
<path d="M296.021 484.442V496.123L285.903 490.279L293.203 486.066L296.021 484.442Z" fill="#1AD3BD"/>
<path d="M320.308 498.457V510.154L310.19 504.309L317.498 500.081L320.308 498.457Z" fill="#1AD3BD"/>
<path d="M296.021 459.9V484.442L293.203 486.067L285.903 490.279V454.063L293.203 458.276L296.021 459.9Z" fill="#006D58"/>
<path d="M146.986 407.483C146.52 408.01 145.98 408.466 145.384 408.838L144.937 409.092C139.224 412.042 129.975 406.744 123.969 396.98C117.809 386.969 117.424 375.996 123.091 372.523L123.553 372.253C124.151 371.945 124.788 371.722 125.447 371.591C131.154 370.467 139.139 375.626 144.522 384.382C150.02 393.345 150.905 403.04 146.986 407.483Z" fill="#04BFAD"/>
<path d="M149.357 406.543L148.888 406.821L145.384 408.838C145.98 408.466 146.52 408.009 146.986 407.483C150.905 403.04 150.02 393.345 144.522 384.381C139.131 375.626 131.153 370.459 125.447 371.591C124.788 371.722 124.15 371.945 123.553 372.253L127.049 370.236L127.496 369.982C133.21 367.032 142.458 372.338 148.464 382.11C154.625 392.12 154.994 403.055 149.357 406.543Z" fill="#006D58"/>
<path d="M182.631 421.105C182.441 421.32 182.22 421.507 181.977 421.66L181.792 421.76C179.482 422.969 175.632 420.805 173.214 416.801C170.796 412.796 170.534 408.222 172.852 406.79L173.044 406.682C173.286 406.554 173.546 406.464 173.814 406.413C176.124 405.943 179.412 408.061 181.615 411.641C183.817 415.222 184.225 419.28 182.624 421.098" fill="#04BFAD"/>
<path d="M183.601 420.751L183.409 420.859L181.977 421.69C182.22 421.538 182.441 421.351 182.631 421.136C184.241 419.319 183.871 415.345 181.622 411.68C179.374 408.014 176.155 405.981 173.822 406.451C173.554 406.503 173.294 406.594 173.052 406.721L174.484 405.889L174.661 405.789C176.971 404.58 180.822 406.751 183.247 410.748C185.673 414.745 185.919 419.319 183.609 420.759" fill="#006D58"/>
<path d="M214.357 439.394C214.167 439.609 213.946 439.796 213.703 439.948L213.526 440.048C211.215 441.257 207.365 439.094 204.94 435.097C202.514 431.1 202.267 426.511 204.585 425.086L204.77 424.979C205.012 424.852 205.272 424.761 205.54 424.709C207.85 424.247 211.146 426.357 213.341 429.938C215.535 433.518 215.959 437.577 214.35 439.394" fill="#04BFAD"/>
<path d="M215.328 439.009L215.135 439.124L213.703 439.948C213.946 439.796 214.167 439.609 214.357 439.394C215.967 437.577 215.605 433.611 213.349 429.938C211.092 426.265 207.881 424.247 205.548 424.709C205.28 424.761 205.02 424.852 204.778 424.979L206.21 424.147L206.395 424.047C208.705 422.838 212.517 425.009 214.973 429.006C217.43 433.003 217.645 437.584 215.335 439.017" fill="#006D58"/>
<path d="M234.579 0.489031C245.359 6.50312 256.14 12.5018 266.867 18.5775L299.078 36.82L315.164 45.9604L331.228 55.201L363.331 73.6129C363.827 73.8975 364.206 74.3474 364.403 74.8839C364.6 75.4203 364.603 76.009 364.409 76.5468V76.6084C363.147 79.918 362.148 83.3219 361.421 86.7885C361.086 88.3276 360.972 89.9067 361.082 91.4781C361.109 91.9412 361.249 92.3908 361.491 92.7871C361.629 92.9181 361.591 92.9258 361.983 92.9874C362.57 93.0001 363.156 92.9169 363.716 92.7409C364.469 92.5159 365.205 92.238 365.918 91.9093C367.484 91.1642 369.004 90.3259 370.469 89.3989C373.503 87.5508 376.499 85.464 379.579 83.3925C381.119 82.3607 382.659 81.3288 384.361 80.3123C385.2 79.8118 386.063 79.3267 387.018 78.8724C388.109 78.3188 389.277 77.932 390.483 77.725C390.929 77.6572 391.381 77.6416 391.831 77.6788C392.461 77.7306 393.075 77.9115 393.632 78.2101C394.289 78.5603 394.844 79.0751 395.242 79.704C395.418 79.9849 395.563 80.2845 395.673 80.5973C395.769 80.8466 395.841 81.1044 395.889 81.3673C396.026 82.1571 396.026 82.9647 395.889 83.7545C395.79 84.3458 395.651 84.9299 395.473 85.5025C394.84 87.4143 394.052 89.2712 393.116 91.0545C391.392 94.4659 389.513 97.6616 387.68 100.857C385.847 104.053 384.014 107.195 382.482 110.329C382.105 111.099 381.751 111.869 381.45 112.639C381.176 113.298 380.962 113.981 380.811 114.68C380.786 114.802 380.771 114.925 380.765 115.049C380.743 114.879 380.688 114.714 380.603 114.564C380.431 114.263 380.184 114.011 379.887 113.833C379.777 113.757 379.655 113.702 379.525 113.671C379.463 113.64 379.394 113.624 379.325 113.625C379.279 113.625 379.24 113.625 379.325 113.625C379.558 113.594 379.788 113.54 380.01 113.463C381.516 112.917 382.966 112.226 384.338 111.399C385.84 110.529 387.349 109.582 388.843 108.589C394.841 104.615 400.686 100.172 406.631 95.8288C409.596 93.6496 412.576 91.4627 415.64 89.3142C417.181 88.2516 418.721 87.1889 420.345 86.157C421.162 85.6411 421.993 85.1329 422.879 84.6169C423.844 84.0598 424.854 83.5833 425.897 83.1923L426.398 83.0306C426.595 82.9711 426.796 82.9222 426.999 82.8843C427.251 82.8229 427.509 82.7842 427.769 82.7688C428.117 82.7309 428.468 82.7309 428.816 82.7688C429.078 82.7912 429.337 82.8456 429.586 82.9305C429.879 83.0115 430.161 83.1278 430.425 83.277C431.069 83.6408 431.602 84.1733 431.965 84.8171C432.052 84.9613 432.124 85.1134 432.181 85.2715C432.235 85.4101 432.281 85.5487 432.327 85.695C432.374 85.8413 432.404 85.9876 432.428 86.1185L432.474 86.4419C432.485 86.6497 432.485 86.8579 432.474 87.0657C432.474 87.2197 432.474 87.3737 432.474 87.5354C432.372 88.3346 432.148 89.1137 431.811 89.8456C431.565 90.4231 431.311 90.9082 431.041 91.3857C430.067 93.0945 429.005 94.7523 427.861 96.3525C425.682 99.4327 423.433 102.382 421.216 105.316C418.998 108.25 416.788 111.161 414.686 114.094C413.646 115.557 412.622 117.028 411.69 118.491C411.228 119.261 410.781 119.962 410.389 120.671C410.029 121.309 409.718 121.973 409.457 122.657C409.398 122.804 409.354 122.956 409.326 123.112C409.331 122.95 409.31 122.789 409.264 122.634C409.245 122.531 409.214 122.43 409.172 122.334L409.01 122.011C408.86 121.763 408.67 121.542 408.448 121.356L408.125 121.133C408.028 121.073 407.924 121.024 407.817 120.986C407.75 120.954 407.68 120.928 407.609 120.909L407.439 120.871C407.255 120.871 407.232 120.871 407.262 120.871C407.482 120.843 407.699 120.794 407.909 120.725C408.631 120.506 409.336 120.236 410.019 119.916C410.789 119.577 411.559 119.192 412.329 118.792C415.409 117.175 418.567 115.303 421.701 113.401C424.835 111.499 427.977 109.551 431.211 107.695C432.828 106.756 434.468 105.832 436.178 104.939C437.032 104.492 437.91 104.061 438.834 103.637C439.833 103.184 440.863 102.801 441.915 102.49C442.6 102.279 443.309 102.15 444.024 102.105H444.795C445.116 102.127 445.436 102.176 445.749 102.251C446.678 102.474 447.515 102.98 448.144 103.699C448.747 104.421 449.115 105.31 449.199 106.248C449.226 106.555 449.226 106.864 449.199 107.172C449.185 107.418 449.151 107.662 449.099 107.903C448.958 108.597 448.744 109.273 448.46 109.921C448.015 110.911 447.5 111.868 446.92 112.785C446.404 113.648 445.873 114.456 445.38 115.257C443.239 118.414 441.029 121.348 438.934 124.313C437.895 125.791 436.871 127.262 435.939 128.741C435.051 130.107 434.278 131.544 433.629 133.038C433.506 133.328 433.403 133.626 433.321 133.931C433.279 134.082 433.25 134.237 433.236 134.393C433.21 134.148 433.114 133.915 432.959 133.723C432.895 133.631 432.823 133.546 432.743 133.469C432.666 133.416 432.591 133.36 432.52 133.299C432.458 133.26 432.391 133.232 432.32 133.215C432.32 133.215 432.32 133.215 432.266 133.176C432.383 133.194 432.503 133.194 432.62 133.176C432.927 133.16 433.233 133.127 433.536 133.076C434.317 132.939 435.089 132.754 435.847 132.522C439.104 131.559 442.538 130.165 446.157 128.972C448.069 128.301 450.031 127.786 452.025 127.432C453.28 127.218 454.56 127.197 455.822 127.37C456.233 127.436 456.638 127.54 457.031 127.678C457.246 127.755 457.462 127.84 457.677 127.932C457.893 128.04 458.132 128.186 458.347 128.317C458.811 128.609 459.226 128.97 459.579 129.388C459.764 129.588 459.926 129.807 460.065 130.042C460.214 130.265 460.341 130.502 460.442 130.751C460.82 131.598 461.004 132.518 460.981 133.446C460.973 134.143 460.888 134.838 460.727 135.517C460.463 136.593 460.107 137.644 459.664 138.659C458.894 140.515 458.039 142.147 457.354 143.703C457.039 144.412 456.769 145.139 456.545 145.882C456.41 146.292 456.347 146.722 456.361 147.153C456.361 147.214 456.361 147.091 456.291 147.045C456.222 146.999 456.191 146.976 456.291 147.045C456.665 147.229 457.07 147.344 457.485 147.384C459.06 147.376 460.629 147.182 462.159 146.806C463.822 146.429 465.517 145.944 467.195 145.405C470.576 144.311 473.941 142.994 477.283 141.601H477.329C477.759 141.422 478.225 141.347 478.689 141.382C479.153 141.416 479.603 141.56 480.001 141.801L525.049 168.899C540.073 177.924 555.027 187.057 570.012 196.143C584.997 205.23 599.944 214.378 614.868 223.511L637.245 237.31L659.577 251.171L636.629 238.35L613.713 225.467C598.489 216.796 583.219 208.187 568.025 199.454C552.832 190.722 537.57 182.036 522.431 173.273L476.921 146.96L479.639 147.137C476.205 148.616 472.709 150.017 469.12 151.234C467.311 151.835 465.47 152.397 463.545 152.851C461.502 153.359 459.405 153.617 457.3 153.621C455.925 153.625 454.564 153.333 453.311 152.766C452.47 152.364 451.731 151.777 451.147 151.049C450.548 150.292 450.139 149.402 449.954 148.454C449.726 147.058 449.816 145.629 450.216 144.273C450.505 143.247 450.86 142.242 451.278 141.262C452.048 139.437 452.88 137.789 453.504 136.249C453.788 135.572 454.02 134.874 454.197 134.162C454.343 133.584 454.197 133.199 454.305 133.515C454.326 133.547 454.344 133.58 454.359 133.615C454.359 133.654 454.412 133.669 454.436 133.723C454.459 133.777 454.597 133.854 454.62 133.9C454.645 133.919 454.674 133.932 454.705 133.939C454.705 133.939 454.636 133.939 454.582 133.939C454.015 133.901 453.446 133.934 452.888 134.039C451.265 134.359 449.669 134.801 448.113 135.363C444.756 136.503 441.383 137.951 437.587 139.09C436.577 139.409 435.548 139.666 434.507 139.86C433.903 139.968 433.294 140.034 432.682 140.06C431.883 140.099 431.083 140.016 430.31 139.814C430.063 139.745 429.832 139.675 429.594 139.583C429.33 139.456 429.072 139.315 428.824 139.16C428.544 139 428.285 138.806 428.054 138.582C427.8 138.349 427.571 138.091 427.368 137.812C426.687 136.854 426.321 135.707 426.321 134.532C426.325 133.772 426.428 133.016 426.629 132.283C426.78 131.697 426.973 131.123 427.207 130.566C428.008 128.687 428.974 126.883 430.094 125.175C431.118 123.543 432.189 121.987 433.267 120.455C435.408 117.375 437.61 114.441 439.581 111.507C440.066 110.737 440.536 110.036 440.967 109.32C441.365 108.674 441.72 108.003 442.03 107.31C442.118 107.117 442.188 106.916 442.238 106.71C442.238 106.71 442.238 106.71 442.238 106.764C442.238 106.817 442.238 106.887 442.238 106.995C442.288 107.47 442.487 107.918 442.808 108.273C443.121 108.653 443.547 108.922 444.024 109.043C444.115 109.067 444.208 109.08 444.302 109.081H444.356C444.155 109.114 443.957 109.16 443.763 109.22C443.046 109.443 442.346 109.715 441.668 110.036C440.898 110.375 440.128 110.76 439.358 111.168C437.818 111.984 436.278 112.87 434.691 113.786C431.573 115.619 428.462 117.552 425.297 119.469C422.132 121.387 418.959 123.32 415.548 125.106C414.686 125.553 413.808 125.984 412.884 126.4C411.886 126.855 410.856 127.239 409.803 127.547C409.133 127.748 408.444 127.88 407.747 127.94C407.233 127.981 406.716 127.961 406.207 127.878C406.035 127.852 405.865 127.814 405.699 127.763C405.516 127.715 405.336 127.656 405.16 127.586C404.95 127.496 404.744 127.396 404.544 127.285C404.327 127.166 404.123 127.024 403.936 126.862C403.534 126.535 403.195 126.139 402.935 125.691C402.81 125.491 402.704 125.28 402.619 125.06C402.535 124.857 402.465 124.649 402.411 124.436C402.265 123.832 402.221 123.207 402.28 122.588C402.355 121.829 402.528 121.084 402.796 120.37C403.187 119.333 403.661 118.329 404.213 117.367C404.706 116.474 405.222 115.635 405.753 114.811C406.8 113.178 407.886 111.63 408.98 110.106C411.174 107.025 413.423 104.122 415.656 101.196C417.889 98.2699 420.114 95.3668 422.186 92.456C423.202 91.0083 424.211 89.5221 424.981 88.1515C425.166 87.8126 425.335 87.4815 425.451 87.212C425.566 86.9425 425.636 86.6498 425.597 86.8809C425.558 87.3629 425.671 87.845 425.921 88.2593C426.174 88.7139 426.55 89.0876 427.006 89.3373C427.172 89.4281 427.344 89.5054 427.522 89.5683C427.692 89.6145 427.884 89.6376 427.923 89.653C428.043 89.6622 428.164 89.6622 428.285 89.653C428.331 89.653 428.4 89.653 428.362 89.653C428.323 89.653 428.362 89.653 428.285 89.653L428.131 89.6992C427.457 89.9645 426.803 90.2785 426.175 90.6387C425.459 91.0391 424.712 91.4858 423.972 91.9555C422.486 92.8873 420.992 93.896 419.506 94.9279C416.534 96.9916 413.577 99.1478 410.604 101.312C404.667 105.647 398.715 110.005 392.408 114.102C390.829 115.126 389.212 116.127 387.518 117.075C385.724 118.127 383.825 118.989 381.851 119.646C381.199 119.85 380.528 119.984 379.849 120.047C379.39 120.096 378.928 120.096 378.47 120.047C378.178 119.993 377.877 119.931 377.592 119.854C377.248 119.736 376.916 119.586 376.599 119.408C376.252 119.189 375.932 118.93 375.644 118.638C375.375 118.349 375.142 118.028 374.951 117.683C374.654 117.125 374.463 116.516 374.389 115.889C374.31 115.096 374.354 114.296 374.52 113.517C374.757 112.416 375.1 111.341 375.544 110.306C375.937 109.351 376.314 108.458 376.791 107.588C378.532 104.13 380.434 100.957 382.305 97.7771C384.176 94.5968 386.055 91.4781 387.695 88.344C388.482 86.8748 389.156 85.3483 389.713 83.7776C389.811 83.4695 389.891 83.1558 389.952 82.8381C389.998 82.5917 389.99 82.3761 389.998 82.4839C390.005 82.5917 389.998 82.5378 390.044 82.6379C390.078 82.731 390.125 82.8191 390.183 82.8997C390.334 83.1382 390.543 83.3343 390.791 83.4696C390.943 83.5551 391.11 83.6076 391.284 83.6236C391.33 83.6236 391.284 83.6236 391.284 83.6236C390.677 83.7424 390.089 83.9418 389.536 84.2165C388.827 84.5399 388.073 84.948 387.318 85.3716C385.778 86.2263 384.292 87.1889 382.759 88.1746C379.679 90.1459 376.599 92.2173 373.326 94.1424C371.652 95.1422 369.919 96.0397 368.136 96.8299C367.166 97.2509 366.168 97.6034 365.148 97.8849C363.94 98.2264 362.68 98.3464 361.429 98.2391C360.62 98.1548 359.836 97.9142 359.119 97.5306C358.367 97.1182 357.715 96.5451 357.209 95.8519C356.435 94.7072 355.973 93.3799 355.869 92.0017C355.724 89.899 355.893 87.7865 356.37 85.7335C357.218 82.0098 358.359 78.3587 359.781 74.8142L360.836 77.8097L329.195 58.6124L313.378 49.0098L297.592 39.3534L266.02 19.9867C255.509 13.526 245.036 6.98825 234.563 0.473633" fill="#F9CD87"/>
<path d="M254.723 290.767C251.889 290.32 246.561 286.763 243.804 283.359C249.687 283.675 253.199 286.131 254.723 290.767Z" fill="#FF6C96"/>
<path d="M254.723 290.767C251.889 290.32 246.561 286.763 243.804 283.359C249.687 283.682 253.199 286.131 254.723 290.767Z" stroke="#EF476F" stroke-width="2.34" stroke-linecap="round" stroke-linejoin="round"/>
<path d="M262.154 276.575C261.253 278.993 260.553 281.387 261.43 284.776C256.956 282.235 252.706 280.833 249.11 278.084C248.34 277.483 247.623 276.382 246.761 278.022C246.13 279.224 245.113 278.554 244.328 278.292C238.011 276.321 232.667 272.047 229.358 266.318C228.033 264.007 225.585 262.252 225.754 258.494C228.187 260.481 234.594 264.154 235.526 264.608C242.418 267.981 249.541 270.229 257.365 269.506C259.729 269.282 263.024 274.164 262.131 276.575" fill="#FF6C96"/>
<path d="M262.154 276.575C261.253 278.993 260.553 281.387 261.43 284.776C256.956 282.235 252.706 280.833 249.11 278.084C248.34 277.483 247.623 276.382 246.761 278.022C246.13 279.224 245.113 278.554 244.328 278.292C238.011 276.321 232.667 272.047 229.358 266.318C228.033 264.007 225.585 262.252 225.754 258.494C228.187 260.481 234.594 264.154 235.526 264.608C242.418 267.981 249.541 270.229 257.365 269.506C259.752 269.282 263.047 274.164 262.154 276.575Z" stroke="#EF476F" stroke-width="2.34" stroke-linecap="round" stroke-linejoin="round"/>
<path d="M380.133 320.314C375.282 323.994 366.681 323.224 361.098 321.138C361.768 319.767 362.638 318.827 363.916 318.781C368.922 318.727 373.303 316.217 378.124 315.393C380.187 315.046 381.804 315.539 382.459 317.195C383.114 318.85 381.235 319.505 380.149 320.314" fill="#FF6C96"/>
<path d="M380.134 320.314C375.282 323.994 366.681 323.224 361.098 321.138C361.768 319.767 362.638 318.827 363.916 318.781C368.922 318.727 373.303 316.217 378.124 315.393C380.187 315.046 381.805 315.539 382.459 317.195C383.114 318.85 381.25 319.482 380.134 320.314Z" stroke="#EF476F" stroke-width="2.34" stroke-linecap="round" stroke-linejoin="round"/>
<path d="M321.956 317.441C307.441 323.44 272.604 300.5 268.754 282.273C273.228 285.969 277.455 289.534 282.514 291.621C286.226 293.161 288.259 295.31 289.784 299.229C292.864 307.207 300.01 311.111 307.772 313.722C312.407 315.292 317.147 316.535 321.956 317.441Z" fill="#FF6C96"/>
<path d="M321.956 317.441C307.441 323.44 272.604 300.5 268.754 282.273C273.228 285.969 277.455 289.534 282.514 291.621C286.226 293.161 288.259 295.31 289.784 299.229C292.864 307.207 300.01 311.111 307.772 313.722C312.407 315.292 317.147 316.535 321.956 317.441V317.441Z" stroke="#EF476F" stroke-width="2.34" stroke-linecap="round" stroke-linejoin="round"/>
<path d="M377.215 298.906C376.899 303.272 375.613 307.223 371.678 309.618C370.377 310.388 368.752 312.143 367.058 309.618C366.288 308.439 365.556 309.987 365.133 310.626C362.937 313.964 360.274 316.97 357.224 319.551C354.682 321.628 351.765 323.196 348.631 324.172C346.89 324.741 345.119 324.834 342.278 324.172C349.378 320.521 350.71 315.054 349.978 308.416C348.669 309.032 348.792 309.956 348.608 310.726C347.886 313.621 346.269 316.213 343.987 318.134C340.514 321.13 335.987 321.507 332.491 318.573C329.148 315.763 325.491 314.808 321.217 314.723C311.63 314.507 302.859 311.928 295.975 304.712C293.825 302.454 292.182 299.763 291.154 296.819C290.731 295.664 290.869 295.017 292.317 295.318C301.866 297.258 309.489 293.239 316.381 287.317C318.275 285.692 319.685 285.6 321.771 286.824C329.803 291.491 337.342 297.035 345.936 300.685C352.866 303.642 359.927 305.236 367.389 302.656C370.269 301.599 372.96 300.086 375.359 298.175C375.73 297.845 376.203 297.655 376.699 297.636C377.346 297.713 377.246 298.406 377.207 298.883" fill="#FF6C96"/>
<path d="M377.215 298.906C376.899 303.272 375.613 307.223 371.678 309.618C370.377 310.388 368.752 312.143 367.058 309.618C366.288 308.439 365.556 309.987 365.133 310.626C362.937 313.964 360.274 316.97 357.224 319.551C354.682 321.628 351.765 323.196 348.631 324.172C346.89 324.741 345.119 324.834 342.278 324.172C349.378 320.521 350.71 315.054 349.978 308.416C348.669 309.032 348.792 309.956 348.608 310.726C347.886 313.621 346.269 316.213 343.987 318.134C340.514 321.13 335.987 321.507 332.49 318.573C329.148 315.763 325.491 314.808 321.217 314.723C311.63 314.507 302.859 311.928 295.975 304.712C293.825 302.454 292.182 299.763 291.154 296.819C290.731 295.664 290.869 295.017 292.317 295.318C301.866 297.258 309.489 293.239 316.381 287.317C318.275 285.692 319.685 285.6 321.771 286.824C329.803 291.491 337.342 297.035 345.936 300.685C352.866 303.642 359.927 305.236 367.389 302.656C370.269 301.599 372.96 300.086 375.359 298.175C375.73 297.845 376.203 297.655 376.699 297.636C377.354 297.736 377.253 298.406 377.215 298.906Z" stroke="#EF476F" stroke-width="2.34" stroke-linecap="round" stroke-linejoin="round"/>
<path d="M409.495 298.922C409.175 299.074 408.826 299.152 408.471 299.152C408.117 299.152 407.767 299.074 407.447 298.922C402.534 297.043 398.522 298.837 395.434 302.518C391.045 307.769 384.654 309.055 378.778 311.804C382.482 305.767 381.928 299.484 380.495 293.031C396.066 298.721 400.617 298.382 413.762 290.605C414.147 293.408 411.89 297.743 409.495 298.906" fill="#FF6C96"/>
<path d="M409.495 298.922C409.175 299.074 408.826 299.152 408.471 299.152C408.117 299.152 407.767 299.074 407.447 298.922C402.534 297.043 398.522 298.837 395.434 302.518C391.045 307.769 384.654 309.055 378.778 311.804C382.482 305.767 381.928 299.484 380.495 293.031C396.066 298.721 400.617 298.382 413.762 290.605C414.147 293.423 411.89 297.759 409.495 298.922Z" stroke="#EF476F" stroke-width="2.34" stroke-linecap="round" stroke-linejoin="round"/>
<path d="M458.979 282.958C455.444 287.001 452.048 290.975 447.613 293.816C445.996 294.856 444.317 295.895 444.648 292.153C440.798 294.632 438.919 298.675 434.699 301.355C436.393 297.212 438.041 293.816 438.064 289.981C438.064 288.957 438.942 288.603 439.835 288.749C445.226 289.65 449.507 286.886 453.92 284.529C455.46 283.698 457 282.612 458.979 282.989" fill="#FF6C96"/>
<path d="M458.979 282.958C455.444 287.001 452.048 290.975 447.613 293.816C445.996 294.856 444.317 295.895 444.648 292.153C440.798 294.632 438.919 298.675 434.699 301.355C436.393 297.212 438.041 293.816 438.064 289.981C438.064 288.957 438.942 288.603 439.835 288.749C445.226 289.65 449.507 286.886 453.92 284.529C455.483 283.682 457 282.612 458.979 282.958Z" stroke="#EF476F" stroke-width="2.34" stroke-linecap="round" stroke-linejoin="round"/>
<path d="M426.683 305.921C422.454 309.941 417.295 312.851 411.667 314.392C415.956 311.404 419.552 307.631 423.557 304.381C423.943 304.048 424.36 303.754 424.804 303.503C425.905 302.918 427.476 302.21 428.192 303.141C429.155 304.373 427.476 305.205 426.652 305.967" fill="#FF6C96"/>
<path d="M426.683 305.921C422.454 309.941 417.295 312.851 411.667 314.392C415.956 311.404 419.552 307.631 423.557 304.381C423.943 304.048 424.361 303.754 424.804 303.503C425.905 302.918 427.476 302.21 428.192 303.141C429.155 304.327 427.453 305.159 426.683 305.921Z" stroke="#EF476F" stroke-width="2.34" stroke-linecap="round" stroke-linejoin="round"/>
<path d="M433.336 293.208C432.611 294.691 431.468 295.931 430.048 296.773C423.38 300.808 417.419 305.798 411.374 310.634C404.721 315.97 397.321 317.888 388.989 315.832C387.317 315.572 385.772 314.781 384.584 313.576C390.414 311.581 394.811 308.116 398.93 304.058C400.771 302.24 403.974 302.88 406.546 302.448C407.647 302.264 407.039 303.534 406.716 304.042C405.576 305.806 403.836 306.907 402.095 307.962C399.908 309.286 397.629 310.465 395.789 312.274C395.142 312.906 394.356 313.676 394.942 314.669C395.527 315.662 396.674 315.339 397.398 314.854C405.961 309.102 415.879 304.62 418.136 292.9C418.405 291.506 419.098 291.321 420.307 291.652C424.096 292.684 427.8 291.929 431.488 290.975C432.15 290.805 432.882 290.289 433.49 290.928C434.099 291.568 433.698 292.469 433.352 293.185" fill="#FF6C96"/>
<path d="M433.336 293.208C432.611 294.691 431.468 295.931 430.048 296.773C423.38 300.808 417.419 305.798 411.374 310.634C404.721 315.97 397.321 317.888 388.989 315.832C387.317 315.572 385.772 314.781 384.584 313.576C390.414 311.581 394.811 308.116 398.93 304.058C400.771 302.24 403.974 302.88 406.546 302.448C407.647 302.264 407.039 303.534 406.716 304.042C405.576 305.806 403.836 306.907 402.095 307.962C399.908 309.286 397.629 310.465 395.789 312.274C395.142 312.906 394.356 313.676 394.942 314.669C395.527 315.662 396.674 315.339 397.398 314.854C405.961 309.102 415.879 304.62 418.136 292.9C418.405 291.506 419.098 291.321 420.307 291.652C424.096 292.684 427.8 291.929 431.488 290.975C432.15 290.805 432.882 290.289 433.49 290.928C434.099 291.568 433.683 292.492 433.336 293.208Z" stroke="#EF476F" stroke-width="2.34" stroke-linecap="round" stroke-linejoin="round"/>
<path d="M462.429 248.013C461.328 261.874 453.704 271.415 443.609 279.678C438.78 283.621 432.828 285.515 427.199 287.794C424.77 288.693 422.104 288.714 419.66 287.856C417.912 287.309 417.242 286.454 418.436 284.776C421.352 280.54 422.973 275.547 423.102 270.406C423.095 269.897 423.264 269.401 423.579 269.002C423.895 268.602 424.338 268.323 424.835 268.212C440.659 262.383 451.525 251.617 457.177 235.67C457.393 235.054 457.416 234.23 458.394 233.845C458.863 238.719 457.624 243.162 455.691 247.451C452.372 254.736 446.828 260.396 441.684 266.341C438.97 269.26 436.507 272.402 434.322 275.735C433.699 276.79 433.143 277.883 432.659 279.008C432.488 279.272 432.427 279.592 432.487 279.901C432.547 280.21 432.725 280.483 432.982 280.664C433.752 281.118 434.384 280.548 434.707 279.893C437.279 274.565 442.069 271.215 446.088 267.203C450.801 262.483 455.568 257.816 458.409 251.71C463.699 240.498 463.353 229.594 455.991 219.298C455.286 218.43 454.919 217.336 454.959 216.218C455.096 213.256 454.9 210.288 454.374 207.37C454.182 206.138 453.812 204.667 455.144 204.082C456.476 203.497 457.223 205.052 457.955 205.892C462.575 211.151 464.115 217.543 464.469 224.311C464.893 232.328 463.014 240.151 462.382 248.067" fill="#FF6C96"/>
<path d="M462.429 248.013C461.328 261.874 453.704 271.415 443.609 279.678C438.781 283.621 432.828 285.515 427.199 287.794C424.77 288.693 422.104 288.714 419.66 287.856C417.912 287.309 417.242 286.454 418.436 284.776C421.352 280.54 422.973 275.547 423.102 270.406C423.095 269.897 423.264 269.401 423.579 269.002C423.895 268.602 424.338 268.323 424.835 268.212C440.659 262.383 451.525 251.617 457.177 235.67C457.393 235.054 457.416 234.23 458.394 233.845C458.863 238.719 457.624 243.162 455.691 247.451C452.372 254.736 446.828 260.396 441.684 266.341C438.97 269.26 436.507 272.402 434.322 275.735C433.699 276.79 433.143 277.883 432.659 279.008C432.488 279.272 432.427 279.592 432.487 279.901C432.547 280.21 432.725 280.483 432.982 280.664C433.752 281.118 434.384 280.548 434.707 279.893C437.279 274.565 442.069 271.215 446.088 267.203C450.801 262.483 455.568 257.816 458.409 251.71C463.699 240.498 463.353 229.594 455.991 219.298C455.286 218.43 454.919 217.336 454.959 216.218C455.096 213.256 454.9 210.288 454.374 207.37C454.182 206.138 453.812 204.667 455.144 204.082C456.476 203.497 457.223 205.052 457.955 205.892C462.575 211.151 464.115 217.543 464.469 224.311C464.939 232.274 463.06 240.097 462.429 248.013Z" stroke="#EF476F" stroke-width="2.34" stroke-linecap="round" stroke-linejoin="round"/>
<path d="M452.965 200.086C451.586 199.177 451.425 197.776 450.809 196.659C446.596 189.012 441.568 182.236 432.882 179.163C431.503 178.671 431.242 177.87 431.627 176.568C432.397 173.739 432.632 170.79 432.32 167.875C439.427 173.658 447.02 178.894 451.833 186.949C454.305 191.053 455.159 195.373 452.965 200.086Z" fill="#FF6C96"/>
<path d="M452.965 200.086C451.586 199.177 451.425 197.776 450.809 196.659C446.596 189.012 441.568 182.236 432.882 179.163C431.503 178.671 431.242 177.87 431.627 176.568C432.397 173.739 432.632 170.79 432.32 167.875C439.427 173.658 447.02 178.894 451.833 186.949C454.305 191.053 455.175 195.373 452.965 200.086Z" stroke="#EF476F" stroke-width="2.34" stroke-linecap="round" stroke-linejoin="round"/>
<path d="M231.006 197.106C231.714 199.054 231.114 199.454 229.335 199.369C228.302 199.331 227.269 199.411 226.255 199.608C222.404 200.324 222.35 200.378 222.481 196.297C222.789 186.633 228.295 179.595 234.456 172.887C233.093 176.53 231.499 180.049 230.605 183.838C229.55 188.319 229.373 192.762 230.983 197.106" fill="#FF6C96"/>
<path d="M231.006 197.106C231.714 199.054 231.114 199.454 229.335 199.369C228.302 199.331 227.269 199.411 226.255 199.608C222.404 200.324 222.35 200.378 222.481 196.297C222.789 186.633 228.295 179.595 234.456 172.887C233.093 176.53 231.499 180.049 230.605 183.838C229.55 188.319 229.396 192.762 231.006 197.106Z" stroke="#EF476F" stroke-width="2.34" stroke-linecap="round" stroke-linejoin="round"/>
<path d="M253.037 181.304C244.659 184.569 240.37 191.169 238.167 199.477C238.044 199.955 238.013 200.494 237.436 200.709C234.07 197.745 232.815 190.93 234.918 187.326C235.092 186.952 235.357 186.626 235.688 186.379C241.14 183.653 245.783 179.41 251.797 177.754C252.891 177.454 254.053 177.146 254.531 178.732C254.939 180.126 254.238 180.842 253.06 181.304" fill="#FF6C96"/>
<path d="M253.037 181.304C244.659 184.569 240.37 191.169 238.167 199.477C238.044 199.955 238.013 200.494 237.436 200.709C234.07 197.745 232.815 190.93 234.918 187.326C235.092 186.952 235.357 186.626 235.688 186.379C241.14 183.653 245.783 179.41 251.797 177.754C252.891 177.454 254.053 177.146 254.531 178.732C254.916 180.126 254.192 180.842 253.037 181.304Z" stroke="#EF476F" stroke-width="2.34" stroke-linecap="round" stroke-linejoin="round"/>
<path d="M281.044 149.694C280.943 150.656 279.966 150.371 279.303 150.464C272.234 151.172 265.697 153.082 260.529 158.364C256.926 162.053 254.446 166.242 253.953 171.455C253.83 172.78 253.614 174.027 251.851 174.366C246.368 175.413 242.025 178.724 237.582 181.805C236.881 182.274 236.296 183.53 235.272 182.79C234.432 182.174 235.01 181.065 235.218 180.203C236.758 173.896 239.623 168.398 245.021 164.455C250.578 160.461 255.659 155.844 260.168 150.695C263.14 147.245 266.366 144.08 271.172 144.373C272.865 144.305 274.554 144.608 276.118 145.261C277.682 145.914 279.085 146.901 280.227 148.154C280.675 148.553 280.964 149.099 281.044 149.694Z" fill="#FF6C96"/>
<path d="M281.044 149.694C280.943 150.656 279.966 150.371 279.303 150.464C272.234 151.172 265.697 153.082 260.529 158.364C256.926 162.053 254.446 166.242 253.953 171.455C253.83 172.78 253.614 174.027 251.851 174.366C246.368 175.413 242.025 178.724 237.582 181.805C236.881 182.274 236.296 183.53 235.272 182.79C234.432 182.174 235.01 181.065 235.218 180.203C236.758 173.896 239.623 168.398 245.021 164.455C250.578 160.461 255.659 155.844 260.168 150.695C263.14 147.245 266.366 144.08 271.172 144.373C272.865 144.305 274.554 144.608 276.118 145.261C277.682 145.914 279.085 146.901 280.227 148.154C280.675 148.553 280.964 149.099 281.044 149.694Z" stroke="#EF476F" stroke-width="2.34" stroke-linecap="round" stroke-linejoin="round"/>
<path d="M320 123.243C318.353 124.783 317.128 125.838 316.012 127.016C315.611 127.474 315.103 127.826 314.534 128.041C313.964 128.256 313.35 128.327 312.747 128.248C310.621 128.04 308.496 127.878 306.371 127.717C305.408 127.647 304.476 127.462 304.261 126.361C304.006 125.021 305.031 124.544 306.009 124.29C310.581 123.158 315.311 122.804 320 123.243Z" fill="#FF6C96"/>
<path d="M320 123.243C318.353 124.783 317.128 125.838 316.012 127.016C315.611 127.474 315.103 127.826 314.534 128.041C313.964 128.256 313.35 128.327 312.747 128.248C310.621 128.04 308.496 127.878 306.371 127.717C305.408 127.647 304.476 127.462 304.261 126.361C304.006 125.021 305.031 124.544 306.009 124.29C310.581 123.158 315.311 122.804 320 123.243V123.243Z" stroke="#EF476F" stroke-width="2.34" stroke-linecap="round" stroke-linejoin="round"/>
<path d="M299.286 128.032C298.393 129.11 297.161 128.933 296.144 129.28C289.637 131.49 284.524 135.209 282.245 142.001C281.729 143.541 281.228 144.388 279.542 143.048C276.924 140.946 273.613 140.576 269.531 139.775C276.015 135.756 281.29 131.698 287.204 128.694C291.054 126.754 295.058 125.868 299.278 128.032" fill="#FF6C96"/>
<path d="M299.286 128.032C298.393 129.11 297.161 128.933 296.144 129.28C289.637 131.49 284.524 135.209 282.245 142.001C281.729 143.541 281.228 144.388 279.542 143.048C276.924 140.946 273.613 140.576 269.531 139.775C276.015 135.756 281.29 131.698 287.204 128.694C291.039 126.754 295.066 125.868 299.286 128.032Z" stroke="#EF476F" stroke-width="2.34" stroke-linecap="round" stroke-linejoin="round"/>
<path d="M321.186 161.298C312.508 165.372 308.041 172.272 307.918 181.913C307.98 182.313 307.98 182.721 307.918 183.122C307.815 183.389 307.654 183.629 307.448 183.827C307.241 184.025 306.993 184.175 306.722 184.266C306.45 184.357 306.162 184.387 305.878 184.355C305.594 184.322 305.32 184.227 305.077 184.076C302.767 182.906 299.463 187.395 298.031 183.045C296.562 178.664 293.766 174.851 290.03 172.133C284.486 167.867 278.279 164.741 272.088 161.583C271.703 161.291 271.247 161.108 270.767 161.054C270.287 161 269.802 161.076 269.362 161.275C272.396 163.339 275.16 165.357 278.063 167.166C282.391 169.877 286.981 172.195 290.531 175.999C291.391 176.872 292.196 177.798 292.941 178.771C296.907 184.231 296.791 185.262 291.401 189.005C288.911 190.725 286.837 192.978 285.329 195.601C283.821 198.224 282.917 201.15 282.684 204.167C282.36 207.247 276.523 209.835 275.291 210.404C275.715 212.36 278.757 213.077 278.033 214.771C277.509 215.987 275.106 216.311 273.674 217.25C267.229 221.401 262.986 231.281 264.526 238.966C264.996 241.276 264.526 242.816 262.87 244.602C258.158 249.685 256.564 255.93 257.357 262.745C257.75 266.225 257.719 266.595 254.207 266.233C240.685 264.878 229.127 259.426 220.934 248.399C216.567 242.516 216.444 235.154 216.544 228.069C216.683 224.71 217.058 221.365 217.669 218.059C218.221 213.956 220.256 210.198 223.39 207.494C225.304 205.776 227.752 204.773 230.32 204.652C235.865 204.437 236.927 205.884 234.848 210.92C233.408 214.409 232.138 217.943 230.513 221.37C228.118 226.406 228.364 231.758 230.19 236.917C233.054 245.087 239.43 250.008 246.807 254.451C247.084 252.087 245.598 251.186 244.42 250.193C241.162 247.569 238.238 244.556 235.711 241.222C228.927 231.881 230.644 220.823 240 214.016C241.147 213.177 241.94 212.645 241.502 210.89C237.582 195.096 247.015 182.937 263.325 182.636C265.204 182.636 267.075 182.636 269.693 182.636C267.237 180.997 264.367 180.084 261.415 180.003C258.689 179.795 257.965 178.286 257.565 176.114C256.063 167.228 262.262 157.448 270.971 154.899C277.748 152.92 284.547 153.837 291.347 154.668C294.288 155.023 297.215 155.5 300.141 155.947C301.461 156.132 302.806 156.016 304.076 155.608C304.676 155.423 305.354 155.161 305.346 154.46C305.339 153.76 304.576 153.636 303.976 153.536C299.055 152.712 294.142 151.742 289.191 151.095C286.919 150.81 286.295 149.686 286.195 147.692C285.849 140.977 291.047 136.418 297.453 138.197C307.141 140.877 314.787 146.668 321.094 154.368C321.735 155.287 322.289 156.264 322.749 157.286C323.804 159.242 323.242 160.367 321.209 161.298" fill="#FF6C96"/>
<path d="M321.186 161.298C312.508 165.372 308.042 172.272 307.918 181.913C307.98 182.313 307.98 182.721 307.918 183.122C307.815 183.389 307.654 183.629 307.448 183.827C307.241 184.025 306.993 184.175 306.722 184.266C306.45 184.357 306.162 184.387 305.878 184.355C305.594 184.322 305.32 184.227 305.077 184.076C302.767 182.906 299.463 187.395 298.031 183.045C296.562 178.664 293.766 174.851 290.03 172.133C284.486 167.867 278.279 164.741 272.088 161.583C271.703 161.291 271.247 161.108 270.767 161.054C270.287 161 269.802 161.076 269.362 161.275C272.396 163.339 275.16 165.357 278.064 167.166C282.391 169.877 286.981 172.195 290.531 175.999C291.391 176.872 292.196 177.798 292.941 178.771C296.907 184.231 296.791 185.262 291.401 189.005C288.911 190.725 286.837 192.978 285.329 195.601C283.821 198.224 282.917 201.15 282.684 204.167C282.36 207.247 276.523 209.835 275.291 210.404C275.715 212.36 278.757 213.077 278.033 214.771C277.509 215.987 275.107 216.311 273.674 217.25C267.229 221.401 262.986 231.281 264.526 238.966C264.996 241.276 264.526 242.816 262.87 244.602C258.158 249.685 256.564 255.93 257.357 262.745C257.75 266.225 257.719 266.595 254.207 266.233C240.685 264.878 229.127 259.426 220.934 248.399C216.567 242.516 216.444 235.154 216.544 228.069C216.683 224.71 217.058 221.365 217.669 218.059C218.221 213.956 220.256 210.198 223.39 207.494C225.304 205.776 227.752 204.773 230.32 204.652C235.865 204.437 236.927 205.884 234.848 210.92C233.408 214.409 232.138 217.943 230.513 221.37C228.118 226.406 228.365 231.758 230.19 236.917C233.054 245.087 239.43 250.008 246.807 254.451C247.084 252.087 245.598 251.186 244.42 250.193C241.162 247.569 238.238 244.556 235.711 241.222C228.927 231.881 230.644 220.823 240 214.016C241.147 213.177 241.94 212.645 241.502 210.89C237.582 195.096 247.015 182.937 263.325 182.636C265.204 182.636 267.075 182.636 269.693 182.636C267.237 180.997 264.367 180.084 261.415 180.003C258.689 179.795 257.965 178.286 257.565 176.114C256.063 167.228 262.262 157.448 270.971 154.899C277.748 152.92 284.547 153.837 291.347 154.668C294.288 155.023 297.215 155.5 300.141 155.947C301.461 156.132 302.807 156.016 304.076 155.608C304.676 155.423 305.354 155.161 305.346 154.46C305.339 153.76 304.576 153.636 303.976 153.536C299.055 152.712 294.142 151.742 289.191 151.095C286.919 150.81 286.295 149.686 286.195 147.692C285.849 140.977 291.047 136.418 297.453 138.197C307.141 140.877 314.787 146.668 321.094 154.368C321.735 155.287 322.289 156.264 322.75 157.286C323.812 159.242 323.25 160.336 321.186 161.298Z" stroke="#EF476F" stroke-width="2.34" stroke-linecap="round" stroke-linejoin="round"/>
<path d="M352.812 148.515C349.239 150.002 346.074 152.235 344.242 155.654C343.602 156.84 343.471 158.441 342.794 158.264C338.958 157.515 335.058 157.146 331.151 157.163C328.07 157.494 326.284 156.863 324.728 153.713C320.817 145.766 313.871 140.622 306.524 136.048C304.299 134.655 301.904 133.469 299.802 131.151C306.732 130.481 312.893 131.674 319.053 133.207C327.963 135.409 336.764 137.997 345.928 139.075C347.782 139.205 349.552 139.899 351.001 141.064C352.45 142.228 353.509 143.807 354.037 145.589C354.483 146.921 354.337 147.899 352.828 148.515" fill="#FF6C96"/>
<path d="M352.812 148.515C349.239 150.002 346.074 152.235 344.241 155.654C343.602 156.84 343.471 158.441 342.794 158.264C338.958 157.515 335.058 157.146 331.151 157.163C328.07 157.494 326.284 156.863 324.728 153.713C320.817 145.766 313.871 140.622 306.524 136.048C304.299 134.655 301.904 133.469 299.802 131.151C306.732 130.481 312.893 131.674 319.053 133.207C327.963 135.409 336.764 137.997 345.928 139.075C347.782 139.205 349.552 139.899 351.001 141.064C352.45 142.228 353.509 143.807 354.036 145.589C354.468 146.921 354.298 147.884 352.812 148.515Z" stroke="#EF476F" stroke-width="2.34" stroke-linecap="round" stroke-linejoin="round"/>
<path d="M339.036 134.185C332.298 135.455 326.954 131.182 320.917 129.418C328.309 125.753 333.492 130.65 339.036 134.185Z" fill="#FF6C96"/>
<path d="M339.036 134.185C332.298 135.455 326.954 131.182 320.917 129.418C328.309 125.753 333.507 130.65 339.036 134.185Z" stroke="#EF476F" stroke-width="2.34" stroke-linecap="round" stroke-linejoin="round"/>
<path d="M349.747 124.844C349.231 126.222 348.977 127.994 347.599 128.771C346.013 129.634 344.311 130.211 342.447 128.964C340.584 127.716 338.397 126.654 336.349 125.514C335.448 125.021 334.385 124.528 334.416 123.373C334.416 121.98 335.794 121.749 336.803 121.379C339.995 120.303 343.345 119.77 346.713 119.8C348.523 119.947 351.264 119.438 351.942 120.401C353.035 121.941 350.402 123.188 349.747 124.844Z" fill="#FF6C96"/>
<path d="M349.747 124.844C349.231 126.222 348.977 127.994 347.599 128.771C346.013 129.634 344.311 130.211 342.447 128.964C340.584 127.716 338.397 126.654 336.349 125.514C335.448 125.021 334.385 124.528 334.416 123.373C334.416 121.98 335.794 121.749 336.803 121.379C339.995 120.303 343.345 119.77 346.713 119.8C348.523 119.947 351.264 119.438 351.942 120.401C353.035 121.926 350.371 123.188 349.747 124.844Z" stroke="#EF476F" stroke-width="2.34" stroke-linecap="round" stroke-linejoin="round"/>
<path d="M363.97 146.044C363.3 147.476 361.398 146.59 360.043 146.721C358.179 146.914 357.948 145.389 357.733 144.111C357.086 140.738 355.022 138.266 352.75 135.841C354.097 136.934 355.577 137.853 357.155 138.574C359.126 139.451 360.87 140.769 362.253 142.424C363.154 143.503 364.563 144.781 363.993 146.074" fill="#FF6C96"/>
<path d="M363.97 146.044C363.3 147.476 361.398 146.59 360.043 146.721C358.179 146.914 357.948 145.389 357.733 144.111C357.086 140.738 355.022 138.266 352.75 135.841C354.097 136.934 355.577 137.853 357.155 138.574C359.126 139.451 360.87 140.769 362.253 142.424C363.131 143.472 364.563 144.75 363.97 146.044Z" stroke="#EF476F" stroke-width="2.34" stroke-linecap="round" stroke-linejoin="round"/>
<path d="M386.51 141.547C384.335 143.092 382.601 145.178 381.481 147.599C380.988 148.585 380.403 149.363 379.171 149.039C375.683 148.531 372.24 148.323 368.86 147.376C368.411 147.294 367.992 147.091 367.65 146.788C367.308 146.485 367.055 146.095 366.919 145.659C364.802 138.921 359.796 135.224 353.521 132.799C350.44 131.613 350.309 131.02 352.558 128.664C357.679 123.273 363.986 122.719 370.639 124.775C377.746 126.97 382.96 131.705 387.018 137.866C387.942 139.29 388.027 140.461 386.486 141.523" fill="#FF6C96"/>
<path d="M386.51 141.547C384.335 143.092 382.601 145.178 381.481 147.599C380.988 148.585 380.403 149.363 379.171 149.039C375.683 148.531 372.24 148.323 368.86 147.376C368.411 147.294 367.992 147.091 367.65 146.788C367.308 146.485 367.055 146.095 366.919 145.659C364.802 138.921 359.796 135.224 353.521 132.799C350.44 131.613 350.309 131.02 352.558 128.664C357.679 123.273 363.986 122.719 370.639 124.775C377.746 126.97 382.96 131.705 387.018 137.866C387.965 139.313 388.05 140.453 386.51 141.547Z" stroke="#EF476F" stroke-width="2.34" stroke-linecap="round" stroke-linejoin="round"/>
<path d="M420.399 155.985C420.13 157.048 419.314 156.986 418.644 157.001C414.442 157.176 410.357 158.433 406.785 160.652C405.245 161.568 403.351 161.422 401.787 162.815C400.902 163.585 399.015 161.868 398.13 160.682C394.954 156.516 390.74 153.258 385.909 151.234C383.93 150.356 384.261 149.332 385.139 147.907C386.638 145.311 389.001 143.323 391.815 142.289C394.629 141.255 397.716 141.24 400.54 142.247C408.009 144.796 413.839 150.071 419.791 155.053C420.045 155.326 420.265 155.629 420.446 155.954" fill="#FF6C96"/>
<path d="M420.399 155.985C420.13 157.048 419.314 156.986 418.644 157.001C414.442 157.176 410.357 158.433 406.785 160.652C405.245 161.568 403.351 161.422 401.787 162.815C400.902 163.585 399.015 161.868 398.13 160.682C394.954 156.516 390.74 153.258 385.909 151.234C383.93 150.356 384.261 149.332 385.139 147.907C386.638 145.311 389.001 143.323 391.815 142.289C394.629 141.255 397.716 141.24 400.54 142.247C408.009 144.796 413.839 150.071 419.791 155.053C420.031 155.338 420.235 155.651 420.399 155.985V155.985Z" stroke="#EF476F" stroke-width="2.34" stroke-linecap="round" stroke-linejoin="round"/>
<path d="M427.776 171.879C427.776 177.046 427.006 178.178 422.032 178.994C416.164 179.964 410.543 181.882 404.744 183.083C403.851 183.275 402.596 183.737 402.08 183.337C398.892 180.881 395.812 182.837 392.716 183.337C391.084 183.591 389.89 183.337 389.551 181.45C387.865 172.071 381.743 165.672 374.705 160.058C372.071 157.949 370.246 155.346 368.313 152.735C367.328 151.411 367.659 150.726 369.353 150.672C371.092 150.605 372.821 150.965 374.389 151.719C382.83 155.61 391.035 159.994 398.961 164.848C399.888 165.477 400.93 165.915 402.027 166.139C403.124 166.362 404.254 166.366 405.353 166.15C408.56 165.512 411.683 164.509 414.663 163.162C422.363 159.781 427.753 163.393 427.753 171.879" fill="#FF6C96"/>
<path d="M427.776 171.879C427.776 177.046 427.006 178.178 422.032 178.994C416.164 179.964 410.543 181.882 404.744 183.083C403.851 183.275 402.596 183.737 402.08 183.337C398.892 180.881 395.812 182.837 392.716 183.337C391.084 183.591 389.89 183.337 389.551 181.45C387.865 172.071 381.743 165.672 374.705 160.058C372.071 157.949 370.246 155.346 368.313 152.735C367.328 151.411 367.659 150.726 369.353 150.672C371.092 150.605 372.821 150.965 374.389 151.719C382.83 155.61 391.035 159.994 398.961 164.848C399.888 165.477 400.93 165.915 402.027 166.139C403.124 166.362 404.254 166.366 405.353 166.15C408.56 165.512 411.683 164.509 414.663 163.162C422.355 159.781 427.746 163.393 427.776 171.879Z" stroke="#EF476F" stroke-width="2.34" stroke-linecap="round" stroke-linejoin="round"/>
<path d="M449.153 222.64C448.036 221 447.405 220.115 449.869 219.56C450.639 219.383 450.924 218.667 451.07 217.935C452.842 209.026 451.44 200.863 445.441 193.771C444.933 193.171 444.41 192.354 443.447 192.678C442.631 192.955 442.677 193.84 442.561 194.51C441.945 197.991 440.937 201.341 438.472 203.951C436.832 205.692 436.932 206.762 438.38 208.772C443.639 215.949 446.45 223.88 442.415 232.559C439.335 239.196 433.837 244.209 429.324 249.877C429.186 250.054 428.793 250.031 428.2 250.185C429.424 246.212 431.688 243.124 433.96 240.043C436.232 236.963 438.665 234.076 440.043 230.503C443.639 221.131 439.096 209.881 429.909 205.283C426.829 203.743 426.829 203.682 429.74 201.726C431.596 200.455 433.521 199.277 435.284 197.876C439.905 194.172 439.574 189.952 434.407 186.987C430.464 184.731 426.206 184.762 421.878 185.316C415.302 186.155 408.787 187.68 402.072 186.594C396.228 185.647 390.452 185.732 385.023 188.604C384.638 188.804 384.107 189.135 383.614 188.173C388.72 184.731 386.402 180.472 384.569 176.337C383.326 173.627 381.66 171.131 379.633 168.945C374.291 162.995 367.908 158.071 360.798 154.414C355.284 151.557 349.732 153.459 346.86 159.034C345.997 160.713 346.251 161.529 348.099 162.215C351.749 163.547 355.376 164.964 358.88 166.65C363.785 169.022 368.567 171.648 373.796 174.351C371.971 175.467 370.716 174.913 369.522 174.558C365.965 173.503 362.831 171.517 359.512 169.977C351.326 166.188 343.04 162.807 333.938 161.783C321.617 160.405 310.837 170.038 311.445 181.943C311.538 183.822 312.154 184.846 313.979 185.57C318.229 187.249 321.941 189.859 326.13 192.655C324.12 193.186 323.15 192.262 322.087 191.784C315.788 188.974 309.428 186.394 302.312 187.334C295.043 188.273 289.66 191.954 286.911 198.8C284.232 205.445 285.564 211.806 288.921 217.928C289.853 219.614 291.416 221.008 291.716 223.318C289.645 222.717 288.636 221.27 287.366 220.091C286.431 219.151 285.273 218.462 284.001 218.089C277.07 216.18 268.6 221.94 267.406 229.386C266.528 235 267.052 240.39 270.486 245.203C270.81 245.657 271.426 246.119 270.817 246.797C266.336 245.003 265.465 245.11 263.155 249.746C259.367 257.331 258.581 264.893 264.264 272.178C271.135 281.036 280.36 287.782 290.885 291.644C295.147 293.257 299.859 293.213 304.091 291.521C309.262 289.557 313.834 286.282 317.359 282.019C318.021 281.249 318.129 281.249 318.899 281.734C325.06 285.553 331.253 289.324 337.48 293.046C343.117 296.411 348.893 299.383 355.407 300.8C366.781 303.265 381.127 295.41 380.542 281.079C380.542 280.517 380.295 279.855 381.096 279.239C382.344 281.803 383.029 284.398 382.482 287.155C382.286 287.792 382.345 288.481 382.646 289.076C382.948 289.671 383.469 290.125 384.099 290.343C393.34 294.848 402.665 294.64 410.974 289.026C418.751 283.767 420.877 275.389 419.56 266.194C419.406 265.17 418.859 264.115 419.56 262.991C422.455 266.071 422.517 266.225 426.49 264.623C437.764 260.096 445.803 251.91 450.716 241.06C452.126 238.121 452.726 234.859 452.455 231.61C452.184 228.362 451.053 225.244 449.176 222.579L449.153 222.64ZM277.84 269.921C273.651 268.985 269.625 267.428 265.897 265.301C265.188 264.916 264.233 264.654 264.772 263.538C265.311 262.421 266.259 262.768 267.129 263.16C269.932 264.392 272.727 265.648 275.538 266.857C278.661 268.148 281.885 269.178 285.179 269.937C282.715 271.331 280.227 270.414 277.84 269.937V269.921ZM331.682 258.779C325.828 255.768 319.201 254.597 312.669 255.421C307.895 256.03 304.076 258.502 300.664 261.705C298.431 263.799 296.306 266.017 294.073 268.112C292.895 269.213 291.624 270.276 289.591 269.752C295.544 265.132 299.825 258.656 306.717 255.213C311.53 252.857 316.973 252.115 322.241 253.096C323.727 253.342 325.652 254.058 325.16 250.701C327.663 253.919 330.865 256.526 334.523 258.324C337.283 259.911 340.42 260.722 343.602 260.673C345.966 260.573 347.283 261.197 347.183 263.853C347.137 265.239 347.576 266.633 347.892 268.651C342.862 264.802 337.442 261.493 331.72 258.779H331.682ZM351.465 200.91C350.325 201.68 349.401 201.957 349.154 200.139C348.146 192.308 343.348 186.594 338.374 180.965C335.951 178.203 333.548 175.421 331.166 172.618C330.727 172.11 330.042 171.663 330.535 170.431C330.963 170.534 331.373 170.7 331.751 170.924C339.506 177.746 347.445 184.438 350.856 194.718C351.472 196.582 352.25 197.167 354.167 196.397C359.73 194.168 365.938 194.168 371.501 196.397C373.041 196.982 374.451 197.082 375.806 195.55C375.583 200.37 381.327 201.333 381.281 205.684C380.257 206.154 379.887 205.145 379.41 204.652C372.579 197.652 360.882 194.557 351.441 200.963L351.465 200.91ZM401.356 274.603C401.031 274.766 400.661 274.814 400.305 274.742C399.949 274.669 399.628 274.479 399.392 274.203C397.783 272.786 397.221 270.776 396.466 268.89C393.887 262.406 390.845 256.199 386.286 250.824C382.39 246.204 378.085 242.238 372.009 240.813C370.793 240.521 370.469 239.82 370.747 238.819C371.617 235.415 371.324 231.95 371.671 228.354C373.819 230.988 373.349 236.17 378.824 234.607C378.824 235.285 378.901 235.593 378.824 235.654C375.321 238.211 375.298 238.242 378.94 240.806C381.046 242.434 382.91 244.352 384.477 246.504C390.893 254.692 396.517 263.472 401.271 272.724C401.602 273.348 402.134 274.049 401.271 274.596L401.356 274.603ZM412.052 249.415C408.679 244.564 405.522 239.574 401.664 235.084C401.294 234.653 400.594 234.183 401.187 233.544C401.78 232.905 402.426 233.359 402.873 233.698C404.891 235.277 406.254 234.43 407.717 232.774C409.033 231.28 410.62 230.01 413.107 230.056C411.721 231.781 410.42 233.583 408.926 235.208C407.432 236.832 407.386 237.895 408.718 239.666C411.259 242.985 412.807 246.858 414.239 251.163C412.776 251.017 412.522 250.046 412.067 249.4" fill="#FF6C96"/>
<path d="M449.153 222.64C448.036 221 447.405 220.115 449.869 219.56C450.639 219.383 450.924 218.667 451.07 217.935C452.842 209.026 451.44 200.863 445.441 193.771C444.933 193.171 444.409 192.354 443.447 192.678C442.631 192.955 442.677 193.84 442.561 194.51C441.945 197.991 440.937 201.341 438.472 203.951C436.832 205.692 436.932 206.762 438.38 208.772C443.639 215.949 446.45 223.88 442.415 232.559C439.335 239.196 433.837 244.209 429.324 249.877C429.186 250.054 428.793 250.031 428.2 250.185C429.424 246.212 431.688 243.124 433.96 240.043C436.232 236.963 438.665 234.076 440.043 230.503C443.639 221.131 439.096 209.881 429.909 205.283C426.829 203.743 426.829 203.682 429.74 201.726C431.596 200.455 433.521 199.277 435.284 197.876C439.905 194.172 439.574 189.952 434.407 186.987C430.464 184.731 426.206 184.762 421.878 185.316C415.302 186.155 408.787 187.68 402.072 186.594C396.227 185.647 390.452 185.732 385.023 188.604C384.638 188.804 384.107 189.135 383.614 188.173C388.72 184.731 386.402 180.472 384.569 176.337C383.326 173.627 381.66 171.131 379.633 168.945C374.291 162.995 367.908 158.071 360.798 154.414C355.284 151.557 349.732 153.459 346.86 159.034C345.997 160.713 346.251 161.529 348.099 162.215C351.749 163.547 355.376 164.964 358.88 166.65C363.785 169.022 368.567 171.648 373.796 174.351C371.971 175.467 370.716 174.913 369.522 174.558C365.965 173.503 362.83 171.517 359.512 169.977C351.326 166.188 343.04 162.807 333.938 161.783C321.617 160.405 310.837 170.038 311.445 181.943C311.538 183.822 312.154 184.846 313.979 185.57C318.229 187.249 321.941 189.859 326.13 192.655C324.12 193.186 323.15 192.262 322.087 191.784C315.788 188.974 309.428 186.394 302.312 187.334C295.043 188.273 289.66 191.954 286.911 198.8C284.232 205.445 285.564 211.806 288.921 217.928C289.853 219.614 291.416 221.008 291.716 223.318C289.645 222.717 288.636 221.27 287.366 220.091C286.431 219.151 285.273 218.462 284.001 218.089C277.07 216.18 268.6 221.94 267.406 229.386C266.528 235 267.052 240.39 270.486 245.203C270.81 245.657 271.426 246.119 270.817 246.797C266.336 245.003 265.465 245.11 263.155 249.746C259.367 257.331 258.581 264.893 264.264 272.178C271.135 281.036 280.36 287.782 290.885 291.644C295.147 293.257 299.859 293.213 304.091 291.521C309.262 289.557 313.834 286.282 317.359 282.019C318.021 281.249 318.129 281.249 318.899 281.734C325.06 285.553 331.253 289.324 337.48 293.046C343.117 296.411 348.893 299.383 355.407 300.8C366.781 303.265 381.127 295.41 380.542 281.079C380.542 280.517 380.295 279.855 381.096 279.239C382.344 281.803 383.029 284.398 382.482 287.155C382.286 287.792 382.345 288.481 382.646 289.076C382.948 289.671 383.469 290.125 384.099 290.343C393.34 294.848 402.665 294.64 410.974 289.026C418.751 283.767 420.877 275.389 419.56 266.194C419.406 265.17 418.859 264.115 419.56 262.991C422.455 266.071 422.517 266.225 426.49 264.623C437.764 260.096 445.803 251.91 450.716 241.06C452.111 238.126 452.7 234.875 452.426 231.639C452.151 228.402 451.022 225.297 449.153 222.64V222.64ZM277.817 269.983C273.628 269.047 269.602 267.489 265.874 265.363C265.165 264.978 264.21 264.716 264.749 263.599C265.288 262.483 266.236 262.829 267.106 263.222C269.909 264.454 272.704 265.709 275.515 266.918C278.638 268.209 281.862 269.24 285.156 269.998C282.684 271.361 280.204 270.445 277.817 269.983V269.983ZM331.659 258.825C325.805 255.814 319.177 254.644 312.646 255.468C307.872 256.076 304.053 258.548 300.641 261.751C298.408 263.846 296.283 266.063 294.05 268.158C292.872 269.259 291.601 270.322 289.568 269.798C295.52 265.178 299.802 258.702 306.694 255.26C311.506 252.903 316.95 252.161 322.218 253.142C323.704 253.388 325.629 254.105 325.137 250.747C327.64 253.965 330.842 256.572 334.5 258.371C337.26 259.957 340.397 260.769 343.579 260.719C345.943 260.619 347.26 261.243 347.16 263.9C347.114 265.286 347.553 266.679 347.868 268.697C342.827 264.846 337.394 261.537 331.659 258.825V258.825ZM351.403 200.956C350.263 201.726 349.339 202.003 349.093 200.186C348.084 192.354 343.287 186.641 338.312 181.011C335.889 178.25 333.486 175.467 331.104 172.664C330.666 172.156 329.98 171.709 330.473 170.477C330.901 170.58 331.311 170.746 331.69 170.97C339.444 177.793 347.383 184.484 350.795 194.765C351.411 196.628 352.188 197.213 354.106 196.443C359.669 194.214 365.877 194.214 371.44 196.443C372.98 197.028 374.389 197.129 375.744 195.596C375.521 200.417 381.265 201.379 381.219 205.73C380.195 206.2 379.825 205.191 379.348 204.698C372.541 197.645 360.844 194.549 351.403 200.956V200.956ZM401.318 274.596C400.993 274.758 400.623 274.807 400.267 274.734C399.911 274.662 399.589 274.472 399.354 274.195C397.745 272.778 397.182 270.768 396.428 268.882C393.848 262.398 390.806 256.191 386.248 250.816C382.351 246.196 378.047 242.23 371.971 240.806C370.754 240.513 370.431 239.812 370.708 238.811C371.578 235.408 371.286 231.943 371.632 228.346C373.781 230.98 373.311 236.162 378.786 234.599C378.786 235.277 378.863 235.585 378.786 235.646C375.282 238.203 375.259 238.234 378.901 240.798C381.007 242.426 382.871 244.345 384.438 246.496C390.868 254.685 396.505 263.468 401.271 272.724C401.633 273.348 402.165 274.049 401.318 274.596V274.596ZM412.052 249.415C408.679 244.564 405.522 239.574 401.664 235.084C401.294 234.653 400.594 234.183 401.187 233.544C401.78 232.905 402.426 233.359 402.873 233.698C404.891 235.277 406.254 234.43 407.717 232.774C409.033 231.28 410.62 230.01 413.107 230.056C411.721 231.781 410.42 233.583 408.926 235.208C407.432 236.832 407.386 237.895 408.718 239.666C411.259 242.985 412.807 246.858 414.239 251.163C412.722 251.032 412.468 250.062 412.052 249.415Z" stroke="#EF476F" stroke-width="2.34" stroke-linecap="round" stroke-linejoin="round"/>
<path d="M542.452 520.472C542.452 524.038 537.432 526.918 531.256 526.918C525.08 526.918 520.067 524.038 520.067 520.472C520.067 516.907 525.064 514.035 531.256 514.035C537.447 514.035 542.452 516.915 542.452 520.472Z" fill="#F9CD87"/>
<path d="M198.333 264.97C198.333 268.535 193.32 271.408 187.144 271.408C180.968 271.408 175.955 268.535 175.955 264.97C175.955 261.405 180.953 258.525 187.144 258.525C193.335 258.525 198.333 261.405 198.333 264.97Z" fill="#F9CD87"/>
</g>
<defs>
<clipPath id="clip0_2_2996">
<rect width="669.693" height="600" fill="white"/>
</clipPath>
</defs>
</svg>
