<svg width="450" height="600" viewBox="0 0 450 600" fill="none" xmlns="http://www.w3.org/2000/svg">
<g clip-path="url(#clip0_2_3237)">
<path fill-rule="evenodd" clip-rule="evenodd" d="M266.756 17.8413C260.989 20.685 260.758 30.9 266.396 33.8157C274.518 38.0157 283.06 29.4732 278.86 21.35C277.004 17.7627 270.653 15.9198 266.756 17.8413ZM337.292 56.3326C332.559 58.9011 332.638 67.7647 337.416 70.2365C344.732 74.0188 352.432 66.3183 348.65 59.0027C346.91 55.6381 341.092 54.2703 337.292 56.3326ZM234.067 204.663C227.382 206.329 219.919 212.285 215.089 219.807C204.328 236.564 104.013 406.455 102.614 410.291C99.6212 418.501 99.1265 424.991 100.897 432.865C101.744 436.631 101.931 436.759 123.273 448.204C152.428 463.84 174.017 475.347 182.427 479.735C191.482 484.46 198.323 488.242 203.961 491.644C206.128 492.951 208.463 494.021 209.147 494.021C209.83 494.021 213.654 495.13 217.642 496.485C229.603 500.547 240.059 501.515 249.45 499.425C255.917 497.987 346.483 452.042 346.157 450.367C345.357 446.247 372.677 385.771 375.694 384.983C376.849 384.68 376.871 383.517 376.871 322.278V259.882L364.888 267.088C358.298 271.052 352.834 274.222 352.744 274.132C352.653 274.043 353.546 269.522 354.727 264.085C357.178 252.801 357.389 253.961 351.769 247.892C347.436 243.212 351.453 244.966 295.575 223.342C242.027 202.619 242.136 202.651 234.067 204.663ZM279.419 251.718C321.758 268.023 320.541 267.409 323.832 274.135C327.358 281.343 330.531 274.261 281.892 367.739C235.827 456.273 236.621 454.884 230.303 457.975C220.647 462.7 219.408 462.265 175.18 438.676C132.515 415.92 132.258 415.743 130.905 408.286C129.688 401.587 126.143 408.25 177.762 320.204C224.362 240.717 222.288 244.047 226.576 241.863C237.982 236.056 239.478 236.337 279.419 251.718ZM353.494 244.204C354.667 245.575 355.969 247.469 356.387 248.414C357.173 250.191 358.059 250.696 358.071 249.372C358.074 248.955 358.241 247.628 358.439 246.421C358.829 244.068 358.677 243.949 353.043 242.227L351.361 241.713L353.494 244.204Z" fill="#E43C6C"/>
<path fill-rule="evenodd" clip-rule="evenodd" d="M234.601 239.489C223.53 241.513 227.69 235.564 177.536 321.074C126.225 408.555 128.566 403.79 132.618 412.492C134.622 416.793 133.788 416.289 175.752 438.647C219.95 462.194 220.311 462.322 229.877 457.941C236.338 454.985 234.906 457.483 281.607 367.74L324.973 284.41L324.965 280.465C324.946 269.66 324.562 269.421 279.144 251.922C241.578 237.446 243.24 237.911 234.601 239.489ZM234.207 290.901C238.996 295.738 240.741 303.881 237.361 305.627C227.069 310.951 218.481 295.596 228.378 289.563C231.063 287.926 231.319 287.984 234.207 290.901ZM280.146 308.525C284.729 313.947 286.137 322.655 282.762 324.713C278.413 327.363 272.809 325.846 269.653 321.161C264.711 313.828 274.58 301.94 280.146 308.525ZM204.513 387.547C227.21 399.225 245.789 409.053 245.801 409.388C245.817 409.864 238.828 424.107 238.287 424.699C238.172 424.825 155.992 382.577 154.221 381.485C153.625 381.116 156.097 375.932 160.662 367.972C162.128 365.418 157.445 363.328 204.513 387.547ZM103.959 388.478C101.177 390.135 98.8333 391.49 98.7514 391.49C98.6679 391.49 88.602 397.176 76.3836 404.124L54.1682 416.76L87.1507 437.189C105.291 448.424 120.513 457.763 120.978 457.941C121.756 458.24 131.141 453.455 131.129 452.767C131.128 452.6 125.001 449.225 117.516 445.269C100.121 436.077 96.5957 432.558 94.7873 422.584C93.4064 414.968 94.6825 411.202 103.762 396.106C111.448 383.326 111.43 384.027 103.959 388.478ZM46.8312 420.98C43.8041 422.718 40.4936 424.595 36.821 426.654C17.0151 437.76 14.0584 439.631 10.5923 443.251C6.02863 448.02 3.1833 452.695 4.41513 453.404C64.2226 487.823 80.541 496.886 81.1095 495.997C89.5029 482.856 99.6786 472.682 113.7 463.408L117.17 461.113L83.4994 440.255C64.981 428.784 49.7699 419.401 49.6962 419.406C49.6209 419.409 48.3317 420.118 46.8312 420.98ZM379.298 427.09C379.298 430.448 374.805 436.548 368.841 441.284L365.968 443.566L370.055 445.119C394.532 454.418 396.56 455.085 398.164 454.375C419.947 444.735 428.426 440.868 428.432 440.568C428.485 438.034 399.796 428.794 384.606 426.451L379.298 425.632V427.09ZM355.333 449.617C351.663 451.523 346.067 454.621 342.896 456.498C334.622 461.401 321.393 468.776 311.463 474.019C306.742 476.511 302.874 478.702 302.866 478.887C302.86 479.074 308.714 481.443 315.876 484.152L328.897 489.079L335.138 485.712C338.571 483.859 352.68 476.65 366.49 469.691C380.301 462.733 391.222 456.9 390.758 456.728C390.295 456.556 383.679 454.092 376.055 451.253C368.431 448.414 362.153 446.106 362.1 446.121C362.049 446.138 359.004 447.712 355.333 449.617ZM0.729479 460.62C-4.23387 484.01 16.088 504.433 62.999 523.199C68.9271 525.571 79.1602 529.209 79.9022 529.209C79.9874 529.209 79.3403 527.504 78.464 525.417C76.513 520.778 76.1609 507.852 77.8644 503.434L78.7981 501.018L40.2905 479.015C19.1135 466.915 1.71887 457.013 1.64024 457.013C1.55998 457.013 1.15046 458.636 0.729479 460.62ZM181.213 482.603L179.556 485.106L181.901 483.703C185.256 481.695 185.425 481.467 184.078 480.747C183.03 480.185 182.65 480.432 181.213 482.603ZM287.385 486.654C246.287 507.732 238.682 509.19 212.697 500.967C211.801 500.684 211.749 500.729 212.458 501.177C212.958 501.493 225.936 506.589 241.296 512.502L269.223 523.256L279.82 516.92C293.791 508.568 307.489 500.628 316.68 495.553C320.78 493.289 324.045 491.348 323.935 491.237C323.693 490.996 298.101 481.263 297.863 481.322C297.772 481.345 293.057 483.743 287.385 486.654ZM141.476 492.737L136.317 493.111L136.186 497.661C136.076 501.426 135.711 502.901 134.063 506.215L132.071 510.217L133.972 509.421C139.071 507.285 149.89 502.015 157.242 498.089L165.426 493.718L160.882 493.284C152.94 492.526 146.783 492.352 141.476 492.737ZM194.863 502.577C193.029 503.904 190.844 505.445 190.01 506.001C178.04 513.963 165.352 527.001 160.489 536.33L158.398 540.341L194.074 554.645L229.748 568.947L230.401 565.61C233.453 550.009 239.425 541.588 253.822 532.582C259.723 528.891 264.363 525.689 264.136 525.463C263.652 524.984 199.229 500.071 198.615 500.125C198.387 500.146 196.698 501.249 194.863 502.577ZM391.322 507.216C391.027 513.264 389.381 517.646 385.91 521.61L383.847 523.967L385.669 522.832C386.67 522.206 393.903 517.449 401.745 512.258L416.003 502.821L412.666 502.425C410.831 502.207 405.335 502.001 400.454 501.968L391.581 501.909L391.322 507.216ZM356.649 530.603C344.103 531.13 342.82 531.283 343.064 532.211C344.055 536.005 341.11 544.649 337.374 548.905C336.338 550.084 335.646 551.051 335.834 551.051C336.664 551.051 372.448 531.245 373.788 530.043C373.926 529.918 373.244 529.862 372.271 529.918C371.296 529.975 364.267 530.283 356.649 530.603ZM157.006 545.203C156.816 545.915 156.654 548.957 156.651 551.96L156.641 557.42L161.439 562.023C177.891 577.809 208.666 591.452 242.644 598.029C253.143 600.06 253.631 599.993 248.413 597.223C237.66 591.514 230.052 582.087 230.052 574.469C230.052 572.274 157.538 543.221 157.006 545.203ZM294.831 558.283C295.175 560.627 293.968 567.078 292.741 569.451C292.248 570.405 291.934 571.271 292.042 571.378C292.22 571.555 309.248 564.069 318.587 559.708L322.487 557.885L317.373 557.51C314.56 557.303 308.273 556.959 303.403 556.745L294.548 556.357L294.831 558.283ZM248.253 580.643C248.253 581.493 252.946 585.632 253.909 585.632C254.94 585.632 260.547 583.778 261.153 583.237C261.408 583.01 258.951 582.325 255.693 581.715C252.435 581.106 249.427 580.48 249.011 580.325C248.594 580.169 248.253 580.312 248.253 580.643Z" fill="#E4B4C5"/>
<path fill-rule="evenodd" clip-rule="evenodd" d="M224.933 2.14559C222.29 22.2774 219.051 71.3474 217.937 108.165L216.735 147.902L212.797 182.788C210.631 201.975 208.761 218.423 208.64 219.342C208.332 221.696 208.314 221.717 212.713 214.415C218.145 205.4 222.778 201.439 230.067 199.579L233.389 198.732L233.586 194.854C233.694 192.723 233.045 150.084 232.143 100.102C231.242 50.1213 230.627 9.10246 230.781 8.95012C230.934 8.79614 238.108 11.8315 246.725 15.6924L262.391 22.7132L263.792 20.9981C265.782 18.5656 266.725 19.1913 245.606 8.94029C223.467 -1.80543 225.371 -1.17969 224.933 2.14559ZM348.912 66.4496C348.524 67.2031 347.661 68.4169 346.997 69.1475L345.788 70.4759L362.998 79.0742C372.464 83.8033 380.325 87.7821 380.47 87.9165C380.796 88.2228 380.94 87.0368 371.732 159.643C365.481 208.934 363.609 222.145 361.46 232.142C360.015 238.866 358.488 246.278 358.069 248.614C357.65 250.95 356.249 257.609 354.955 263.413C353.663 269.216 352.603 274.045 352.603 274.145C352.603 274.94 376.055 260.113 376.44 259.075C376.9 257.833 389.613 92.9682 389.61 88.2998L389.607 86.0212L380.053 81.0202C374.8 78.2699 365.802 73.5588 360.059 70.5497C349.68 65.1096 349.615 65.0851 348.912 66.4496ZM375.242 385.293C373.711 386.266 363.121 407.833 355.813 424.859C351.359 435.239 345.929 449.042 345.929 449.985C345.929 454.809 363.82 446.376 372.946 437.251C379.146 431.049 378.967 431.889 379.175 408.037C379.379 384.751 379.054 382.869 375.242 385.293ZM133.167 463.596C113.086 475.655 100.517 487.929 97.1772 498.742C94.3204 507.994 97.115 514.731 105.069 517.767L108.409 519.041L112.354 517.704C114.523 516.969 119.769 515.007 124.014 513.344L131.732 510.32L133.682 506.359C135.28 503.113 135.68 501.479 135.9 497.299L136.167 492.201L145.343 492.205C150.39 492.206 156.02 492.447 157.856 492.739C166.427 494.1 179.297 487.608 181.775 480.674C182.09 479.793 144.965 459.411 142.229 458.963C141.647 458.867 137.57 460.952 133.167 463.596ZM418.286 460.965C415.785 461.507 410.232 463.992 401.905 468.292C382.964 478.076 324.903 508.779 322.269 510.405C321.768 510.713 315.08 514.284 307.405 518.338C290.959 527.027 274.768 535.91 274.341 536.478C274.174 536.7 273.546 537.062 272.948 537.283C271.16 537.943 255.415 547.188 252.581 549.241C246.194 553.868 242.721 569.205 246.254 577.174L247.449 579.868L255.284 581.278L263.117 582.687L274.947 578.182C292.217 571.607 291.157 572.169 292.612 568.822C293.4 567.012 294.003 564 294.209 560.84L294.54 555.767L297.939 556.119C299.808 556.312 306.388 556.635 312.562 556.836L323.786 557.2L329.015 554.436C338.271 549.544 342.846 542.598 342.887 533.382L342.896 531.186L347.598 530.82C350.185 530.621 357.214 530.283 363.221 530.072L374.142 529.689L378.388 527.064C387.531 521.415 392.241 512.83 391.032 504.014L390.663 501.32L403.94 501.648L417.216 501.977L423.636 497.163C428.904 493.214 430.304 491.82 431.446 489.394C436.013 479.678 435.704 470.69 430.562 463.684C427.595 459.643 425.998 459.289 418.286 460.965Z" fill="#392C30"/>
<path fill-rule="evenodd" clip-rule="evenodd" d="M424.496 442.912C418.237 445.621 396.881 455.252 390.218 458.372C383.647 461.448 340.366 483.076 339.559 483.685C339.226 483.937 336.632 485.323 333.796 486.763C300.938 503.442 244.898 537.484 240.531 543.416C223.962 565.923 227.802 586.992 250.441 597.796C256.692 600.779 256.966 600.776 266.344 597.529C314.257 580.947 377.08 547.049 429.349 509.575C445.039 498.326 443.571 500.092 446.32 489.168C448.57 480.222 449.222 474.196 448.975 464.628L448.747 455.835L446.035 453.071C443.188 450.169 435.897 444.624 431.777 442.226L429.349 440.812L424.496 442.912ZM124.726 456.945C86.895 478.817 70.3407 503.946 79.1862 526.072L80.5622 529.512L88.4184 532.205L96.2762 534.898L106.589 534.912C130.826 534.947 158.981 522.244 192.991 495.933C201.494 489.355 201.194 489.938 197.173 487.808L194.033 486.147L183.983 492.713C144.347 518.607 112.411 526.92 99.5835 514.684C87.8336 503.476 101.885 482.029 133.293 463.229C142.488 457.725 142.306 458.382 135.58 454.976C131.473 452.896 131.845 452.829 124.726 456.945ZM431.061 460.697C440.182 463.229 442.339 474.438 436.871 490.871C435.346 495.453 435.16 495.605 411.013 511.84C355.979 548.843 297.763 578.557 262.363 587.716C256.746 589.169 251.187 586.078 247.039 579.193C242.76 572.09 244.893 556.224 250.931 550.253C253.113 548.096 270.793 537.633 272.957 537.219C273.717 537.073 274.341 536.732 274.341 536.46C274.341 535.458 348.83 495.465 402.022 467.909C416.949 460.176 423.406 458.572 431.061 460.697ZM137.986 492.619C138.569 492.772 139.526 492.772 140.109 492.619C140.694 492.467 140.216 492.342 139.048 492.342C137.88 492.342 137.402 492.467 137.986 492.619Z" fill="#848484"/>
<path fill-rule="evenodd" clip-rule="evenodd" d="M51.7321 418.128L49.655 419.233L51.1244 420.184C51.9336 420.704 67.1218 430.127 84.8768 441.12C102.632 452.111 116.965 461.306 116.727 461.548C116.49 461.792 117.54 461.22 119.06 460.279L121.823 458.567L115.723 454.85C112.368 452.806 97.2229 443.446 82.0658 434.051C66.9088 424.657 54.3514 416.983 54.1581 416.996C53.9648 417.011 52.8739 417.52 51.7321 418.128ZM363.859 444.843L362.071 446.031L363.761 446.674C364.691 447.027 370.683 449.261 377.077 451.638C383.47 454.015 389.384 456.216 390.217 456.531L391.734 457.104L390.217 458C388.08 459.263 389.474 458.798 393.159 457.02C397.302 455.022 398.183 455.602 381.631 449.43C364.143 442.907 366.038 443.397 363.859 444.843ZM301.534 474.618C276.282 487.269 253.894 498.206 251.784 498.925C242.849 501.972 230.897 501.102 216.386 496.347L208.801 493.864L203.956 496.793C201.291 498.405 199.314 499.905 199.564 500.126C199.815 500.347 214.353 506.048 231.872 512.792C249.39 519.536 263.957 525.28 264.242 525.557C264.527 525.832 265.705 525.503 266.858 524.822C269.649 523.174 271.6 524.109 239.902 511.914C213.729 501.844 207.832 499.396 215.216 501.661C239.138 509 246.523 507.465 287.553 486.617L298.037 481.29L311.05 486.219C318.241 488.943 323.899 491.41 323.699 491.734C323.499 492.057 324.459 491.679 325.832 490.896C329.201 488.971 329.871 489.42 315.595 484.039C308.588 481.398 302.859 479.084 302.866 478.894C302.874 478.705 306.742 476.51 311.462 474.019C323.992 467.401 345.981 455.001 349.857 452.367C350.982 451.6 350.945 451.554 349.249 451.585C348.137 451.607 329.861 460.428 301.534 474.618ZM2.66218 454.761C2.09541 456.259 2.1036 456.821 2.69658 457.361C3.80391 458.372 78.1296 500.698 78.757 500.675C79.5432 500.645 81.2878 496.655 80.5277 496.624C80.051 496.604 33.7183 470.328 5.84331 454.27L3.38293 452.852L2.66218 454.761ZM429.954 462.551C435.916 469.149 436.632 478.45 432.008 489.199C430.434 492.858 425.746 496.452 402.655 511.697C382.563 524.963 381.773 525.454 365.951 534.534C350.247 543.545 346.078 545.817 327.728 555.359C312.313 563.375 266.629 582.598 262.994 582.598C262.36 582.598 261.583 582.837 261.266 583.13C260.278 584.043 254.32 585.761 253.386 585.402C251.37 584.629 252.71 585.718 255.54 587.152C258.564 588.685 258.605 588.688 262.366 587.715C301.667 577.548 379.581 536.136 431.122 498.02C443.003 489.233 442.962 464 431.061 460.696C427.574 459.728 427.506 459.841 429.954 462.551ZM375.657 464.9C372.487 466.534 370.168 467.871 370.5 467.871C370.834 467.871 373.701 466.534 376.87 464.9C380.04 463.265 382.361 461.928 382.027 461.928C381.695 461.928 378.828 463.265 375.657 464.9ZM101.092 472.938L99.3098 474.91L101.28 473.128C103.12 471.467 103.531 470.967 103.063 470.967C102.959 470.967 102.072 471.853 101.092 472.938ZM93.5258 479.916L90.2087 483.403L93.6978 480.088C96.9379 477.006 97.4637 476.427 97.0132 476.427C96.9182 476.427 95.3489 477.996 93.5258 479.916ZM182.122 483.497C180.622 484.376 178.846 485.569 178.179 486.145C176.127 487.921 167.347 492.807 166.21 492.807C165.619 492.807 165.136 493.045 165.136 493.333C165.136 495.554 118.659 516.915 109.926 518.707L107.803 519.142L110.229 519.591C126.867 522.661 152.976 513.091 184.694 492.298C195.145 485.447 194.652 486.281 189.695 483.837C184.959 481.501 185.49 481.526 182.122 483.497ZM142.242 492.635C143.164 492.776 144.529 492.771 145.274 492.627C146.021 492.483 145.266 492.37 143.598 492.375C141.929 492.378 141.32 492.496 142.242 492.635ZM319.69 493.761C317.422 494.991 317.559 495.504 319.841 494.324C320.844 493.806 321.663 493.253 321.663 493.096C321.663 492.704 321.597 492.727 319.69 493.761ZM136.188 496.144C136.193 497.813 136.31 498.423 136.45 497.5C136.589 496.578 136.586 495.214 136.441 494.467C136.297 493.721 136.183 494.476 136.188 496.144ZM314.229 496.794C311.962 498.025 312.1 498.537 314.382 497.358C315.382 496.84 316.201 496.287 316.201 496.129C316.201 495.738 316.136 495.761 314.229 496.794ZM308.769 499.828C306.502 501.058 306.64 501.571 308.922 500.392C309.923 499.874 310.742 499.32 310.742 499.161C310.742 498.771 310.676 498.793 308.769 499.828ZM411.308 502.338C412.063 502.482 413.154 502.477 413.735 502.324C414.315 502.172 413.698 502.054 412.362 502.061C411.027 502.067 410.552 502.192 411.308 502.338ZM250.223 534.739C248.156 536.064 247.486 536.953 249.314 535.947C250.707 535.182 252.887 533.497 252.499 533.485C252.331 533.48 251.308 534.044 250.223 534.739ZM243.53 539.371C242.079 540.79 242.056 540.858 243.37 539.835C245.959 537.818 246.082 537.702 245.653 537.702C245.425 537.702 244.47 538.454 243.53 539.371ZM157.899 542.102C157.61 542.852 157.551 543.645 157.767 543.864C158.054 544.156 221.243 569.664 229.035 572.634C229.99 572.997 230.114 572.774 229.944 571L229.747 568.946L194.863 554.895C156.536 539.458 158.634 540.183 157.899 542.102ZM294.535 559.847C294.54 561.514 294.656 562.125 294.797 561.203C294.936 560.281 294.931 558.916 294.789 558.169C294.644 557.424 294.53 558.178 294.535 559.847ZM231.872 581.011C231.872 581.661 233.677 585.024 234.026 585.024C234.193 585.024 233.879 584.138 233.327 583.053C232.201 580.839 231.872 580.377 231.872 581.011ZM236.111 588.049C237.165 589.38 238.344 590.664 238.731 590.903C239.119 591.142 238.383 590.054 237.097 588.485C235.812 586.916 234.632 585.632 234.478 585.632C234.323 585.632 235.058 586.719 236.111 588.049Z" fill="#A49B9C"/>
<path fill-rule="evenodd" clip-rule="evenodd" d="M228.378 289.563C218.481 295.596 227.069 310.951 237.361 305.627C240.741 303.881 238.996 295.738 234.206 290.901C231.319 287.983 231.063 287.926 228.378 289.563ZM273.079 307.932C264.792 313.518 268.134 325.974 277.918 325.965C284.556 325.959 286.507 321.063 283.009 313.19C280.179 306.82 277.127 305.204 273.079 307.932ZM160.662 367.972C156.097 375.931 153.625 381.116 154.221 381.484C155.992 382.577 238.172 424.824 238.287 424.698C238.827 424.107 245.817 409.864 245.801 409.387C245.783 408.847 164.304 366.547 162.521 366.152C162.125 366.064 161.288 366.883 160.662 367.972Z" fill="#F2E6EE"/>
<path fill-rule="evenodd" clip-rule="evenodd" d="M314.906 20.5001C314.08 21.8335 309.051 30.3416 303.731 39.4066C298.411 48.4717 293.996 55.8266 293.919 55.7496C293.844 55.6743 295 48.8223 296.489 40.5238C297.98 32.2254 299.121 25.3602 299.03 25.2669C298.759 24.9966 284.682 34.4073 284.667 34.8676C284.661 35.0969 286.993 34.4941 289.853 33.5276L295.054 31.77L294.726 33.4146C294.546 34.3188 293.565 41.0644 292.546 48.4062C291.529 55.7464 290.559 62.3674 290.394 63.1177C289.73 66.1088 291.434 63.9056 300.417 50.1442C305.566 42.2585 309.862 36.0601 309.965 36.3713C310.07 36.6825 309.934 39.4492 309.664 42.519C309.123 48.6978 309.284 48.9877 311.682 46.1309C312.593 45.0465 314.482 42.8843 315.88 41.3265L318.423 38.4942L316.727 48.5765C315.794 54.123 315.111 58.7408 315.209 58.839C315.307 58.9373 317.394 57.5171 319.845 55.6841C325.29 51.6102 324.467 51.5398 328.666 56.4442C332.762 61.229 332.784 60.4149 328.793 51.8019L326.182 46.1653L323.167 48.6585C319.33 51.8281 319.365 52.521 322.565 36.6088C324.068 29.136 325.186 22.9097 325.05 22.7737C324.914 22.6378 322.166 26.3693 318.944 31.0672C315.722 35.7652 313.004 39.6081 312.907 39.6081C312.809 39.6081 313.649 35.0428 314.775 29.4636C317.057 18.1429 317.073 16.9979 314.906 20.5001Z" fill="#D4CC3C"/>
<path fill-rule="evenodd" clip-rule="evenodd" d="M230.819 199.459C222.56 201.782 218.289 205.382 212.81 214.639C210.836 217.976 209.018 220.844 208.77 221.011C208.145 221.435 109.926 384.742 109.926 385.358C109.926 385.632 107.153 390.467 103.762 396.106C93.118 413.802 91.9697 419.797 97.3033 429.829C99.1871 433.373 102.096 436.726 101.228 434.354C99.0282 428.338 99.5868 418.583 102.602 410.319C104.011 406.458 204.274 236.648 215.088 219.807C221.85 209.276 229.938 204.319 240.333 204.334L246.736 204.344L295.575 223.304C322.436 233.734 344.966 242.501 345.642 242.787C347.585 243.61 350.684 246.425 353.897 250.286C358.12 255.36 359.073 252.031 355.053 246.245C350.023 239.007 353.223 240.504 294.513 217.908L245.522 199.053L239.759 198.808C235.849 198.645 232.973 198.853 230.819 199.459ZM222.43 244.822L220.648 246.794L222.62 245.012C223.705 244.032 224.591 243.144 224.591 243.04C224.591 242.571 224.091 242.984 222.43 244.822ZM318.629 267.914C318.629 268.018 319.515 268.906 320.6 269.886L322.572 271.668L320.79 269.696C319.129 267.858 318.629 267.445 318.629 267.914ZM130.695 406.05C130.695 407.218 130.82 407.697 130.972 407.112C131.124 406.529 131.124 405.572 130.972 404.989C130.82 404.404 130.695 404.882 130.695 406.05Z" fill="#D86E8A"/>
<path fill-rule="evenodd" clip-rule="evenodd" d="M400.986 468.28C398.719 469.511 398.857 470.023 401.139 468.842C402.139 468.325 402.959 467.773 402.959 467.614C402.959 467.224 402.893 467.245 400.986 468.28ZM395.232 501.736C396.154 501.876 397.518 501.872 398.265 501.728C399.011 501.584 398.257 501.469 396.588 501.474C394.921 501.479 394.31 501.597 395.232 501.736Z" fill="#747474"/>
</g>
<defs>
<clipPath id="clip0_2_3237">
<rect width="449.024" height="600" fill="white"/>
</clipPath>
</defs>
</svg>
