<svg width="737" height="601" viewBox="0 0 737 601" fill="none" xmlns="http://www.w3.org/2000/svg">
<path d="M736.184 366.008L728.01 370.733L724.929 372.52L716.745 377.245L708.552 381.97L700.369 386.695L692.185 391.42L684.001 396.145L675.817 400.87L659.459 410.32L651.266 415.045L643.083 419.77L634.899 424.495L626.715 429.22L618.531 433.945L610.357 438.67L602.174 443.395L585.797 452.845L577.613 457.57L569.439 462.295L561.245 467.02L553.062 471.745L544.878 476.47L536.685 481.195L528.501 485.92L520.317 490.645L512.134 495.37L503.95 500.095L495.776 504.82L487.592 509.545L471.215 518.995L463.032 523.72L455.906 527.83L447.732 532.555L446.551 533.236L445.379 532.555L437.186 527.83L434.937 526.526L426.744 521.801L418.569 517.076L410.376 512.351L402.192 507.626L394.009 502.901L385.834 498.176L377.651 493.451L369.458 488.726L353.09 479.276L344.916 474.551L336.723 469.826L328.539 465.101L320.346 460.386L312.162 455.661L303.988 450.936L295.795 446.211L287.62 441.486L279.427 436.761L271.253 432.036L263.069 427.311L260.811 426.007L252.627 421.282L244.453 416.557L236.26 411.832L228.076 407.107L219.892 402.382L211.709 397.657L203.525 392.932L195.332 388.207L187.148 383.482L178.964 378.757L170.781 374.032L162.597 369.307L154.423 364.582L138.055 355.132L129.871 350.406L121.678 345.682L113.504 340.956L105.311 336.231L97.1272 331.506L88.953 326.781L87.7717 326.101L79.588 321.376L80.7693 320.696L88.953 315.971L91.5045 314.496L99.6787 309.771L107.862 305.046L124.239 295.596L132.423 290.871L140.597 286.146V331.818L148.781 327.093L156.965 322.368L165.148 317.643L166.33 316.963L165.999 317.624L174.239 322.378L177.811 324.447L183.859 327.934L192.043 332.659L200.227 337.384L208.401 342.109L216.585 346.834L220.242 348.942L228.426 353.667L232.054 355.765L240.238 351.04L248.422 346.315L256.615 341.59L264.789 336.865L273.209 332.007L274.287 341.401L275.373 350.785L276.328 358.987L277.414 368.371L277.528 369.316L277.566 369.571L277.632 369.817L277.707 370.053L277.783 370.27L277.887 370.478L278 370.658L278.133 370.828L278.274 370.979L278.435 371.111L278.605 371.215L278.775 371.3L283.283 372.992L283.472 373.058L283.67 373.096L283.869 373.115H284.086L284.285 373.087L284.247 373.143L284.124 373.313L284.029 373.483L283.963 373.663L283.916 373.843L283.907 374.013V374.211V382.272V382.281V382.348V382.527V382.574V382.584L283.926 382.707L283.973 382.886L284.048 383.056L284.152 383.226L284.275 383.387L284.417 383.538L284.587 383.689L284.776 383.822L284.974 383.954L293.158 388.679L301.342 393.404L309.535 398.129L317.709 402.854L334.077 412.304L342.26 417.029L350.454 421.754L358.628 426.479L366.812 431.204L374.995 435.929L383.179 440.654L391.363 445.379L394.188 447.005L402.372 451.73L410.546 456.455L418.73 461.18L422.113 463.126L426.564 465.697L426.791 465.82L427.027 465.923L427.282 466.018L427.547 466.103L427.83 466.179L428.123 466.235L428.416 466.273L428.728 466.301L429.03 466.32H429.333L429.645 466.311L429.957 466.283L430.268 466.245L430.571 466.188L430.864 466.122L431.157 466.046L431.44 465.952L431.695 465.848L431.941 465.734L432.177 465.602L448.545 456.152L456.728 451.427L464.912 446.702L473.096 441.977L481.289 437.252L489.473 432.527L494.15 429.824L502.344 425.099L510.518 420.374L518.702 415.649L535.078 406.199L543.262 401.474L551.436 396.749L557.088 393.489L565.271 388.764L573.464 384.039L589.822 374.589L598.006 369.864L606.19 365.139L614.373 360.414L619.07 357.711L619.287 357.57L619.476 357.428L619.656 357.277L619.817 357.116L619.958 356.955L620.072 356.776L620.166 356.606L620.242 356.426L620.28 356.256V356.247L620.308 356.067V347.742L620.299 347.562L620.28 347.383L620.232 347.212L620.157 347.033L620.044 346.872L619.921 346.712L619.779 346.551L619.618 346.409L619.429 346.267L619.221 346.135L614.761 343.565L606.577 338.84L598.393 334.115L590.21 329.39L586.846 327.443L578.671 322.718L570.478 317.993L562.294 313.268L554.12 308.543L545.918 303.818L537.734 299.093L529.56 294.368L521.376 289.643L504.999 280.193L496.815 275.468L488.641 270.743L480.457 266.018L477.632 264.393L477.414 264.279L477.169 264.166L476.923 264.071L476.649 263.986L476.375 263.92L476.091 263.863L475.789 263.816L475.477 263.788L475.175 263.769H474.863L474.561 263.778L474.249 263.807L473.927 263.854L473.625 263.901L473.332 263.967L473.209 264.005L473.379 263.825L473.559 263.608L473.729 263.372L473.88 263.117L474.041 262.862L474.173 262.588L474.296 262.313L474.4 262.03L474.504 261.747L474.57 261.454L474.636 261.17L474.683 260.877L474.721 260.594V260.31V260.036L474.693 259.771L473.616 250.378L473.512 249.622L472.434 240.229L471.338 230.845L470.516 223.739L469.429 214.355L469.127 211.832L470.866 212.833L479.049 217.558L487.242 222.283L495.417 227.008L503.6 231.733L511.794 236.458L519.968 241.183L528.152 245.908L544.528 255.358L552.712 260.083L554.961 261.387L563.145 266.112L571.338 270.837L587.696 280.287L595.88 285.012L604.063 289.737L612.247 294.462L620.431 299.187L628.624 303.912L644.982 313.362L653.166 318.087L661.359 322.812L669.543 327.537L677.726 332.262L685.919 336.988L694.103 341.703L702.278 346.428L710.461 351.153L718.645 355.878L726.829 360.603L728.01 361.283L736.184 366.008Z" fill="#1AD3BD"/>
<path d="M445.37 532.555L437.186 527.83L434.908 526.526L426.725 521.801L418.541 517.076L410.357 512.351L402.174 507.626L393.99 502.901L385.806 498.176L377.622 493.451L369.439 488.726L353.071 479.276L344.888 474.551L336.704 469.826L328.52 465.101L320.327 460.376L312.143 455.651L303.96 450.926L295.776 446.201L287.592 441.476L279.408 436.751L271.225 432.026L263.041 427.301L260.792 425.997L252.608 421.272L244.424 416.547L236.241 411.822L228.057 407.097L219.873 402.372L211.69 397.647L203.496 392.922L195.313 388.197L187.129 383.472L178.945 378.747L170.762 374.022L162.578 369.297L154.394 364.572L138.027 355.122L129.843 350.397L121.659 345.672L113.476 340.947L105.292 336.222L97.1083 331.497L88.9246 326.772L87.7433 326.091L79.5596 321.366V388.121L87.7433 392.846L88.9246 393.527L97.1083 398.252L105.292 402.977L113.476 407.702L121.659 412.427L129.843 417.152L138.027 421.877L154.394 431.327L162.578 436.052L170.762 440.777L178.945 445.502L187.129 450.227L195.313 454.952L203.496 459.677L211.69 464.402L219.873 469.127L228.057 473.852L236.241 478.577L244.424 483.302L252.608 488.027L260.792 492.752L263.041 494.056L271.225 498.781L279.408 503.506L287.592 508.231L295.776 512.956L303.96 517.681L312.143 522.406L320.327 527.131L328.52 531.856L336.704 536.581L344.888 541.306L353.071 546.031L369.439 555.481L377.622 560.206L385.806 564.931L393.99 569.656L402.174 574.381L410.357 579.106L418.541 583.831L426.725 588.556L434.908 593.281L437.167 594.585L445.351 599.31L446.522 599.991V533.236L445.37 532.555ZM437.186 583.481L428.993 578.756L412.625 569.306L404.442 564.581L396.258 559.856L388.074 555.131L379.89 550.406L371.707 545.681L363.523 540.956L355.339 536.231L338.972 526.781L330.788 522.056L322.604 517.331L314.421 512.606L306.237 507.881L298.053 503.156L281.686 493.706L273.502 488.981L265.318 484.256L263.06 482.952L254.876 478.227L238.509 468.777L230.325 464.052L222.141 459.327L213.958 454.602L205.774 449.877L197.59 445.152L189.407 440.427L181.223 435.702L164.855 426.252L156.672 421.527L148.488 416.802L140.304 412.077L132.121 407.352L123.937 402.627L107.569 393.177L99.3857 388.452L91.202 383.727L88.9435 382.423V337.895L97.1272 342.62L105.311 347.345L113.495 352.07L121.678 356.795L129.862 361.52L138.046 366.245L154.413 375.695L162.597 380.42L170.781 385.145L178.964 389.87L187.148 394.595L195.332 399.32L211.699 408.77L219.892 413.495L228.076 418.22L236.26 422.945L244.443 427.67L252.627 432.395L260.811 437.12L263.06 438.414L271.244 443.139L279.427 447.864L287.611 452.589L295.795 457.314L303.978 462.039L312.162 466.764L320.346 471.489L328.539 476.214L336.723 480.939L344.906 485.664L353.09 490.389L369.458 499.839L377.641 504.564L385.825 509.289L394.009 514.014L402.192 518.739L410.376 523.464L418.56 528.189L426.744 532.914L434.927 537.639L437.186 538.943V583.481Z" fill="#04BFAD"/>
<path d="M728 370.752L724.92 372.538L716.736 377.263L708.552 381.988L700.369 386.713L692.185 391.438L684.001 396.163L675.817 400.888L659.45 410.338L651.266 415.063L643.083 419.788L634.899 424.513L626.715 429.238L618.532 433.963L610.348 438.688L602.164 443.414L585.797 452.864L577.613 457.589L569.429 462.314L561.246 467.039L553.062 471.764L544.869 476.489L536.685 481.214L528.501 485.939L520.318 490.664L512.134 495.389L503.95 500.114L495.766 504.839L487.583 509.564L471.215 519.014L463.032 523.739L455.906 527.849L447.723 532.574L446.541 533.255V600.019L454.725 595.294L455.906 594.614L464.09 589.889L472.274 585.164L480.457 580.439L488.641 575.714L505.009 566.264L513.192 561.539L521.376 556.814L529.56 552.089L537.743 547.364L545.927 542.639L562.294 533.189L570.478 528.464L578.662 523.739L586.846 519.014L595.029 514.289L603.213 509.564L611.397 504.839L619.58 500.114L627.774 495.389L635.957 490.664L644.141 485.939L652.325 481.214L660.508 476.489L676.876 467.039L685.06 462.314L693.243 457.589L701.427 452.864L709.611 448.139L717.794 443.414L724.92 439.293L733.103 434.568L736.184 432.792V366.027L728 370.752ZM724.92 428.18L716.736 432.905L708.552 437.63L700.369 442.355L692.185 447.08L684.001 451.805L675.817 456.53L659.45 465.98L651.266 470.705L643.083 475.43L634.899 480.155L626.715 484.88L618.532 489.605L610.348 494.33L602.164 499.055L585.797 508.505L577.613 513.23L569.429 517.955L561.246 522.68L553.062 527.405L544.869 532.13L536.685 536.855L528.501 541.58L520.318 546.305L512.134 551.03L503.95 555.755L495.766 560.48L487.583 565.205L471.215 574.655L463.032 579.38L455.906 583.5V538.963L464.09 534.238L472.274 529.513L480.457 524.788L488.641 520.063L505.009 510.613L513.192 505.888L521.376 501.163L529.56 496.438L537.743 491.713L545.927 486.987L562.294 477.537L570.478 472.812L578.662 468.087L586.846 463.362L595.029 458.637L603.213 453.912L611.397 449.187L619.58 444.462L627.774 439.737L635.957 435.012L644.141 430.287L652.325 425.562L660.508 420.837L676.876 411.387L685.06 406.662L693.243 401.937L701.427 397.212L709.611 392.487L717.794 387.762L724.92 383.652V428.18Z" fill="#059B89"/>
<path d="M724.929 383.633V428.161L716.745 432.886L708.552 437.611L700.369 442.336L692.185 447.061L684.001 451.786L675.817 456.511L659.46 465.961L651.266 470.686L643.083 475.411L634.899 480.136L626.715 484.861L618.532 489.586L610.357 494.311L602.174 499.036L585.797 508.486L577.613 513.211L569.439 517.936L561.246 522.661L553.062 527.386L544.878 532.111L536.685 536.836L528.501 541.561L520.318 546.286L512.134 551.011L503.95 555.736L495.776 560.461L487.592 565.186L471.215 574.636L463.032 579.361L455.906 583.481V538.943L464.09 534.218L472.274 529.493L480.467 524.768L488.651 520.043L505.009 510.593L513.192 505.868L521.376 501.143L529.56 496.418L537.743 491.693L545.937 486.968L562.295 477.518L570.478 472.793L578.662 468.068L586.846 463.343L595.029 458.618L603.223 453.893L611.397 449.168L619.58 444.443L627.774 439.718L635.957 434.993L644.141 430.268L652.325 425.543L660.518 420.818L676.876 411.368L685.06 406.643L693.243 401.918L701.427 397.193L709.611 392.468L717.804 387.743L724.929 383.633Z" fill="#FCFCFC"/>
<path d="M437.186 538.943V583.481L428.993 578.756L412.625 569.306L404.441 564.581L396.258 559.856L388.074 555.131L379.89 550.406L371.707 545.681L363.523 540.956L355.339 536.231L338.972 526.781L330.788 522.056L322.604 517.331L314.421 512.606L306.237 507.881L298.053 503.156L281.686 493.706L273.502 488.981L265.318 484.256L263.06 482.952L254.876 478.227L238.509 468.777L230.325 464.052L222.141 459.327L213.958 454.602L205.774 449.877L197.59 445.152L189.407 440.427L181.223 435.702L164.855 426.252L156.672 421.527L148.488 416.802L140.304 412.077L132.121 407.352L123.937 402.627L107.569 393.177L99.3857 388.452L91.202 383.727L88.9435 382.423V337.895L97.1272 342.62L105.311 347.345L113.495 352.07L121.678 356.795L129.862 361.52L138.046 366.245L154.413 375.695L162.597 380.42L170.781 385.145L178.964 389.87L187.148 394.595L195.332 399.32L211.699 408.77L219.892 413.495L228.076 418.22L236.26 422.945L244.443 427.67L252.627 432.395L260.811 437.12L263.06 438.414L271.244 443.139L279.427 447.864L287.611 452.589L295.795 457.314L303.978 462.039L312.162 466.764L320.346 471.489L328.539 476.214L336.723 480.939L344.906 485.664L353.09 490.389L369.458 499.839L377.641 504.564L385.825 509.289L394.009 514.014L402.192 518.739L410.376 523.464L418.56 528.189L426.743 532.914L434.927 537.639L437.186 538.943Z" fill="#FCFCFC"/>
<path d="M620.299 347.562V347.382V347.212L620.223 347.033L620.119 346.872L619.996 346.711L619.854 346.551L619.694 346.409L619.505 346.267L619.183 346.182L614.723 343.612L606.539 338.887L598.356 334.162L590.172 329.437L586.808 327.49L578.624 322.765L570.44 318.04L562.257 313.315L554.073 308.59L545.88 303.865L537.696 299.14L529.512 294.415L521.329 289.69L504.961 280.24L496.778 275.515L488.594 270.79L480.41 266.065L477.575 264.439L477.358 264.326L477.112 264.213L476.866 264.118L476.592 264.033L476.318 263.967L476.025 263.91L475.732 263.863H475.421H475.118H474.598H474.286L473.975 263.91L473.672 263.958L473.379 264.024H473.247L284.285 373.086L284.237 373.143L284.124 373.313L284.03 373.483L283.963 373.663V373.842V374.012V374.211V374.381V374.56L284.039 374.731L284.143 374.901L284.266 375.061L284.407 375.212L284.578 375.354L284.757 375.496L284.965 375.628L293.149 380.353L301.332 385.078L309.516 389.803L317.7 394.528L334.067 403.978L342.251 408.703L350.435 413.428L358.618 418.153L366.802 422.878L374.986 427.603L383.17 432.328L391.353 437.053L394.188 438.679L402.372 443.404L410.556 448.129L418.739 452.854L422.113 454.8L426.573 457.371L426.791 457.494L427.036 457.598L427.292 457.692L427.556 457.777L427.84 457.843L428.123 457.9H428.426H428.728H429.03H429.654H429.966H430.278L430.58 457.843L430.873 457.777L431.157 457.692L431.44 457.607L431.705 457.503L431.95 457.38L432.187 457.257L448.554 447.807L456.738 443.082L464.922 438.357L473.105 433.632L481.289 428.907L489.473 424.182L494.198 421.48L502.381 416.755L510.565 412.03L518.749 407.305L535.116 397.855L543.3 393.13L551.484 388.405L557.154 385.144L565.337 380.419L573.521 375.694L589.888 366.244L598.072 361.519L606.256 356.794L614.44 352.069L619.165 349.367L619.382 349.225L619.58 349.083L619.76 348.932L619.921 348.771L620.062 348.601L620.176 348.431L620.27 348.261L620.336 348.082V347.902V347.722L620.299 347.562ZM530.467 315.63L530.864 315.866L539.047 320.591V322.831L532.054 326.876L523.871 331.601L523.464 331.364L515.281 326.639V324.447L522.274 320.402L530.467 315.63ZM535.674 332.517L539.047 334.473V336.732L538.651 336.968L530.467 341.693L527.084 339.747V337.62L525.25 338.622L521.848 336.732V334.492L522.245 334.256L530.438 329.531L533.812 331.478V333.604L535.674 332.517ZM363.258 372.765V370.525L363.665 370.289L371.848 365.564L372.245 365.8L380.429 370.525V372.765L380.032 373.001L371.848 377.726L371.442 377.49L363.258 372.765ZM368.409 377.49V379.739L368.002 379.966L359.819 384.691L359.422 384.464L351.238 379.739V377.462L351.635 377.225L359.819 372.5L360.225 372.737L368.409 377.49ZM503.26 333.614V331.364L503.657 331.128L511.85 326.403L512.247 326.639L520.431 331.364V333.614L520.034 333.84L511.85 338.565L511.444 338.339L503.26 333.614ZM508.411 338.339V340.512L499.82 345.473L491.24 340.512V338.263L491.637 338.036L499.82 333.311L500.227 333.538L508.411 338.339ZM513.835 323.502L513.438 323.729L505.254 328.454L504.838 328.227L496.655 323.502V321.253L497.061 321.017L505.245 316.292L505.642 316.528L513.825 321.253L513.835 323.502ZM501.814 328.227V330.476L501.417 330.712L493.234 335.437L492.827 335.201L484.644 330.476V328.227L485.041 328L493.234 323.275L493.631 323.502L501.814 328.227ZM405.916 362.02V359.771L406.322 359.544L414.506 354.819L414.903 355.046L423.086 359.771V362.02L422.689 362.247L414.506 366.972L414.099 366.745L405.916 362.02ZM411.066 366.745V368.985L410.669 369.221L402.485 373.946L402.079 373.71L393.895 368.985V366.745L394.302 366.509L402.485 361.784L402.882 362.02L411.066 366.745ZM459.157 338.981V341.221L458.751 341.457L450.567 346.182L450.17 345.946L441.986 341.221V338.981L442.383 338.745L450.567 334.02L450.973 334.256L459.157 338.981ZM454.007 334.256V332.007L454.404 331.78L462.587 327.055L462.994 327.282L471.177 332.007V334.256L470.771 334.492L462.587 339.217L462.191 338.991L454.007 334.256ZM447.137 345.889V348.138L446.73 348.365L438.547 353.09L438.14 352.863L429.957 348.138V345.889L430.363 345.662L438.547 340.937L438.953 341.164L447.137 345.889ZM435.116 352.797V355.037L434.71 355.273L426.526 359.998L426.12 359.762L417.936 355.037V352.797L418.342 352.561L426.526 347.836L426.933 348.072L435.116 352.797ZM412.512 369.807L412.918 369.58L421.102 364.855L421.499 365.082L429.682 369.807V372.056L429.286 372.283L421.102 377.008L420.696 376.781L412.512 372.056V369.807ZM424.532 365.082V362.909L424.939 362.672L433.122 357.947L433.519 358.184L441.703 362.909V365.148L441.306 365.384L433.122 370.109L432.716 369.873L424.532 365.082ZM436.553 358.146V355.897L436.959 355.67L445.143 350.945L445.549 351.172L453.733 355.897V358.146L453.326 358.373L445.143 363.098L444.736 362.871L436.553 358.146ZM448.573 351.2V349.017L448.979 348.781L457.163 344.056L457.569 344.292L465.753 349.017V351.257L465.347 351.493L457.163 356.218L456.757 355.982L448.573 351.2ZM460.603 344.292V342.043L461 341.816L469.184 337.091L469.59 337.318L477.774 342.043V344.292L477.367 344.528L469.184 349.253L468.787 349.017L460.603 344.292ZM472.623 337.346V335.107L473.02 334.87L481.204 330.145L481.61 330.382L489.794 335.107V337.346L481.213 342.345L472.623 337.346ZM495.218 320.336L486.638 325.298L478.048 320.336V318.087L478.454 317.86L486.638 313.135L487.035 313.362L495.218 318.087V320.336ZM483.198 325.061V327.282L482.801 327.518L474.617 332.243L466.027 327.282V325.042L466.424 324.806L474.617 320.081L475.014 320.317L483.198 325.061ZM476.583 317.227L476.186 317.463L468.002 322.188L467.596 321.952L459.412 317.227V314.997L459.819 314.761L468.002 310.036L468.399 310.272L476.583 314.997V317.227ZM464.562 321.952V324.201L464.203 324.447L456.02 329.172L455.613 328.945L447.43 324.22V321.971L447.826 321.744L456.02 317.019L456.417 317.246L464.562 321.952ZM452.542 328.898V331.138L452.136 331.374L443.952 336.099L443.555 335.863L435.371 331.138V328.898L435.768 328.662L443.952 323.937L444.358 324.173L452.542 328.898ZM440.578 335.787V338.036L440.172 338.263L431.988 342.988L431.591 342.761L423.408 338.036V335.787L423.805 335.56L431.988 330.835L432.395 331.062L440.578 335.787ZM428.558 342.733V344.972L428.152 345.209L419.968 349.934L419.562 349.697L411.378 344.972V342.733L411.784 342.497L419.968 337.772L420.374 338.008L428.558 342.733ZM416.538 349.669V351.918L416.131 352.145L407.947 356.87L407.541 356.643L399.357 351.918V349.669L399.764 349.442L407.947 344.717L408.354 344.944L416.538 349.669ZM404.508 356.615V358.854L404.111 359.091L395.927 363.816L395.521 363.58L387.337 358.854V356.615L387.743 356.379L395.927 351.654L396.324 351.89L404.508 356.615ZM392.487 363.551V365.8L392.09 366.027L383.878 370.752L383.472 370.525L375.288 365.8V363.551L375.695 363.315L383.878 358.59L384.275 358.826L392.487 363.551ZM369.892 380.561L370.289 380.325L378.473 375.6L378.879 375.836L387.063 380.561V382.801L386.657 383.037L378.473 387.762L378.076 387.526L369.892 382.801V380.561ZM381.913 375.836V373.587L382.319 373.351L390.503 368.626L390.9 368.862L399.083 373.587V375.836L398.686 376.063L390.503 380.788L390.096 380.561L381.913 375.836ZM388.528 383.661L388.925 383.425L397.108 378.7L397.515 378.926L405.698 383.651V385.9L405.292 386.127L397.108 390.852L396.711 390.625L388.528 385.9V383.661ZM400.548 378.936V376.696L400.954 376.46L409.138 371.735L409.535 371.971L417.719 376.696V378.936L417.322 379.172L409.138 383.897L408.732 383.661L400.548 378.936ZM407.163 386.77L407.56 386.534L415.744 381.809L416.15 382.045L424.334 386.77V389.01L423.927 389.246L415.744 393.971L415.347 393.735L407.163 389.01V386.77ZM419.184 382.045V379.919L419.59 379.692L427.774 374.967L428.17 375.194L436.354 379.919V382.168L435.957 382.395L427.774 387.12L427.367 386.893L419.184 382.045ZM431.128 375.222V372.982L431.535 372.746L439.718 368.021L440.115 368.257L448.299 372.982V375.222L447.902 375.458L439.718 380.183L439.312 379.947L431.128 375.222ZM443.149 368.286V366.027L443.555 365.8L451.739 361.075L452.136 361.302L460.319 366.027V368.276L459.922 368.503L451.739 373.228L451.332 373.001L443.149 368.286ZM455.169 361.302V359.062L455.576 358.826L463.759 354.101L464.166 354.337L472.349 359.062V361.302L471.943 361.538L463.759 366.263L463.353 366.027L455.169 361.302ZM467.19 354.366V352.117L467.596 351.89L475.78 347.165L476.186 347.392L484.37 352.117V354.366L483.963 354.602L475.78 359.327L475.373 359.091L467.19 354.366ZM479.219 347.42V345.237L479.616 345.001L487.8 340.276L488.206 340.512L496.39 345.237V347.477L487.828 352.419L487.431 352.183L479.219 347.42ZM485.834 355.254L486.241 355.018L494.424 350.293L494.831 350.529L503.015 355.254V357.522L502.608 357.758L494.424 362.483L494.018 362.247L485.834 357.522V355.254ZM497.864 350.529V348.28L498.261 348.053L506.445 343.328L506.851 343.555L515.035 348.28V350.529L514.629 350.765L506.445 355.49L506.048 355.254L497.864 350.529ZM509.885 343.593V341.457L510.282 341.221L518.465 336.496L518.872 336.732L527.055 341.457V343.706L526.649 343.933L518.465 348.658L518.068 348.431L509.885 343.593ZM518.872 308.855L527.055 313.58V315.942L525.487 316.887L517.303 321.612L516.897 321.376L508.713 316.651V314.402L510.282 313.504L518.465 308.779L518.872 308.855ZM506.417 301.767L506.823 302.003L515.007 306.728V308.968L498.658 318.418L490.068 313.457V311.217L498.233 306.492L506.417 301.767ZM494.802 295.058L502.986 299.783V302.032L496.371 305.812L488.187 310.537L480.004 315.262L479.597 315.025L471.414 310.3V308.051L478.029 304.271L486.212 299.546L494.396 294.821L494.802 295.058ZM463.693 303.563L470.308 299.783L486.676 290.332L490.975 292.808V295.058L468.031 308.288L463.731 305.812L463.693 303.563ZM451.673 310.508L452.079 310.272L460.263 305.547L464.553 308.032V310.272L464.156 310.508L455.972 315.233L451.673 312.748V310.508ZM439.633 317.454L440.03 317.227L448.214 312.502L452.514 314.978V317.227L452.117 317.454L443.933 322.179L439.633 319.722V317.454ZM427.632 324.447L428.029 324.211L436.212 319.486L440.512 321.971V324.211L440.106 324.447L431.922 329.172L427.632 326.687V324.447ZM415.611 331.383L416.008 331.157L424.192 326.432L428.492 328.907V331.157L428.085 331.383L419.902 336.108L415.611 333.632V331.383ZM403.582 338.329L403.988 338.093L412.172 333.368L416.471 335.853V338.093L416.065 338.329L407.881 343.054L403.582 340.512V338.329ZM391.561 345.237L391.967 345.001L400.151 340.276L404.451 342.761V345.01L404.045 345.237L395.861 349.962L391.561 347.486V345.237ZM379.541 352.183L379.947 351.947L388.131 347.222L392.431 349.707V351.947L392.024 352.183L383.841 356.908L379.541 354.422V352.183ZM367.52 359.119L367.927 358.883L376.11 354.158L380.401 356.643V358.892L380.004 359.119L371.82 363.844L367.52 361.368V359.119ZM355.528 366.027L355.925 365.791L364.109 361.066L368.409 363.542V365.791L368.012 366.027L359.828 370.752L355.528 368.286V366.027ZM343.508 372.963L343.905 372.727L352.088 368.002L356.388 370.487V372.727L355.982 372.963L347.798 377.688L343.508 375.212V372.963ZM333.793 380.816V378.577L340.04 374.967L344.339 377.443V379.692L338.084 383.302L333.793 380.816ZM350.132 390.266L349.735 390.03L341.552 385.305V383.037L347.798 379.427L348.205 379.654L356.388 384.379V386.628L350.132 390.266ZM361.756 396.976L353.572 392.251V390.002L358.231 387.309L366.415 382.584L366.821 382.82L375.005 387.545V389.794L370.346 392.487L362.143 397.212L361.756 396.976ZM374.183 404.148L373.776 403.912L365.593 399.187V396.947L368.664 395.171L376.847 390.446L385.031 385.721L385.438 385.957L393.621 390.682V392.922L390.55 394.698L382.366 399.423L374.183 404.148ZM385.797 410.858L377.613 406.133V403.884L379.097 403.033L387.28 398.308L395.464 393.583L403.648 388.858L404.054 389.085L412.238 393.81V396.059L410.754 396.91L402.57 401.635L394.387 406.36L386.203 411.085L385.797 410.858ZM406.813 413.069L406.407 413.306L398.223 418.031L397.817 417.794L389.633 413.069V410.82L390.04 410.584L398.223 405.859L398.63 406.095L406.813 410.82V413.069ZM418.843 406.123L418.437 406.35L410.253 411.075L409.847 410.848L401.663 406.123V403.874L402.07 403.648L410.253 398.923L410.66 399.149L418.843 403.874V406.123ZM430.864 399.178L430.457 399.414L422.274 404.139L421.877 403.903L413.693 399.178V396.938L414.09 396.702L422.274 391.977L422.68 392.213L430.864 396.938V399.178ZM442.884 392.241L442.468 392.487L434.285 397.212L433.888 396.985L425.704 392.26V390.011L426.101 389.784L434.285 385.059L434.691 385.286L442.875 390.011L442.884 392.241ZM454.508 385.532L446.324 390.257L445.918 390.021L437.734 385.296V383.037L441.467 380.882L449.65 376.157L457.834 371.432L466.018 366.707L474.201 361.982L482.385 357.257L482.792 357.484L490.975 362.209V364.458L487.195 366.613L479.012 371.338L470.828 376.063L454.508 385.532ZM548.308 381.941L531.941 391.391L523.757 396.116L515.574 400.841L507.38 405.566L491.013 415.016L486.968 417.35L478.785 412.625L470.601 407.9L462.417 403.175L460.66 402.154L459.053 401.209L467.237 396.484L475.421 391.759L491.788 382.309L499.972 377.584L508.155 372.859L516.339 368.134L522.009 364.874L530.193 369.599L538.376 374.324L546.56 379.049L549.934 380.996L548.308 381.941ZM551.077 329.777L550.68 330.004L542.497 334.729L542.09 334.502L533.907 329.777V327.528L534.313 327.292L542.497 322.566L542.894 322.803L551.077 327.528V329.777Z" fill="#FF6C96"/>
<path d="M549.906 381.015L548.299 381.941L546.532 380.92L538.348 376.195L530.165 371.47L521.981 366.745V364.893L530.165 369.618L538.348 374.343L546.532 379.068L549.906 381.015Z" fill="#EF476F"/>
<path d="M548.299 381.941L531.932 391.391L523.748 396.116L515.564 400.841L507.371 405.566L491.004 415.016L486.959 417.35L478.775 412.625L470.592 407.9L462.408 403.175L460.65 402.155L468.834 397.43L477.018 392.705L485.201 387.98L493.385 383.255L501.569 378.53L509.752 373.805L517.936 369.08L521.981 366.746L530.164 371.471L538.348 376.196L546.532 380.921L548.299 381.941Z" fill="#FFD166"/>
<path d="M521.99 364.893V366.745L517.946 369.079L509.752 373.804L501.569 378.529L493.385 383.254L485.201 387.979L477.027 392.704L468.843 397.429L460.65 402.154L459.044 401.228L467.237 396.503L475.411 391.778L491.779 382.328L499.962 377.603L508.146 372.878L516.33 368.153L521.99 364.893Z" fill="#D13462"/>
<path d="M474.712 260.036V259.771L473.653 250.378L473.559 249.622L472.472 240.229L471.338 230.892L470.516 223.786L469.42 214.402L469.127 211.879L468.04 202.485L466.953 193.092L465.857 183.642L464.77 174.249L463.684 164.865L462.587 155.481L461.501 146.088L460.423 136.732L459.327 127.348L458.24 117.955L457.428 110.981L456.341 101.597L456.228 100.652V100.397L456.171 100.151L456.105 99.9149L456.02 99.6976L455.916 99.4897L455.793 99.3101L455.661 99.14L455.519 98.9888L455.368 98.8565L455.197 98.7526L455.018 98.6675L454.753 98.5919L454.564 98.5447H454.356H454.149H453.941H453.723L453.515 98.6108L453.298 98.7053L453.081 98.8187L444.897 103.544L438.972 107.097L422.623 116.547L414.44 121.272L406.256 125.997L398.053 130.722L389.87 135.447L381.988 139.945L373.805 144.67L365.621 149.395L349.253 158.845L341.07 163.57L332.886 168.295L324.702 173.02L316.519 177.745L308.335 182.47L305.349 184.19L300 187.28L283.633 196.73L280.032 198.809L271.848 203.534L265.895 206.974L265.687 207.106L265.479 207.258L265.271 207.428L265.073 207.617L264.884 207.825L264.704 208.051L264.534 208.288L264.373 208.533L264.222 208.788L264.081 209.063L263.958 209.337L263.854 209.62L263.759 209.904L263.684 210.197L263.617 210.489L263.57 210.773V211.066V211.614V211.888L263.929 214.95L264.77 222.217L265.857 231.601L266.953 240.994L268.04 250.378L268.201 251.758L268.928 258.032L270.015 267.426L271.111 276.81L272.198 286.193L273.285 295.587L274.381 304.971L275.468 314.355L276.555 323.748L277.244 329.673L278.331 339.066L279.427 348.45L280.514 357.834L280.864 360.849L281.951 370.232L282.045 370.998V371.253L282.102 371.499L282.168 371.735L282.262 371.952L282.357 372.16L282.48 372.349L282.612 372.51L282.754 372.661L282.914 372.793L283.075 372.897L283.255 372.992L283.444 373.058H283.633H283.841H284.048H284.256L473.2 263.967L473.37 263.788L473.549 263.57L473.72 263.334L473.88 263.079L474.031 262.824L474.173 262.55L474.296 262.276L474.4 261.992L474.494 261.709L474.57 261.416L474.636 261.132L474.683 260.839V260.556V259.998L474.712 260.036ZM448.479 264.071L440.285 268.796L432.102 273.521L423.918 278.246L415.734 282.971L407.551 287.696L391.183 297.146L382.999 301.871L374.816 306.596L366.632 311.321L358.448 316.046L350.265 320.771L333.897 330.221L325.713 334.946L317.53 339.671L309.346 344.396L301.162 349.121L297.713 351.115L297.515 349.433L295.341 330.665L294.245 321.272L294.103 319.722L292.979 310.272L291.882 300.879L290.796 291.495L289.709 282.111L288.613 272.718L288.036 267.747L286.95 258.354L286.827 257.352L285.74 247.959L285.645 247.127L284.549 237.743L283.481 228.501L282.754 222.226L281.979 215.611L281.62 212.465L289.803 207.74L289.936 207.664L295.284 204.574L303.468 199.849L311.16 195.407L319.344 190.682L327.528 185.957L335.712 181.232L343.895 176.507L352.079 171.782L360.263 167.057L368.446 162.332L369.231 161.888L372.066 160.253L375.959 158.004L384.143 153.279L392.327 148.554L408.694 139.104L416.878 134.379L425.061 129.654L433.245 124.929L438.915 121.631L440.531 120.686L441.627 130.079L442.714 139.463L443.801 148.847L444.897 158.24L445.984 167.624L447.099 177.027L448.195 186.42L449.282 195.804L449.849 200.69L450.973 210.102L452.07 219.486L453.156 228.879L454.243 238.263L455.339 247.647L456.426 257.04L456.7 259.365L448.479 264.071Z" fill="#D13462"/>
<path d="M453.752 249.216L452.665 239.832L451.578 230.448L450.482 221.055L448.308 202.287L447.997 199.632L446.91 190.257L445.814 180.873L444.727 171.489L443.64 162.096L442.544 152.712L441.457 143.328L440.37 133.935L439.274 124.551L438.943 121.669L433.273 124.967L425.09 129.692L416.906 134.417L408.722 139.142L392.355 148.592L384.171 153.317L375.988 158.042L372.094 160.291L369.259 161.926L368.475 162.37L360.291 167.095L352.107 171.82L343.924 176.545L335.74 181.27L327.556 185.995L319.372 190.72L311.189 195.445L303.496 199.887L295.313 204.612L289.964 207.702L289.832 207.777L281.648 212.502L282.007 215.649L282.782 222.264L283.51 228.539L284.578 237.781L285.674 247.165L285.768 247.997L286.827 257.352L286.95 258.373L288.036 267.766L288.613 272.737L289.709 282.13L290.796 291.514L291.882 300.898L292.979 310.291L294.103 319.722L294.283 321.3L295.379 330.694L297.552 349.461L313.92 340.011L322.104 335.286L330.287 330.561L338.471 325.836L346.664 321.111L354.848 316.386L363.032 311.661L371.215 306.936L379.399 302.211L387.583 297.486L395.766 292.761L403.95 288.036L412.134 283.311L428.501 273.861L436.685 269.136L444.869 264.411L453.052 259.686L454.886 258.628L453.752 249.216ZM308.977 241.174L317.161 236.449L325.345 231.724L333.529 226.999L341.722 222.274L349.773 217.624L357.957 212.899L362.143 210.48L362.635 214.695L363.721 224.088L363.882 225.496L363.532 225.704L355.349 230.429L347.165 235.154L338.981 239.879L330.798 244.604L329.172 245.549L320.988 250.274L319.675 249.528L318.182 248.677L309.96 244.018L306.993 242.336L308.977 241.174ZM309.734 265.961L308.647 256.577L308.571 255.925L307.862 249.83L313.532 253.052L315.574 254.215L323.795 258.874L327.622 261.047L335.844 265.706L333.831 266.868L325.647 271.593L317.464 276.318L315.734 275.373L310.461 272.378L309.734 265.961ZM354.886 278.756L346.702 283.481L338.518 288.206L330.335 292.931L322.151 297.656L313.967 302.382L313.353 297.099L313.098 294.878L314.288 292.364L318.352 283.859L326.498 279.134L334.682 274.409L342.865 269.684L348.639 272.964L356.861 277.622L354.886 278.756ZM367.048 265.526L362.984 274.031L357.21 270.752L348.989 266.093L355.122 262.559L348.119 258.59L341.986 262.124L336.212 258.845L327.991 254.186L336.137 249.461L352.504 240.011L358.278 243.291L366.5 247.949L367.152 253.619L368.248 263.003L367.048 265.526ZM427.084 230.892L423.02 239.397L421.782 240.115L420.336 240.947L412.153 245.672L404.668 250.01L396.485 254.735L388.301 259.46L380.117 264.185L373.115 260.216L372.86 257.995L371.773 248.601L370.648 239.218L369.599 230.183L372.982 223.096L374.494 219.921L378.548 211.416L381.308 205.613L385.371 197.108L388.443 195.332L396.626 190.607L404.81 185.882L406.246 185.05L414.43 180.325L422.141 175.884L423.011 183.387L422.302 184.871L422.217 185.06L418.153 193.565L417.757 194.406L409.611 199.131L401.427 203.856L393.243 208.581L391.646 211.935L387.583 220.44L387.498 220.629L383.434 229.134L382.735 230.618L383.387 236.288L384.474 245.681L390.059 242.45L398.242 237.725L399.679 236.902L407.862 232.177L415.111 227.991L417.501 222.964L421.565 214.459L425.628 205.954L426.063 209.734L428.237 228.501L427.084 230.892ZM424.797 198.356L422.397 203.374L418.342 211.879L414.279 220.384L409.148 223.351L400.964 228.076L395.899 231.006L395.171 224.721L395.02 223.493L396.22 220.979L400.283 212.474L408.42 207.749L416.604 203.024L424.797 198.356Z" fill="#FCFCFC"/>
<path d="M140.569 233.132L138.745 232.385L137.658 223.001L136.562 213.617L135.485 204.234L134.379 194.84L132.206 176.072L131.894 173.417L130.816 164.024L129.711 154.64L128.634 145.256L127.537 135.863L126.451 126.479L125.354 117.095L124.268 107.702L123.181 98.3178L122.85 95.4355L124.457 94.5L125.562 103.893L126.64 113.277L127.736 122.661L128.823 132.054L129.909 141.438L131.005 150.822L132.102 160.215L133.179 169.599L133.755 174.485L134.833 183.869L135.938 193.253L137.025 202.646L138.102 212.03L139.208 221.414L140.285 230.807L140.569 233.132Z" fill="#EF476F"/>
<path d="M456.672 259.346L448.479 264.071L440.295 268.796L432.102 273.521L423.927 278.246L415.734 282.971L407.551 287.696L391.183 297.146L383.009 301.871L374.816 306.596L366.632 311.321L358.448 316.046L350.265 320.771L333.897 330.221L325.723 334.946L317.53 339.671L309.356 344.396L301.162 349.121L297.723 351.115L297.515 349.433L313.882 339.983L322.066 335.258L330.249 330.533L338.433 325.808L346.636 321.083L354.81 316.358L363.003 311.633L371.187 306.908L379.361 302.183L387.545 297.458L395.729 292.733L403.922 288.008L412.096 283.283L428.463 273.833L436.647 269.108L444.831 264.383L453.015 259.658L454.848 258.599L456.672 259.346Z" fill="#FF6C96"/>
<path d="M283.283 372.992L278.775 371.3L278.605 371.215L278.435 371.111L278.274 370.979L278.133 370.828L278 370.658L277.887 370.478L277.783 370.27L277.698 370.053L277.622 369.817L277.566 369.571L277.528 369.316L277.415 368.371L276.328 358.987L275.373 350.784L274.287 341.401L273.2 332.007L272.406 325.184L271.31 315.791L270.223 306.407L269.769 302.504L268.683 293.12L267.596 283.737L267.142 279.843L267.019 278.823L265.933 269.429L265.432 265.111L264.704 258.826L264.355 255.859L263.268 246.466L262.172 237.082L261.085 227.698L260.234 220.355L259.875 217.284L259.8 216.575L259.053 210.197L259.034 209.932L259.025 209.658L259.044 209.374L259.072 209.091L259.11 208.798L259.176 208.514L259.252 208.222L259.346 207.938L259.459 207.655L263.958 209.337L263.854 209.62L263.759 209.904L263.684 210.197L263.617 210.49L263.57 210.773L263.542 211.066L263.532 211.34L263.542 211.614L263.561 211.888L263.92 214.95L264.761 222.217L265.848 231.601L266.944 240.994L268.031 250.378L268.191 251.758L268.919 258.033L270.006 267.426L271.102 276.81L272.189 286.194L273.275 295.587L274.372 304.971L275.458 314.355L276.545 323.748L277.235 329.673L278.322 339.066L279.418 348.45L280.505 357.834L280.854 360.849L281.941 370.233L282.036 370.998L282.073 371.253L282.13 371.499L282.196 371.735L282.291 371.952L282.385 372.16L282.508 372.349L282.64 372.51L282.782 372.661L282.943 372.793L283.103 372.897L283.283 372.992Z" fill="#EF476F"/>
<path d="M454.782 98.6013L454.593 98.554L454.385 98.5351H454.177L453.969 98.5635L453.752 98.6107L453.544 98.6769L453.326 98.7714L453.109 98.8848L444.925 103.61L438.972 107.05L422.604 116.5L414.421 121.225L406.237 125.95L398.053 130.675L389.87 135.4L381.988 139.945L373.805 144.67L365.621 149.395L349.253 158.845L341.07 163.57L332.886 168.295L324.702 173.02L316.519 177.745L308.335 182.47L305.349 184.19L300 187.28L283.633 196.73L280.032 198.809L271.848 203.534L265.895 206.974L265.687 207.106L265.479 207.257L265.271 207.428L265.073 207.617L264.884 207.824L264.704 208.051L264.534 208.288L264.373 208.533L264.222 208.788L264.081 209.062L263.958 209.336L259.459 207.654L259.582 207.38L259.715 207.106L259.866 206.851L260.026 206.596L260.197 206.369L260.376 206.142L260.565 205.934L260.764 205.745L260.971 205.575L261.179 205.424L261.397 205.282L266.868 202.126L267.341 201.852L275.524 197.127L278.407 195.464L286.59 190.739L294.774 186.014L302.958 181.289L308.307 178.199L315.999 173.757L324.183 169.032L327.622 167.048L335.806 162.323L343.99 157.598L352.174 152.873L360.357 148.148L376.725 138.698L384.908 133.973L393.546 128.983L401.739 124.258L409.923 119.533L418.106 114.808L426.29 110.083L434.474 105.358L440.418 101.928L448.601 97.2027L448.819 97.0893L449.036 96.9948L449.253 96.9286L449.461 96.8814L449.679 96.853H449.887L450.085 96.8719L450.274 96.9097L450.463 96.9759L454.782 98.6013Z" fill="#FF6C96"/>
<path d="M140.626 207.551V210.083L140.607 216.623L140.597 221.348V262.776L132.139 262.361L122.708 261.898L84.9461 260.045L75.515 259.582L37.7528 257.73L28.3217 257.267L18.8811 256.804L9.44056 256.341L0 255.878V200.643L9.44056 201.106L28.3217 202.032L37.7528 202.495L56.6339 203.421L57.2576 203.459L66.6982 203.922L76.1387 204.385L85.5698 204.848L95.0104 205.311L104.451 205.774L107.929 205.944L117.369 206.407L117.558 206.417L126.989 206.88L136.43 207.343L140.626 207.551Z" fill="#FFD166"/>
<path d="M140.758 152.315L140.739 161.397L140.72 170.847L140.692 179.985L140.682 184.823L140.663 192.657V193.073L140.644 201.729L140.626 207.551L136.43 207.343L126.989 206.88L117.558 206.416L117.369 206.407L107.929 205.944L104.451 205.774L95.0104 205.311L85.5698 204.848L76.1387 204.385L66.6982 203.922L57.2576 203.459L56.6339 203.421L37.7528 202.495L28.3217 202.032L9.44056 201.106L0 200.643V145.407L0.623701 145.445L10.0643 145.908L19.5048 146.371L28.9454 146.834L38.3765 147.297L57.2576 148.223L60.7352 148.393L70.1758 148.856L79.6163 149.32L89.0474 149.783L107.929 150.709L112.446 150.926L121.886 151.389L131.317 151.852L140.758 152.315Z" fill="#FFD166"/>
<path d="M140.626 208.496L0 201.588V199.698L140.635 206.606L140.626 208.496Z" fill="#04BFAD"/>
<path d="M217.407 110.149L224.702 105.935L232.886 101.21L241.07 96.4846L231.847 96.0027L222.415 95.5113L212.975 95.0199L207.532 94.7458L198.091 94.2544L191.117 93.8859L190.852 93.8764L183.444 93.489L183.179 93.4795L164.298 92.4967L162.654 92.4117L153.213 91.9203L143.772 91.4289L134.341 90.9375L115.46 89.9547L106.029 89.4633L97.6564 89.0286L89.4727 93.7536L81.289 98.4786L64.9216 107.929L56.7379 112.654L48.5542 117.379L32.1867 126.829L24.003 131.554L7.63561 141.004L0 145.407L0.623701 145.445L10.0643 145.908L19.5048 146.371L28.9454 146.834L38.3765 147.297L57.2576 148.223L60.7352 148.394L70.1758 148.857L79.6163 149.32L89.0474 149.783L107.929 150.709L112.446 150.926L121.886 151.389L131.317 151.852L140.758 152.315L140.739 161.397L140.72 170.847L140.692 179.985L140.682 184.823L140.663 192.657V193.073L140.645 201.729L140.626 207.551V210.083L140.607 216.623L140.597 221.348L140.758 221.253L148.101 217.019L149.14 216.415L157.324 211.69L158.193 211.189L166.377 206.464L166.49 206.398L168.598 205.179L176.781 200.454L184.965 195.729L193.149 191.004L209.516 181.554L217.7 176.829L225.884 172.104L230.07 169.694L232.168 168.484L232.48 168.305L232.678 163.107L233.037 153.657L230.996 151.2L230.07 150.085L225.884 145.039L225.232 144.245L220.752 138.858L217.416 141.75L217.407 141.76L210.253 147.94L207.891 149.991L207.466 150.359L207.305 154.593L207.021 162.02L202.533 164.61L202.523 164.619L186.165 174.06L177.981 178.785L169.798 183.51L166.377 185.485L166.434 162.729V138.688L164.855 138.613L155.424 138.15L117.662 136.298L109.951 135.92L107.929 135.816L107.324 135.787L97.6564 135.315L95.0104 135.182L85.5698 134.719L76.1387 134.256L66.6982 133.793L57.2576 133.33L58.2215 132.773L66.4052 128.048L74.5889 123.323L82.7726 118.598L90.9563 113.873L99.1401 109.148L107.267 104.451L107.324 104.423L110.669 104.602L129.55 105.585L138.981 106.076L140.465 106.152L149.896 106.643L159.337 107.135L165.885 107.466L217.407 110.149Z" fill="#F9CD87"/>
<path d="M235.976 214.317L232.48 221.395V216.33L235.976 214.317Z" fill="#059B89"/>
<path d="M192.903 301.616L188.726 310.093L188.197 311.16L184.918 310.045L187.554 304.706L192.903 301.616Z" fill="#059B89"/>
<path d="M232.48 168.305V223.531L231.005 224.381L228.983 225.553L220.799 230.278L204.432 239.728L199.197 242.752L191.013 247.477L182.829 252.202L174.646 256.927L166.462 261.652L166.377 261.699L165.148 262.408L156.965 267.133L148.781 271.858L140.597 276.583V221.348L140.758 221.253L148.101 217.019L149.14 216.415L157.324 211.69L158.193 211.189L166.377 206.464L166.49 206.398L168.598 205.179L176.781 200.454L184.965 195.729L193.149 191.004L209.516 181.554L217.7 176.829L225.884 172.104L230.07 169.694L232.168 168.484L232.48 168.305Z" fill="#EDB74C"/>
<path d="M232.48 223.531V278.766L228.152 281.27L225.638 282.716L209.27 292.166L201.087 296.891L192.903 301.616L187.554 304.706L182.697 307.513L174.513 312.238L166.33 316.963L165.148 317.643L156.965 322.368L148.781 327.093L140.597 331.818V276.583L148.781 271.858L156.965 267.133L165.148 262.408L166.377 261.699L166.462 261.652L174.646 256.927L182.829 252.202L191.013 247.477L199.197 242.752L204.432 239.728L220.799 230.278L228.983 225.553L231.005 224.381L232.48 223.531Z" fill="#EDB74C"/>
<path d="M324.249 150.284L321.215 152.032L315.867 155.122L307.683 159.847L299.499 164.572L291.315 169.297L274.948 178.747L266.764 183.472L258.581 188.197L250.397 192.922L242.213 197.647L241.07 198.309V193.47L249.253 188.745L257.437 184.02L265.621 179.295L281.988 169.845L290.172 165.12L298.356 160.395L306.539 155.67L314.723 150.945L319.202 148.365L320.062 147.865L322.557 149.31L324.249 150.284Z" fill="#04BFAD"/>
<path d="M388.755 38.1401V126.11L384.908 133.973L376.725 138.698L360.357 148.148L352.174 152.873L343.99 157.598L335.806 162.323L327.622 167.048L324.183 169.032L328.076 161.141L328.359 160.565L332.536 152.088L332.981 151.2L337.157 142.733L341.334 134.256L345.521 125.78L349.698 117.303L353.884 108.826L358.061 100.359L362.247 91.8824L366.424 83.4057L370.61 74.929L374.787 66.4524L377.216 61.5289L379.73 56.4354L383.916 47.9587L388.093 39.482L388.755 38.1401Z" fill="#EDB74C"/>
<path d="M388.755 38.1402L381.242 42.4778L373.058 47.2028L368.031 50.104L359.847 54.829L351.663 59.554L343.744 64.1278L335.56 68.8528L327.377 73.5778L319.193 78.3028L302.826 87.7528L294.642 92.4778L286.458 97.2028L278.274 101.928L270.091 106.653L264.629 109.8L257.437 113.958L249.253 118.683L241.07 123.408V110.49L249.348 105.708L257.532 100.983L265.715 96.2578L273.049 92.0242L279.002 88.5938L281.79 86.9779L289.974 82.2529L298.157 77.5279L306.341 72.8029L314.525 68.0779L322.708 63.3529L328.01 60.3005L333.075 57.371L341.259 52.646L349.509 47.8832L357.692 43.1582L361.879 40.739L359.11 39.1514L350.926 34.4264L342.742 29.7014L334.559 24.9764L326.375 20.2514L318.191 15.5264L313.797 18.059L305.935 22.6044L297.751 27.3294L289.567 32.0544L281.383 36.7794L273.2 41.5044L265.016 46.2294L256.832 50.9545L248.649 55.6795L240.465 60.4045L224.098 69.8545L215.914 74.5795L207.73 79.3045L199.546 84.0295L191.363 88.7545L183.179 93.4795L164.298 92.4967L162.654 92.4117L167.879 89.3876L176.063 84.6626L184.247 79.9376L192.431 75.2126L200.614 70.4876L208.798 65.7626L225.165 56.3126L233.349 51.5876L241.533 46.8626L249.716 42.1376L257.9 37.4126L266.084 32.6876L274.268 27.9626L282.451 23.2376L298.819 13.7876L307.002 9.06256L314.525 4.72501L322.708 0L325.704 1.7388L333.888 6.46381L334.521 6.82291L336.657 8.05141L344.84 12.7764L353.024 17.5014L361.208 22.2264L369.391 26.9514L377.575 31.6764L380.571 33.4152L388.755 38.1402Z" fill="#F9CD87"/>
<path d="M364.534 65.2051L360.65 73.4171L356.606 81.9599L352.561 90.5027L348.516 99.0361L344.472 107.579L340.427 116.122L336.383 124.665L332.338 133.198L328.293 141.741L324.249 150.284L322.557 149.31L320.062 147.864L321.877 144.028L325.921 135.485L329.966 126.942L334.011 118.409L338.055 109.866L342.1 101.323L346.144 92.7802L350.189 84.2374L354.234 75.704L357.201 69.4387L364.534 65.2051Z" fill="#04BFAD"/>
<path d="M356.388 384.398L350.132 388.008L349.735 387.781L341.552 383.056L347.798 379.446L348.205 379.673L356.388 384.398Z" fill="#F9CD87"/>
<path d="M368.409 377.462L360.225 382.187L359.819 382.423L359.422 382.187L351.238 377.462L351.635 377.225L359.819 372.5L360.225 372.737L368.409 377.462Z" fill="#F9CD87"/>
<path d="M380.429 370.525L372.245 375.25L371.848 375.477L371.442 375.25L363.258 370.525L363.665 370.289L371.848 365.564L372.245 365.8L380.429 370.525Z" fill="#F9CD87"/>
<path d="M392.449 363.58L384.266 368.305L383.869 368.541L383.462 368.305L375.279 363.58L375.685 363.343L383.869 358.618L384.266 358.855L392.449 363.58Z" fill="#F9CD87"/>
<path d="M404.47 356.643L396.286 361.368L395.889 361.595L395.483 361.368L387.299 356.643L387.706 356.407L395.889 351.682L396.286 351.918L404.47 356.643Z" fill="#F9CD87"/>
<path d="M416.509 349.697L408.316 354.422L407.91 354.659L407.503 354.422L399.32 349.697L399.735 349.471L407.91 344.746L408.316 344.972L416.509 349.697Z" fill="#F9CD87"/>
<path d="M428.52 342.761L420.336 347.486L419.93 347.713L419.524 347.486L411.34 342.761L411.746 342.525L419.93 337.8L420.336 338.036L428.52 342.761Z" fill="#F9CD87"/>
<path d="M440.541 335.816L432.357 340.541L431.951 340.777L431.554 340.541L423.37 335.816L423.767 335.589L431.951 330.864L432.357 331.091L440.541 335.816Z" fill="#F9CD87"/>
<path d="M452.561 328.879L444.387 333.604L443.971 333.831L443.574 333.604L435.39 328.879L435.787 328.643L443.971 323.918L444.387 324.154L452.561 328.879Z" fill="#F9CD87"/>
<path d="M464.581 321.933L456.398 326.658L456.001 326.895L455.594 326.658L447.411 321.933L447.808 321.706L456.001 316.981L456.398 317.208L464.581 321.933Z" fill="#F9CD87"/>
<path d="M476.602 314.997L468.418 319.722L468.021 319.949L467.615 319.722L459.431 314.997L459.837 314.761L468.021 310.036L468.418 310.272L476.602 314.997Z" fill="#F9CD87"/>
<path d="M502.986 299.764L494.802 304.489L486.619 309.214L480.042 313.012L479.635 312.776L471.452 308.051L478.029 304.262L486.212 299.537L494.396 294.812L494.802 295.039L502.986 299.764Z" fill="#F9CD87"/>
<path d="M375.005 387.535L366.821 392.261L362.162 394.954L361.756 394.718L353.572 389.992L358.231 387.299L366.415 382.574L366.821 382.81L375.005 387.535Z" fill="#F9CD87"/>
<path d="M387.025 380.599L378.841 385.324L378.435 385.551L378.038 385.324L369.855 380.599L370.251 380.363L378.435 375.638L378.841 375.874L387.025 380.599Z" fill="#F9CD87"/>
<path d="M399.046 373.653L390.871 378.378L390.465 378.615L390.059 378.378L381.884 373.653L382.291 373.417L390.465 368.692L390.871 368.928L399.046 373.653Z" fill="#F9CD87"/>
<path d="M411.075 366.717L402.882 371.442L402.495 371.669L402.079 371.442L393.895 366.717L394.302 366.481L402.495 361.756L402.882 361.992L411.075 366.717Z" fill="#F9CD87"/>
<path d="M423.086 359.771L414.903 364.496L414.506 364.732L414.099 364.496L405.916 359.771L406.322 359.544L414.506 354.819L414.903 355.046L423.086 359.771Z" fill="#F9CD87"/>
<path d="M435.116 352.835L426.942 357.56L426.526 357.787L426.12 357.56L417.936 352.835L418.343 352.599L426.526 347.874L426.942 348.11L435.116 352.835Z" fill="#F9CD87"/>
<path d="M447.137 345.889L438.953 350.614L438.547 350.851L438.14 350.614L429.957 345.889L430.363 345.663L438.547 340.938L438.953 341.164L447.137 345.889Z" fill="#F9CD87"/>
<path d="M459.157 338.953L450.973 343.678L450.567 343.905L450.17 343.678L441.986 338.953L442.383 338.717L450.567 333.992L450.973 334.228L459.157 338.953Z" fill="#F9CD87"/>
<path d="M471.177 332.007L462.994 336.732L462.587 336.968L462.191 336.732L454.007 332.007L454.404 331.78L462.587 327.055L462.994 327.282L471.177 332.007Z" fill="#F9CD87"/>
<path d="M483.198 325.071L475.024 329.796L474.627 330.022L474.211 329.796L466.027 325.071L466.424 324.834L474.627 320.109L475.024 320.346L483.198 325.071Z" fill="#F9CD87"/>
<path d="M495.218 318.125L487.035 322.85L486.638 323.086L486.231 322.85L478.048 318.125L478.454 317.898L486.638 313.173L487.035 313.4L495.218 318.125Z" fill="#F9CD87"/>
<path d="M515.007 306.71L506.832 311.435L498.658 316.15L498.252 315.914L490.068 311.189L498.233 306.473L506.417 301.748L506.832 301.985L515.007 306.71Z" fill="#F9CD87"/>
<path d="M393.631 390.673L385.447 395.398L377.254 400.123L374.183 401.89L373.786 401.663L365.602 396.938L368.673 395.161L376.857 390.436L385.031 385.711L385.447 385.948L393.631 390.673Z" fill="#F9CD87"/>
<path d="M405.642 383.727L397.458 388.452L397.052 388.688L396.655 388.452L388.471 383.727L388.868 383.491L397.052 378.775L397.458 379.002L405.642 383.727Z" fill="#F9CD87"/>
<path d="M417.662 376.791L409.478 381.516L409.081 381.743L408.675 381.516L400.491 376.791L400.898 376.555L409.081 371.83L409.478 372.066L417.662 376.791Z" fill="#F9CD87"/>
<path d="M429.682 369.845L421.508 374.57L421.111 374.806L420.696 374.57L412.512 369.845L412.918 369.618L421.111 364.893L421.508 365.12L429.682 369.845Z" fill="#F9CD87"/>
<path d="M441.703 362.908L433.519 367.633L433.122 367.86L432.716 367.633L424.532 362.908L424.939 362.672L433.122 357.947L433.519 358.184L441.703 362.908Z" fill="#F9CD87"/>
<path d="M453.733 355.963L445.549 360.688L445.143 360.924L444.736 360.688L436.553 355.963L436.959 355.736L445.143 351.011L445.549 351.238L453.733 355.963Z" fill="#F9CD87"/>
<path d="M465.763 349.027L457.57 353.752L457.163 353.978L456.757 353.752L448.573 349.027L448.989 348.79L457.163 344.065L457.57 344.302L465.763 349.027Z" fill="#F9CD87"/>
<path d="M477.774 342.081L469.59 346.806L469.183 347.042L468.787 346.806L460.603 342.081L461 341.854L469.183 337.129L469.59 337.356L477.774 342.081Z" fill="#F9CD87"/>
<path d="M489.794 335.144L481.61 339.869L481.204 340.096L480.807 339.869L472.623 335.144L473.02 334.908L481.204 330.183L481.61 330.419L489.794 335.144Z" fill="#F9CD87"/>
<path d="M501.814 328.199L493.64 332.924L493.234 333.16L492.827 332.924L484.644 328.199L485.041 327.972L493.234 323.247L493.64 323.474L501.814 328.199Z" fill="#F9CD87"/>
<path d="M513.844 321.263L505.661 325.988L505.254 326.224L504.848 325.988L496.674 321.263L497.071 321.026L505.254 316.301L505.661 316.538L513.844 321.263Z" fill="#F9CD87"/>
<path d="M527.036 313.646L518.843 318.371L517.275 319.278L516.878 319.042L508.685 314.317L510.263 313.419L518.446 308.694L518.843 308.921L527.036 313.646Z" fill="#F9CD87"/>
<path d="M412.238 393.801L404.054 398.526L395.88 403.251L387.687 407.976L386.203 408.836L385.797 408.6L377.613 403.875L379.097 403.024L387.28 398.299L395.464 393.574L403.648 388.849L404.054 389.076L412.238 393.801Z" fill="#F9CD87"/>
<path d="M424.258 386.865L416.084 391.59L415.678 391.816L415.271 391.59L407.097 386.865L407.484 386.628L415.678 381.903L416.084 382.14L424.258 386.865Z" fill="#F9CD87"/>
<path d="M436.279 379.919L428.095 384.644L427.698 384.88L427.292 384.644L419.108 379.919L419.514 379.692L427.698 374.967L428.095 375.194L436.279 379.919Z" fill="#F9CD87"/>
<path d="M448.299 372.983L440.115 377.708L439.718 377.935L439.312 377.708L431.128 372.983L431.535 372.746L439.718 368.021L440.115 368.258L448.299 372.983Z" fill="#F9CD87"/>
<path d="M460.329 366.037L452.136 370.762L451.748 370.998L451.333 370.762L443.149 366.037L443.565 365.81L451.748 361.085L452.136 361.312L460.329 366.037Z" fill="#F9CD87"/>
<path d="M472.349 359.1L464.166 363.825L463.759 364.052L463.353 363.825L455.169 359.1L455.576 358.864L463.759 354.139L464.166 354.375L472.349 359.1Z" fill="#F9CD87"/>
<path d="M484.37 352.155L476.186 356.88L475.78 357.116L475.373 356.88L467.19 352.155L467.596 351.928L475.78 347.203L476.186 347.43L484.37 352.155Z" fill="#F9CD87"/>
<path d="M496.39 345.218L488.216 349.943L487.8 350.179L487.403 349.943L479.229 345.218L479.626 344.982L487.8 340.257L488.216 340.493L496.39 345.218Z" fill="#F9CD87"/>
<path d="M508.411 338.273L500.227 342.998L499.82 343.234L499.424 342.998L491.24 338.273L491.637 338.046L499.82 333.321L500.227 333.548L508.411 338.273Z" fill="#F9CD87"/>
<path d="M520.431 331.336L512.247 336.061L511.85 336.298L511.444 336.061L503.26 331.336L503.657 331.1L511.85 326.375L512.247 326.611L520.431 331.336Z" fill="#F9CD87"/>
<path d="M539.047 320.592L530.864 325.317L523.871 329.352L523.464 329.125L515.281 324.4L522.274 320.355L530.467 315.63L530.864 315.867L539.047 320.592Z" fill="#F9CD87"/>
<path d="M406.823 410.82L398.63 415.545L398.223 415.772L397.817 415.545L389.633 410.82L390.049 410.584L398.223 405.859L398.63 406.095L406.823 410.82Z" fill="#F9CD87"/>
<path d="M418.834 403.875L410.65 408.6L410.244 408.836L409.837 408.6L401.654 403.875L402.06 403.648L410.244 398.923L410.65 399.15L418.834 403.875Z" fill="#F9CD87"/>
<path d="M430.854 396.938L422.671 401.663L422.264 401.89L421.867 401.663L413.684 396.938L414.081 396.702L422.264 391.977L422.671 392.213L430.854 396.938Z" fill="#F9CD87"/>
<path d="M442.875 389.992L434.7 394.717L434.285 394.954L433.888 394.717L425.704 389.992L426.101 389.766L434.285 385.041L434.7 385.267L442.875 389.992Z" fill="#F9CD87"/>
<path d="M490.966 362.228L482.782 366.953L474.598 371.678L466.415 376.403L458.231 381.128L450.038 385.853L446.315 388.008L445.908 387.781L437.724 383.056L441.457 380.901L449.641 376.176L457.825 371.451L466.008 366.726L474.192 362.001L482.376 357.276L482.782 357.503L490.966 362.228Z" fill="#F9CD87"/>
<path d="M502.986 355.292L494.802 360.017L494.396 360.253L493.99 360.017L485.806 355.292L486.212 355.056L494.396 350.331L494.802 350.567L502.986 355.292Z" fill="#F9CD87"/>
<path d="M515.007 348.346L506.832 353.071L506.417 353.308L506.02 353.071L497.836 348.346L498.233 348.12L506.417 343.395L506.832 343.621L515.007 348.346Z" fill="#F9CD87"/>
<path d="M527.036 341.41L518.843 346.135L518.446 346.371L518.04 346.135L509.856 341.41L510.263 341.174L518.446 336.449L518.843 336.685L527.036 341.41Z" fill="#F9CD87"/>
<path d="M533.841 331.459L525.657 336.184L525.25 336.42L521.877 334.474L522.274 334.237L530.467 329.512L533.841 331.459Z" fill="#F9CD87"/>
<path d="M539.047 334.474L530.864 339.199L530.467 339.426L527.197 337.536L527.084 337.479L533.727 333.642L533.84 333.585L535.674 332.518L539.047 334.474Z" fill="#F9CD87"/>
<path d="M551.068 327.528L542.884 332.253L542.487 332.489L542.081 332.253L533.897 327.528L534.304 327.292L542.487 322.567L542.884 322.803L551.068 327.528Z" fill="#F9CD87"/>
<path d="M344.34 377.443L338.084 381.053L333.793 378.577L340.04 374.967L344.34 377.443Z" fill="#F9CD87"/>
<path d="M356.36 370.507L348.176 375.232L347.77 375.468L343.48 372.983L343.876 372.746L352.06 368.021L356.36 370.507Z" fill="#F9CD87"/>
<path d="M368.38 363.561L360.197 368.286L359.8 368.522L355.5 366.046L355.897 365.81L364.081 361.085L368.38 363.561Z" fill="#F9CD87"/>
<path d="M380.401 356.625L372.217 361.35L371.82 361.586L367.52 359.1L367.927 358.864L376.11 354.139L380.401 356.625Z" fill="#F9CD87"/>
<path d="M392.431 349.688L384.237 354.404L383.841 354.64L379.541 352.164L379.947 351.928L388.131 347.203L392.431 349.688Z" fill="#F9CD87"/>
<path d="M404.46 342.742L396.267 347.467L395.861 347.703L391.561 345.218L391.977 344.982L400.151 340.257L404.46 342.742Z" fill="#F9CD87"/>
<path d="M416.471 335.806L408.288 340.531L407.881 340.758L403.582 338.282L403.988 338.046L412.172 333.321L416.471 335.806Z" fill="#F9CD87"/>
<path d="M428.492 328.86L420.308 333.585L419.902 333.822L415.611 331.336L416.008 331.109L424.192 326.385L428.492 328.86Z" fill="#F9CD87"/>
<path d="M440.512 321.924L432.338 326.649L431.922 326.876L427.632 324.4L428.029 324.164L436.212 319.439L440.512 321.924Z" fill="#F9CD87"/>
<path d="M452.533 314.978L444.349 319.703L443.952 319.94L439.652 317.454L440.049 317.227L448.233 312.502L452.533 314.978Z" fill="#F9CD87"/>
<path d="M464.553 308.042L456.369 312.767L455.972 312.994L451.673 310.518L452.079 310.282L460.263 305.557L464.553 308.042Z" fill="#F9CD87"/>
<path d="M490.938 292.808L482.754 297.533L474.57 302.258L467.993 306.057L463.693 303.572L470.27 299.783L486.638 290.333L490.938 292.808Z" fill="#F9CD87"/>
<path d="M350.132 388.008V390.257L349.735 390.021L341.552 385.296V383.056L349.735 387.781L350.132 388.008Z" fill="#FFD166"/>
<path d="M359.819 382.423V384.663L359.422 384.436L351.238 379.711V377.462L359.422 382.187L359.819 382.423Z" fill="#FFD166"/>
<path d="M371.848 375.477V377.726L371.442 377.49L363.258 372.765V370.525L371.442 375.25L371.848 375.477Z" fill="#FFD166"/>
<path d="M383.869 368.541V370.78L383.462 370.554L375.279 365.829V363.58L383.462 368.305L383.869 368.541Z" fill="#FFD166"/>
<path d="M395.889 361.595V363.844L395.483 363.608L387.299 358.883V356.644L395.483 361.369L395.889 361.595Z" fill="#FFD166"/>
<path d="M407.91 354.659V356.899L407.503 356.672L399.32 351.947V349.698L407.503 354.423L407.91 354.659Z" fill="#FFD166"/>
<path d="M419.93 347.713V349.962L419.524 349.726L411.34 345.001V342.761L419.524 347.486L419.93 347.713Z" fill="#FFD166"/>
<path d="M431.951 340.777V343.016L431.554 342.79L423.37 338.065V335.815L431.554 340.54L431.951 340.777Z" fill="#FFD166"/>
<path d="M443.971 333.831V336.08L443.574 335.844L435.39 331.119V328.879L443.574 333.604L443.971 333.831Z" fill="#FFD166"/>
<path d="M456.001 326.895V329.134L455.594 328.908L447.411 324.183V321.934L455.594 326.659L456.001 326.895Z" fill="#FFD166"/>
<path d="M468.021 319.949V322.198L467.615 321.962L459.431 317.237V314.997L467.615 319.722L468.021 319.949Z" fill="#FFD166"/>
<path d="M480.042 313.013V315.262L479.635 315.026L471.452 310.301V308.052L479.635 312.777L480.042 313.013Z" fill="#FFD166"/>
<path d="M362.162 394.954V397.193L361.756 396.967L353.572 392.242V389.992L361.756 394.717L362.162 394.954Z" fill="#FFD166"/>
<path d="M378.435 385.551V387.8L378.038 387.564L369.855 382.839V380.599L378.038 385.324L378.435 385.551Z" fill="#FFD166"/>
<path d="M390.465 378.615V380.854L390.059 380.627L381.884 375.902V373.653L390.059 378.378L390.465 378.615Z" fill="#FFD166"/>
<path d="M402.485 371.669V373.918L402.079 373.682L393.895 368.957V366.717L402.079 371.442L402.485 371.669Z" fill="#FFD166"/>
<path d="M414.506 364.733V366.972L414.099 366.746L405.916 362.021V359.771L414.099 364.496L414.506 364.733Z" fill="#FFD166"/>
<path d="M426.526 357.787V360.036L426.12 359.8L417.936 355.075V352.835L426.12 357.56L426.526 357.787Z" fill="#FFD166"/>
<path d="M438.547 350.85V353.09L438.14 352.863L429.957 348.138V345.889L438.14 350.614L438.547 350.85Z" fill="#FFD166"/>
<path d="M450.567 343.905V346.154L450.17 345.918L441.986 341.193V338.953L450.17 343.678L450.567 343.905Z" fill="#FFD166"/>
<path d="M462.587 336.969V339.208L462.191 338.981L454.007 334.256V332.007L462.191 336.732L462.587 336.969Z" fill="#FFD166"/>
<path d="M474.627 330.023V332.272L466.027 327.311V325.071L474.211 329.796L474.627 330.023Z" fill="#FFD166"/>
<path d="M486.638 323.086V325.336L478.048 320.374V318.125L486.231 322.85L486.638 323.086Z" fill="#FFD166"/>
<path d="M498.658 316.15V318.39L490.068 313.428V311.189L498.252 315.914L498.658 316.15Z" fill="#FFD166"/>
<path d="M374.183 401.89V404.139L373.776 403.903L365.592 399.178V396.938L373.776 401.663L374.183 401.89Z" fill="#FFD166"/>
<path d="M397.052 388.688V390.928L396.655 390.701L388.471 385.976V383.727L396.655 388.452L397.052 388.688Z" fill="#FFD166"/>
<path d="M409.081 381.743V383.992L408.675 383.755L400.491 379.03V376.791L408.675 381.516L409.081 381.743Z" fill="#FFD166"/>
<path d="M421.111 374.806V377.046L420.696 376.819L412.512 372.094V369.845L420.696 374.57L421.111 374.806Z" fill="#FFD166"/>
<path d="M433.122 367.86V370.11L432.716 369.873L424.532 365.148V362.909L432.716 367.634L433.122 367.86Z" fill="#FFD166"/>
<path d="M445.143 360.924V363.164L444.736 362.937L436.553 358.212V355.963L444.736 360.688L445.143 360.924Z" fill="#FFD166"/>
<path d="M457.163 353.978V356.228L456.757 355.991L448.573 351.266V349.027L456.757 353.752L457.163 353.978Z" fill="#FFD166"/>
<path d="M469.193 347.042V349.291L468.787 349.055L460.612 344.33V342.081L468.787 346.806L469.193 347.042Z" fill="#FFD166"/>
<path d="M481.204 340.097V342.346L472.623 337.384V335.145L480.807 339.87L481.204 340.097Z" fill="#FFD166"/>
<path d="M493.234 333.16V335.409L492.827 335.173L484.644 330.448V328.199L492.827 332.924L493.234 333.16Z" fill="#FFD166"/>
<path d="M505.254 326.224V328.463L504.848 328.237L496.664 323.512V321.262L504.848 325.987L505.254 326.224Z" fill="#FFD166"/>
<path d="M517.275 319.278V321.527L516.868 321.291L508.685 316.566V314.317L516.868 319.042L517.275 319.278Z" fill="#FFD166"/>
<path d="M386.203 408.836V411.075L385.797 410.849L377.613 406.124V403.875L385.797 408.6L386.203 408.836Z" fill="#FFD166"/>
<path d="M415.678 391.816V394.065L415.271 393.829L407.097 389.104V386.865L415.271 391.59L415.678 391.816Z" fill="#FFD166"/>
<path d="M427.698 384.88V387.12L427.292 386.893L419.108 382.168V379.919L427.292 384.644L427.698 384.88Z" fill="#FFD166"/>
<path d="M439.718 377.934V380.184L439.312 379.947L431.128 375.222V372.983L439.312 377.708L439.718 377.934Z" fill="#FFD166"/>
<path d="M451.748 370.998V373.238L451.333 373.011L443.149 368.286V366.037L451.333 370.762L451.748 370.998Z" fill="#FFD166"/>
<path d="M463.759 364.052V366.301L463.353 366.065L455.169 361.34V359.1L463.353 363.825L463.759 364.052Z" fill="#FFD166"/>
<path d="M475.78 357.116V359.365L475.373 359.129L467.19 354.404V352.155L475.373 356.88L475.78 357.116Z" fill="#FFD166"/>
<path d="M487.8 350.179V352.419L487.403 352.183L479.229 347.458V345.218L487.403 349.943L487.8 350.179Z" fill="#FFD166"/>
<path d="M499.82 343.234V345.483L491.24 340.522V338.273L499.424 342.998L499.82 343.234Z" fill="#FFD166"/>
<path d="M511.85 336.297V338.537L511.444 338.31L503.26 333.585V331.336L511.444 336.061L511.85 336.297Z" fill="#FFD166"/>
<path d="M523.88 329.352V331.601L523.464 331.365L515.281 326.64V324.4L523.464 329.125L523.88 329.352Z" fill="#FFD166"/>
<path d="M398.223 415.772V418.021L397.817 417.785L389.633 413.06V410.82L397.817 415.545L398.223 415.772Z" fill="#FFD166"/>
<path d="M410.244 408.836V411.075L409.837 410.849L401.654 406.124V403.875L409.837 408.6L410.244 408.836Z" fill="#FFD166"/>
<path d="M422.264 401.89V404.139L421.867 403.903L413.684 399.178V396.938L421.867 401.663L422.264 401.89Z" fill="#FFD166"/>
<path d="M434.285 394.954V397.193L433.888 396.967L425.704 392.242V389.992L433.888 394.717L434.285 394.954Z" fill="#FFD166"/>
<path d="M446.315 388.008V390.257L445.908 390.021L437.724 385.296V383.056L445.908 387.781L446.315 388.008Z" fill="#FFD166"/>
<path d="M494.396 360.253V362.493L493.99 362.257L485.806 357.532V355.292L493.99 360.017L494.396 360.253Z" fill="#FFD166"/>
<path d="M506.417 353.308V355.557L506.02 355.321L497.836 350.596V348.346L506.02 353.071L506.417 353.308Z" fill="#FFD166"/>
<path d="M518.446 346.371V348.611L518.04 348.384L509.856 343.659V341.41L518.04 346.135L518.446 346.371Z" fill="#FFD166"/>
<path d="M525.26 336.42V338.66L521.877 336.713V334.474L525.26 336.42Z" fill="#FFD166"/>
<path d="M530.467 339.425V341.675L527.084 339.728V337.479L527.197 337.535L530.467 339.425Z" fill="#FFD166"/>
<path d="M542.487 332.489V334.729L542.081 334.502L533.897 329.777V327.528L542.081 332.253L542.487 332.489Z" fill="#FFD166"/>
<path d="M338.084 381.053V383.302L333.793 380.816V378.577L338.084 381.053Z" fill="#FFD166"/>
<path d="M347.77 375.468V377.708L343.48 375.232V372.983L347.77 375.468Z" fill="#FFD166"/>
<path d="M359.8 368.522V370.771L355.5 368.286V366.046L359.8 368.522Z" fill="#FFD166"/>
<path d="M371.82 361.586V363.825L367.52 361.349V359.1L371.82 361.586Z" fill="#FFD166"/>
<path d="M383.841 354.64V356.889L379.541 354.404V352.164L383.841 354.64Z" fill="#FFD166"/>
<path d="M395.861 347.703V349.943L391.561 347.467V345.218L395.861 347.703Z" fill="#FFD166"/>
<path d="M407.881 340.758V343.007L403.582 340.522V338.282L407.881 340.758Z" fill="#FFD166"/>
<path d="M419.902 333.822V336.061L415.611 333.585V331.336L419.902 333.822Z" fill="#FFD166"/>
<path d="M431.922 326.876V329.125L427.632 326.64V324.4L431.922 326.876Z" fill="#FFD166"/>
<path d="M443.952 319.94V322.179L439.652 319.703V317.454L443.952 319.94Z" fill="#FFD166"/>
<path d="M455.972 312.994V315.243L451.673 312.757V310.518L455.972 312.994Z" fill="#FFD166"/>
<path d="M467.993 306.057V308.297L463.693 305.821V303.572L467.993 306.057Z" fill="#FFD166"/>
<path d="M356.388 384.398V386.647L350.132 390.257V388.008L356.388 384.398Z" fill="#EDB74C"/>
<path d="M368.409 377.462V379.711L368.002 379.938L359.819 384.663V382.423L360.225 382.187L368.409 377.462Z" fill="#EDB74C"/>
<path d="M380.429 370.525V372.765L380.032 373.001L371.848 377.726V375.477L372.245 375.25L380.429 370.525Z" fill="#EDB74C"/>
<path d="M392.449 363.58V365.829L392.053 366.055L383.869 370.78V368.541L384.266 368.305L392.449 363.58Z" fill="#EDB74C"/>
<path d="M404.47 356.644V358.883L404.073 359.119L395.889 363.844V361.595L396.286 361.369L404.47 356.644Z" fill="#EDB74C"/>
<path d="M416.509 349.698V351.947L416.093 352.174L407.91 356.899V354.659L408.316 354.423L416.509 349.698Z" fill="#EDB74C"/>
<path d="M428.52 342.761V345.001L428.114 345.237L419.93 349.962V347.713L420.336 347.486L428.52 342.761Z" fill="#EDB74C"/>
<path d="M440.541 335.815V338.065L440.134 338.291L431.951 343.016V340.777L432.357 340.54L440.541 335.815Z" fill="#EDB74C"/>
<path d="M452.561 328.879V331.119L452.155 331.355L443.971 336.08V333.831L444.387 333.604L452.561 328.879Z" fill="#EDB74C"/>
<path d="M464.581 321.934V324.183L464.184 324.409L456.001 329.134V326.895L456.398 326.659L464.581 321.934Z" fill="#EDB74C"/>
<path d="M476.602 314.997V317.237L476.205 317.473L468.021 322.198V319.949L468.418 319.722L476.602 314.997Z" fill="#EDB74C"/>
<path d="M502.986 299.764V302.013L496.409 305.812L488.225 310.537L480.042 315.262V313.013L486.619 309.214L494.803 304.489L502.986 299.764Z" fill="#EDB74C"/>
<path d="M375.005 387.536V389.785L370.346 392.469L362.162 397.194V394.954L366.821 392.261L375.005 387.536Z" fill="#EDB74C"/>
<path d="M387.025 380.599V382.839L386.619 383.075L378.435 387.8V385.551L378.841 385.324L387.025 380.599Z" fill="#EDB74C"/>
<path d="M399.046 373.653V375.902L398.649 376.129L390.465 380.854V378.615L390.871 378.378L399.046 373.653Z" fill="#EDB74C"/>
<path d="M411.075 366.717V368.957L410.669 369.193L402.495 373.918V371.669L402.882 371.442L411.075 366.717Z" fill="#EDB74C"/>
<path d="M423.086 359.771V362.021L422.69 362.247L414.506 366.972V364.733L414.903 364.496L423.086 359.771Z" fill="#EDB74C"/>
<path d="M435.116 352.835V355.075L434.71 355.311L426.526 360.036V357.787L426.942 357.56L435.116 352.835Z" fill="#EDB74C"/>
<path d="M447.137 345.889V348.138L446.73 348.365L438.547 353.09V350.85L438.953 350.614L447.137 345.889Z" fill="#EDB74C"/>
<path d="M459.157 338.953V341.193L458.751 341.429L450.567 346.154V343.905L450.973 343.678L459.157 338.953Z" fill="#EDB74C"/>
<path d="M471.177 332.007V334.256L470.771 334.493L462.587 339.208V336.969L462.994 336.732L471.177 332.007Z" fill="#EDB74C"/>
<path d="M483.198 325.071V327.311L482.801 327.547L474.627 332.272V330.023L475.024 329.796L483.198 325.071Z" fill="#EDB74C"/>
<path d="M495.218 318.125V320.374L486.638 325.336V323.086L487.035 322.85L495.218 318.125Z" fill="#EDB74C"/>
<path d="M515.007 306.709V308.949L498.658 318.39V316.15L506.832 311.434L515.007 306.709Z" fill="#EDB74C"/>
<path d="M393.631 390.673V392.913L390.56 394.689L382.376 399.414L374.183 404.139V401.89L377.254 400.123L385.447 395.398L393.631 390.673Z" fill="#EDB74C"/>
<path d="M405.642 383.727V385.976L405.235 386.203L397.052 390.928V388.688L397.458 388.452L405.642 383.727Z" fill="#EDB74C"/>
<path d="M417.662 376.791V379.03L417.265 379.267L409.082 383.992V381.743L409.478 381.516L417.662 376.791Z" fill="#EDB74C"/>
<path d="M429.682 369.845V372.094L429.286 372.321L421.111 377.046V374.806L421.508 374.57L429.682 369.845Z" fill="#EDB74C"/>
<path d="M441.703 362.909V365.148L441.306 365.385L433.122 370.11V367.86L433.519 367.634L441.703 362.909Z" fill="#EDB74C"/>
<path d="M453.733 355.963V358.212L453.326 358.439L445.143 363.164V360.924L445.549 360.688L453.733 355.963Z" fill="#EDB74C"/>
<path d="M465.763 349.027V351.266L465.347 351.503L457.163 356.228V353.978L457.569 353.752L465.763 349.027Z" fill="#EDB74C"/>
<path d="M477.774 342.081V344.33L477.367 344.566L469.184 349.291V347.042L469.59 346.806L477.774 342.081Z" fill="#EDB74C"/>
<path d="M489.794 335.145V337.384L481.204 342.346V340.097L481.61 339.87L489.794 335.145Z" fill="#EDB74C"/>
<path d="M501.814 328.199V330.448L501.417 330.684L493.234 335.409V333.16L493.64 332.924L501.814 328.199Z" fill="#EDB74C"/>
<path d="M513.844 321.262V323.512L513.447 323.738L505.254 328.463V326.224L505.661 325.987L513.844 321.262Z" fill="#EDB74C"/>
<path d="M527.036 313.646V315.895L525.458 316.802L517.275 321.527V319.278L518.843 318.371L527.036 313.646Z" fill="#EDB74C"/>
<path d="M412.238 393.801V396.05L410.764 396.9L402.57 401.625L394.387 406.35L386.203 411.075V408.836L387.687 407.976L395.88 403.251L404.054 398.526L412.238 393.801Z" fill="#EDB74C"/>
<path d="M424.258 386.865V389.104L423.852 389.34L415.678 394.065V391.816L416.084 391.59L424.258 386.865Z" fill="#EDB74C"/>
<path d="M436.279 379.919V382.168L435.882 382.395L427.698 387.12V384.88L428.095 384.644L436.279 379.919Z" fill="#EDB74C"/>
<path d="M448.299 372.983V375.222L447.902 375.459L439.718 380.184V377.934L440.115 377.708L448.299 372.983Z" fill="#EDB74C"/>
<path d="M460.329 366.037V368.286L459.923 368.513L451.748 373.238V370.998L452.136 370.762L460.329 366.037Z" fill="#EDB74C"/>
<path d="M472.349 359.1V361.34L471.943 361.576L463.759 366.301V364.052L464.166 363.825L472.349 359.1Z" fill="#EDB74C"/>
<path d="M484.37 352.155V354.404L483.963 354.64L475.78 359.365V357.116L476.186 356.88L484.37 352.155Z" fill="#EDB74C"/>
<path d="M496.39 345.218V347.458L487.8 352.419V350.179L488.216 349.943L496.39 345.218Z" fill="#EDB74C"/>
<path d="M508.411 338.273V340.522L499.82 345.483V343.234L500.227 342.998L508.411 338.273Z" fill="#EDB74C"/>
<path d="M520.431 331.336V333.585L520.034 333.812L511.85 338.537V336.297L512.247 336.061L520.431 331.336Z" fill="#EDB74C"/>
<path d="M539.047 320.592V322.831L532.054 326.876L523.871 331.601V329.352L530.864 325.317L539.047 320.592Z" fill="#EDB74C"/>
<path d="M406.823 410.82V413.06L406.407 413.296L398.223 418.021V415.772L398.63 415.545L406.823 410.82Z" fill="#EDB74C"/>
<path d="M418.834 403.875V406.124L418.428 406.35L410.244 411.075V408.836L410.65 408.6L418.834 403.875Z" fill="#EDB74C"/>
<path d="M430.854 396.938V399.178L430.448 399.414L422.264 404.139V401.89L422.671 401.663L430.854 396.938Z" fill="#EDB74C"/>
<path d="M442.875 389.992V392.242L442.468 392.468L434.285 397.193V394.954L434.7 394.717L442.875 389.992Z" fill="#EDB74C"/>
<path d="M490.966 362.228V364.477L487.233 366.632L479.049 371.357L470.866 376.082L454.498 385.532L446.314 390.257V388.008L450.038 385.853L458.231 381.128L466.415 376.403L474.598 371.678L482.782 366.953L490.966 362.228Z" fill="#EDB74C"/>
<path d="M502.986 355.292V357.532L502.58 357.768L494.396 362.493V360.253L494.802 360.017L502.986 355.292Z" fill="#EDB74C"/>
<path d="M515.007 348.346V350.596L514.6 350.832L506.417 355.557V353.308L506.832 353.071L515.007 348.346Z" fill="#EDB74C"/>
<path d="M527.036 341.41V343.659L526.621 343.886L518.446 348.611V346.371L518.843 346.135L527.036 341.41Z" fill="#EDB74C"/>
<path d="M533.84 331.459V333.585L533.727 333.642L527.084 337.479V337.601L525.25 338.66V336.42L525.657 336.184L533.84 331.459Z" fill="#EDB74C"/>
<path d="M539.047 334.474V336.713L538.651 336.95L530.467 341.675V339.425L530.864 339.199L539.047 334.474Z" fill="#EDB74C"/>
<path d="M551.068 327.528V329.777L550.671 330.004L542.487 334.729V332.489L542.884 332.253L551.068 327.528Z" fill="#EDB74C"/>
<path d="M344.339 377.443V379.692L338.084 383.302V381.053L344.339 377.443Z" fill="#EDB74C"/>
<path d="M356.36 370.506V372.746L355.954 372.982L347.77 377.707V375.468L348.176 375.231L356.36 370.506Z" fill="#EDB74C"/>
<path d="M368.38 363.561V365.81L367.983 366.046L359.8 370.771V368.522L360.197 368.286L368.38 363.561Z" fill="#EDB74C"/>
<path d="M380.401 356.625V358.874L380.004 359.1L371.82 363.825V361.586L372.217 361.35L380.401 356.625Z" fill="#EDB74C"/>
<path d="M392.431 349.688V351.928L392.024 352.164L383.841 356.889V354.64L384.237 354.404L392.431 349.688Z" fill="#EDB74C"/>
<path d="M404.46 342.742V344.991L404.045 345.218L395.861 349.943V347.703L396.267 347.467L404.46 342.742Z" fill="#EDB74C"/>
<path d="M416.471 335.806V338.046L416.065 338.282L407.881 343.007V340.758L408.288 340.531L416.471 335.806Z" fill="#EDB74C"/>
<path d="M428.492 328.86V331.109L428.085 331.336L419.902 336.061V333.822L420.308 333.585L428.492 328.86Z" fill="#EDB74C"/>
<path d="M440.512 321.924V324.163L440.106 324.4L431.922 329.125V326.876L432.338 326.649L440.512 321.924Z" fill="#EDB74C"/>
<path d="M452.533 314.978V317.227L452.136 317.454L443.952 322.179V319.939L444.349 319.703L452.533 314.978Z" fill="#EDB74C"/>
<path d="M464.553 308.042V310.282L464.156 310.518L455.972 315.243V312.994L456.369 312.767L464.553 308.042Z" fill="#EDB74C"/>
<path d="M490.937 292.808V295.057L467.993 308.297V306.057L474.57 302.258L482.754 297.533L490.937 292.808Z" fill="#EDB74C"/>
<path d="M428.274 228.369L427.084 230.883L423.02 239.416L421.782 240.134L420.346 240.966L412.153 245.691L404.678 250.009L396.494 254.734L388.32 259.459L380.127 264.184L373.134 260.215L372.869 257.995L371.792 248.601L370.686 239.218L369.637 230.183L373.03 223.096L374.532 219.921L378.596 211.387L381.355 205.585L385.419 197.052L388.49 195.275L396.664 190.55L404.857 185.825L406.284 184.993L414.477 180.268L422.179 175.827L423.058 183.33L422.349 184.814L422.255 185.003L418.201 193.536L417.804 194.377L409.658 199.074L401.465 203.799L393.29 208.524L391.684 211.879L387.62 220.412L387.545 220.601L383.481 229.134L382.782 230.618L383.434 236.241L384.511 245.634L390.106 242.402L398.28 237.677L399.717 236.855L407.9 232.13L415.148 227.944L417.549 222.916L421.603 214.383L425.666 205.85L426.101 209.601L428.274 228.369Z" fill="#FFD166"/>
<path d="M366.5 248.016L358.316 252.741L350.132 257.466L348.119 258.637L341.986 262.172L336.212 258.893L327.991 254.234L336.137 249.528L352.504 240.078L358.278 243.357L366.5 248.016Z" fill="#FFD166"/>
<path d="M368.248 263.032L367.048 265.545L362.984 274.079L357.21 270.8L348.989 266.141L355.122 262.606L348.119 258.637L358.316 252.741L366.5 248.016L367.152 253.648L368.248 263.032Z" fill="#FFD166"/>
<path d="M356.861 277.613L354.886 278.756L346.702 283.481L338.518 288.206L330.335 292.931L322.151 297.656L313.967 302.381L313.353 297.099L313.098 294.878L314.288 292.364L318.352 283.831L326.498 279.125L334.682 274.4L342.865 269.675L348.639 272.954L356.861 277.613Z" fill="#FFD166"/>
<path d="M363.882 225.496L363.532 225.704L355.349 230.429L347.165 235.154L338.981 239.879L330.798 244.604L329.172 245.54L320.989 250.265L319.675 249.518L318.182 248.668L309.96 244.009L306.993 242.327L308.978 241.174L317.161 236.449L325.345 231.724L333.529 226.999L341.722 222.274L349.773 217.624L357.957 212.899L362.143 210.48L362.635 214.695L363.721 224.088L363.882 225.496Z" fill="#FFD166"/>
<path d="M335.863 265.706L333.85 266.868L325.666 271.593L317.483 276.318L315.753 275.345L310.48 272.349L309.734 265.961L308.647 256.577L308.571 255.925L307.862 249.83L313.551 253.052L315.593 254.215L323.814 258.873L327.641 261.047L335.863 265.706Z" fill="#FFD166"/>
<path d="M107.324 104.423V135.787L57.2576 133.33L107.324 104.423Z" fill="#059B89"/>
<path d="M202.495 164.628L186.165 174.059L177.981 178.785L169.798 183.51L166.377 185.485L166.434 164.335V162.719L202.495 164.628Z" fill="#04BFAD"/>
<path d="M217.416 141.75L217.407 141.76L210.253 147.94L207.891 149.991L207.465 150.359L207.305 154.593L207.021 162.021L202.589 164.619H202.523L202.495 164.629L166.434 162.72L166.49 138.689H166.434L164.855 138.613L155.424 138.15L117.662 136.298L109.951 135.92L107.929 135.816L107.324 135.787V104.423L165.885 107.466L217.407 110.15L217.416 141.75Z" fill="#04BFAD"/>
<path d="M361.879 40.739L357.692 43.1582L350.926 39.2553L342.742 34.5303L334.559 29.8053L326.375 25.0803L318.191 20.3553V15.5264L326.375 20.2514L334.559 24.9764L342.742 29.7014L350.926 34.4264L359.11 39.1514L361.879 40.739Z" fill="#04BFAD"/>
<path d="M318.191 15.5264V20.3553L310.461 24.8252L302.523 29.4084L295.436 33.4908L289.066 37.1763L280.883 41.9013L272.699 46.6264L264.515 51.3514L256.332 56.0764L248.138 60.8014L239.955 65.5264L231.771 70.2514L223.587 74.9764L215.404 79.7014L207.22 84.4264L199.036 89.1514L190.852 93.8764L183.444 93.489L183.179 93.4795L191.363 88.7545L199.546 84.0295L207.73 79.3045L215.914 74.5795L224.098 69.8545L240.465 60.4045L248.649 55.6795L256.832 50.9545L265.016 46.2295L273.2 41.5044L281.384 36.7794L289.567 32.0544L297.751 27.3294L305.935 22.6044L313.797 18.059L318.191 15.5264Z" fill="#059B89"/>
<path d="M357.692 43.1581L349.509 47.8831L341.259 52.6459L333.075 57.3709L328.01 60.3004L322.708 63.3528L314.525 68.0778L306.341 72.8028L298.157 77.5278L289.974 82.2528L281.79 86.9778L279.002 88.5938L273.049 92.0241L265.715 96.2577L257.532 100.983L249.348 105.708L241.07 110.489V96.4845L231.847 96.0025L222.415 95.5112L212.975 95.0198L207.532 94.7457L198.091 94.2543L191.117 93.8857L190.852 93.8763L199.036 89.1513L207.22 84.4263L215.404 79.7013L223.587 74.9763L231.771 70.2513L239.955 65.5263L248.138 60.8013L256.332 56.0763L264.515 51.3513L272.699 46.6263L280.883 41.9012L289.066 37.1762L295.436 33.4907L302.523 29.4083L310.461 24.8251L318.191 20.3552L326.375 25.0802L334.559 29.8052L342.742 34.5302L350.926 39.2552L357.692 43.1581Z" fill="#FCFCFC"/>
<path d="M357.201 69.4387L354.234 75.7041L350.189 84.2374L346.144 92.7802L342.1 101.323L338.055 109.866L334.011 118.409L329.966 126.942L325.921 135.485L321.877 144.028L320.062 147.864L319.202 148.365L314.723 150.945L306.539 155.67L298.356 160.395L290.172 165.12L281.988 169.845L265.621 179.295L257.437 184.02L249.253 188.745L241.07 193.47V136.487L246.192 133.529L247.335 132.867L252.882 129.673L261.066 124.948L263.221 123.701L264.477 122.973L272.661 118.248L280.845 113.523L289.029 108.798L297.212 104.073L305.396 99.348L313.58 94.623L321.763 89.898L323.909 88.66L325.969 87.4693L334.152 82.7443L342.336 78.0193L350.52 73.2943L351.663 72.6328L357.201 69.4387Z" fill="#FCFCFC"/>
<path d="M273.2 332.007L264.789 336.864L256.606 341.589L248.422 346.314L240.238 351.039L232.054 355.764L234.984 349.83L239.161 341.362L242.506 334.577L246.683 326.11L250.869 317.633L255.046 309.157L259.233 300.68L263.41 292.204L267.596 283.736L268.683 293.12L269.769 302.504L270.223 306.407L271.31 315.791L272.406 325.184L273.2 332.007Z" fill="#EDB74C"/>
<path d="M267.596 283.737L263.41 292.204L259.233 300.68L255.046 309.157L250.869 317.634L246.683 326.11L242.506 334.578L239.161 341.363L234.984 349.83L232.054 355.765L228.426 353.667L220.242 348.942L216.585 346.834L208.401 342.109L200.217 337.384L192.034 332.659L183.85 327.934L177.811 324.447L174.23 322.378L165.999 317.624L166.33 316.963L174.513 312.238L182.697 307.513L187.554 304.706L184.918 310.045L186.43 310.915L194.614 315.64L202.797 320.365L210.981 325.09L219.165 329.815L227.348 334.54L227.641 333.945L230.93 327.273L235.116 318.806L239.293 310.329L243.47 301.852L247.656 293.376L249.225 290.191L252.712 283.122L256.899 274.646L260.518 267.303L264.704 258.826L265.432 265.111L265.933 269.429L267.019 278.823L267.142 279.843L267.596 283.737Z" fill="#FFD166"/>
<path d="M381.242 42.4777L373.058 47.2027L368.031 50.1038L359.847 54.8289L351.663 59.5539L343.744 64.1277L335.56 68.8527L327.377 73.5777L319.193 78.3027L302.826 87.7527L294.642 92.4777L286.458 97.2027L278.274 101.928L270.091 106.653L264.629 109.8L257.437 113.958L249.253 118.683L241.07 123.408V136.486L246.192 133.529L247.335 132.867L252.882 129.673L261.066 124.948L263.221 123.701L264.477 122.973L272.661 118.248L280.845 113.523L289.029 108.798L297.212 104.073L305.396 99.3478L313.58 94.6228L321.763 89.8978L323.909 88.6599L325.969 87.4692L334.152 82.7442L342.336 78.0192L350.52 73.2942L351.663 72.6327L357.201 69.4386L364.534 65.205L360.65 73.417L356.606 81.9598L352.561 90.5026L348.516 99.036L344.472 107.579L340.427 116.122L336.383 124.664L332.338 133.198L328.293 141.741L324.249 150.283L321.215 152.032L315.867 155.122L307.683 159.847L299.499 164.572L291.315 169.297L274.948 178.747L266.764 183.472L258.581 188.197L250.397 192.922L242.213 197.647L241.07 198.308V211.378L244.16 209.592L252.344 204.867L260.527 200.142L268.711 195.417L270.714 194.264L278.898 189.539L287.082 184.814L295.266 180.089L303.449 175.364L306.851 173.398L312.2 170.308L315.725 168.276L323.909 163.551L328.076 161.141L328.36 160.565L332.536 152.088L332.981 151.2L337.157 142.733L341.334 134.256L345.521 125.78L349.698 117.303L353.884 108.826L358.061 100.359L362.247 91.8823L366.424 83.4057L370.61 74.929L374.787 66.4524L377.216 61.5289L379.73 56.4354L383.916 47.9587L388.093 39.482L388.755 38.1401L381.242 42.4777Z" fill="#EDB74C"/>
<path d="M241.07 96.4846V211.378L235.976 214.317L232.48 216.33V168.305L232.678 163.107L233.037 153.657L230.996 151.2L230.07 150.085L225.884 145.039L225.232 144.245L220.752 138.858L217.407 141.76V110.149L224.702 105.935L232.886 101.21L241.07 96.4846Z" fill="#EDB74C"/>
<path d="M328.076 161.142L324.183 169.032L315.999 173.757L308.307 178.199L302.958 181.289L306.851 173.398L312.2 170.308L315.725 168.276L323.909 163.551L328.076 161.142Z" fill="#FFD166"/>
<path d="M306.851 173.398L302.958 181.289L294.774 186.014L286.59 190.739L278.407 195.464L275.525 197.127L267.341 201.852L266.868 202.126L261.397 205.283L261.179 205.424L260.971 205.575L260.764 205.746L260.565 205.935L260.376 206.142L260.197 206.369L260.026 206.596L259.866 206.851L259.715 207.106L259.582 207.38L259.459 207.654L259.346 207.938L259.252 208.221L259.176 208.514L259.11 208.798L259.072 209.091L259.044 209.374L259.025 209.658L259.034 209.932L259.053 210.197L259.8 216.575L259.875 217.284L260.234 220.355L261.085 227.698L262.172 237.082L263.268 246.466L264.355 255.859L264.704 258.826L260.518 267.303L256.899 274.646L252.712 283.122L249.225 290.191L247.656 293.376L243.47 301.852L239.293 310.329L235.116 318.806L230.93 327.273L227.641 333.944L220.932 330.06L212.748 325.335L204.564 320.61L196.381 315.885L188.197 311.16L188.726 310.093L192.903 301.616L201.087 296.891L209.27 292.166L225.638 282.716L228.152 281.27L232.48 278.766V221.395L235.976 214.317L241.07 211.378L244.16 209.592L252.344 204.867L260.527 200.142L268.711 195.417L270.714 194.264L278.898 189.539L287.082 184.814L295.266 180.089L303.449 175.364L306.851 173.398Z" fill="#FCFCFC"/>
<path d="M620.308 347.742V356.067L620.28 356.247V356.256L620.232 356.426L620.166 356.606L620.072 356.776L619.958 356.955L619.817 357.116L619.656 357.277L619.477 357.428L619.278 357.57L619.061 357.711L614.373 360.414L606.19 365.139L598.006 369.864L589.822 374.589L573.455 384.039L565.271 388.764L557.088 393.489L551.436 396.749L543.253 401.474L535.069 406.199L518.702 415.649L510.518 420.374L502.334 425.099L494.15 429.824L489.463 432.527L481.28 437.252L473.096 441.977L464.912 446.702L456.728 451.427L448.545 456.152L432.177 465.602L431.941 465.735L431.695 465.848L431.431 465.952L431.147 466.046L430.864 466.122L430.571 466.188L430.268 466.245L429.957 466.283L429.645 466.311L429.333 466.32H429.03L428.927 457.986L429.021 457.995H429.333L429.645 457.986L429.957 457.957L430.268 457.919L430.571 457.863L430.864 457.797L431.147 457.711L431.431 457.626L431.695 457.522L431.941 457.4L432.177 457.277L448.545 447.827L456.728 443.102L464.912 438.377L473.096 433.652L481.28 428.927L489.463 424.202L494.15 421.499L502.334 416.774L510.518 412.049L518.702 407.324L535.069 397.874L543.253 393.149L551.436 388.424L557.088 385.164L565.271 380.439L573.455 375.714L589.822 366.264L598.006 361.539L606.19 356.814L614.373 352.089L619.061 349.386L619.278 349.244L619.477 349.103L619.656 348.951L619.817 348.791L619.958 348.621L620.072 348.45L620.166 348.28L620.232 348.101L620.28 347.921L620.308 347.742Z" fill="#D13462"/>
<path d="M429.03 466.32H429.021L428.719 466.301L428.416 466.273L428.114 466.235L427.83 466.178L427.547 466.103L427.282 466.018L427.027 465.923L426.781 465.819L426.564 465.696L422.104 463.126L418.73 461.179L410.546 456.454L402.363 451.729L394.179 447.004L391.363 445.379L383.179 440.654L374.995 435.929L366.812 431.204L358.628 426.479L350.444 421.754L342.26 417.029L334.077 412.304L317.709 402.854L309.526 398.129L301.342 393.404L293.158 388.679L284.975 383.954L284.767 383.821L284.587 383.689L284.417 383.538L284.275 383.387L284.152 383.226L284.048 383.056L283.973 382.886L283.926 382.706L283.907 382.583V382.272L283.897 374.211L283.926 374.381L283.973 374.56L284.048 374.73L284.152 374.901L284.275 375.061L284.417 375.212L284.587 375.354L284.767 375.496L284.975 375.628L293.158 380.353L301.342 385.078L309.526 389.803L317.709 394.528L334.077 403.978L342.26 408.703L350.444 413.428L358.628 418.153L366.812 422.878L374.995 427.603L383.179 432.328L391.363 437.053L394.179 438.679L402.363 443.404L410.546 448.129L418.73 452.854L422.104 454.8L426.564 457.371L426.781 457.494L427.027 457.598L427.282 457.692L427.547 457.777L427.83 457.843L428.114 457.9L428.416 457.947L428.719 457.976L428.927 457.985L429.03 466.32Z" fill="#EF476F"/>
<path d="M427.925 96.0402C428.742 92.9021 430.187 89.9622 432.172 87.3977C434.156 84.8332 436.64 82.6972 439.473 81.1187C442.406 79.4266 445.658 78.3629 449.024 77.9952C452.39 77.6275 455.796 77.9639 459.025 78.983C462.228 80.057 465.181 81.7653 467.709 84.0059C470.237 86.2465 472.288 88.9734 473.739 92.024C475.155 94.9871 475.986 98.1958 476.186 101.474C476.378 104.671 475.902 107.874 474.787 110.877C475.133 104.884 473.628 98.9294 470.478 93.8195C467.521 88.9719 462.961 85.3113 457.588 83.4717C452.174 81.7844 446.331 82.1202 441.145 84.4167C435.633 86.8157 431.008 90.876 427.915 96.0308" fill="#EF476F"/>
<path d="M412.304 71.5175C414.183 65.7573 417.169 60.4191 421.092 55.8022C425.075 51.1148 429.903 47.2169 435.324 44.3109C440.808 41.3571 446.812 39.4957 453.005 38.8299C459.253 38.1699 465.569 38.8134 471.556 40.7199C477.506 42.7098 483.001 45.8609 487.725 49.9904C497.075 58.2426 502.973 69.7145 504.243 82.1204C504.848 88.1555 504.289 94.2506 502.599 100.075C503.307 94.2155 503.087 88.2804 501.947 82.489C500.816 76.8163 498.75 71.3712 495.833 66.3767C492.94 61.4454 489.215 57.0524 484.823 53.3924C480.487 49.7439 475.488 46.9653 470.1 45.2087C464.723 43.437 459.043 42.7716 453.402 43.2525C447.711 43.6993 442.146 45.1586 436.968 47.5617C426.325 52.588 417.651 61.0035 412.304 71.4892" fill="#EF476F"/>
<path d="M418.078 83.8024C420.459 76.766 424.8 70.5561 430.591 65.9037C436.382 61.2512 443.381 58.3497 450.766 57.5408C455.786 57.0109 460.862 57.5356 465.668 59.0812C470.446 60.6753 474.86 63.2034 478.652 66.5183C486.144 73.1644 490.866 82.3822 491.882 92.3452C492.367 97.1862 491.917 102.075 490.559 106.747C491.767 97.3812 489.871 87.8778 485.163 79.6916C482.842 75.7413 479.853 72.224 476.328 69.2966C472.848 66.3483 468.83 64.1019 464.496 62.6816C460.178 61.26 455.617 60.7264 451.087 61.1129C446.505 61.4709 442.025 62.6454 437.857 64.5811C429.293 68.6105 422.312 75.3721 418.012 83.8024" fill="#EF476F"/>
<path d="M227.641 333.944L227.348 334.54L219.165 329.815L210.981 325.09L202.797 320.365L194.614 315.64L186.43 310.915L184.918 310.045L188.197 311.16L196.381 315.885L204.564 320.61L212.748 325.335L220.932 330.06L227.641 333.944Z" fill="#04BFAD"/>
<path d="M144.519 393.971C150.032 396.636 155.434 399.521 160.726 402.627C163.372 404.177 165.983 405.78 168.56 407.437C171.149 409.081 173.644 410.886 176.262 412.342C178.879 413.797 181.714 414.931 184.511 414.543C185.885 414.352 187.186 413.812 188.292 412.975C188.868 412.533 189.414 412.053 189.926 411.538C190.483 410.943 191.09 410.396 191.741 409.903C192.159 409.601 192.64 409.397 193.149 409.308C193.69 409.221 194.244 409.28 194.755 409.478C195.656 409.894 196.382 410.613 196.806 411.51C197.49 412.978 197.982 414.528 198.271 416.122C198.775 419.078 199.518 421.989 200.491 424.825C200.975 426.122 201.71 427.311 202.656 428.322C203.535 429.226 204.707 429.789 205.963 429.909C207.373 429.832 208.766 429.562 210.102 429.106C211.773 428.66 213.527 428.624 215.215 429.002C216.933 429.385 218.519 430.22 219.807 431.421C220.98 432.623 221.939 434.016 222.642 435.541C223.275 436.884 223.982 438.19 224.759 439.454C225.527 440.644 226.448 441.727 227.5 442.676C228.546 443.619 229.708 444.426 230.958 445.076C232.219 445.704 233.561 446.153 234.946 446.409C237.781 447.014 240.786 446.834 244.028 447.354C247.443 447.818 250.536 449.611 252.637 452.343C253.669 453.68 254.462 455.186 254.98 456.794C255.391 458.22 255.874 459.623 256.426 461C257.662 463.429 259.788 465.287 262.361 466.188C263.686 466.672 265.067 466.989 266.471 467.133C267.942 467.265 269.419 467.306 270.894 467.256C274.108 467.279 277.298 467.815 280.344 468.843C283.321 469.877 286.174 471.24 288.849 472.907C291.507 474.538 294.052 476.347 296.466 478.322C298.885 480.212 301.191 482.3 303.468 484.37C307.856 488.581 312.482 492.537 317.322 496.22C327.202 503.401 337.632 509.794 348.516 515.337C359.308 521.064 370.422 526.186 381.591 531.166C358.826 522.255 336.231 512.266 316.075 497.987C313.58 496.192 311.113 494.32 308.751 492.317C306.388 490.314 304.13 488.244 301.852 486.222C299.575 484.199 297.278 482.205 294.907 480.344C292.557 478.471 290.085 476.757 287.507 475.212C284.979 473.669 282.293 472.402 279.494 471.432C276.73 470.52 273.842 470.045 270.932 470.024C269.356 470.085 267.778 470.044 266.207 469.902C264.567 469.734 262.954 469.362 261.406 468.796C259.822 468.198 258.349 467.339 257.05 466.254C255.706 465.143 254.625 463.749 253.884 462.171C253.297 460.709 252.786 459.217 252.353 457.702C251.941 456.388 251.301 455.156 250.463 454.063C249.621 453 248.598 452.094 247.439 451.389C246.242 450.723 244.937 450.275 243.584 450.066C240.749 449.575 237.639 449.735 234.436 449.064C232.81 448.75 231.236 448.213 229.758 447.467C229.019 447.093 228.311 446.66 227.641 446.173L226.649 445.436C226.318 445.19 226.025 444.897 225.704 444.623C224.497 443.506 223.442 442.235 222.567 440.843C221.753 439.492 221.015 438.098 220.355 436.666C219.796 435.398 219.03 434.233 218.087 433.217C217.136 432.293 215.955 431.641 214.666 431.327C213.354 431.028 211.99 431.051 210.688 431.393C209.12 431.909 207.481 432.177 205.831 432.187C204.024 431.995 202.347 431.16 201.106 429.834C199.967 428.592 199.092 427.133 198.535 425.543C197.578 422.573 196.863 419.529 196.4 416.443C196.176 415.019 195.776 413.629 195.209 412.304C194.604 411.094 193.754 410.65 192.799 411.359C191.845 412.067 190.692 413.381 189.35 414.317C187.989 415.292 186.402 415.903 184.738 416.093C183.101 416.253 181.449 416.063 179.89 415.536C178.388 415.027 176.948 414.349 175.6 413.513C172.926 411.897 170.516 410.017 167.993 408.297C165.47 406.577 162.947 404.867 160.357 403.232C155.198 399.975 149.928 396.878 144.547 393.942" fill="#EF476F"/>
<path d="M488.178 547.231C493.633 545.403 498.872 542.982 503.799 540.011C508.687 537.024 513.199 533.461 517.237 529.399C519.288 527.405 521.225 525.297 523.162 523.171C525.099 521.045 527.018 518.871 529.116 516.83C531.2 514.697 533.604 512.902 536.241 511.51C537.601 510.825 539.043 510.313 540.531 509.989C541.287 509.866 542.015 509.686 542.799 509.61C543.596 509.54 544.398 509.559 545.19 509.667C546.732 509.915 548.222 510.423 549.594 511.17C550.907 511.822 552.079 512.417 553.081 512.323C554.212 512.185 555.252 511.633 556.001 510.773C556.817 509.791 557.43 508.657 557.806 507.437C558.685 504.867 559.129 501.975 560.093 499.112C560.56 497.62 561.234 496.201 562.096 494.897C563.013 493.537 564.224 492.4 565.64 491.57C566.373 491.141 567.166 490.823 567.993 490.625C568.818 490.427 569.669 490.356 570.516 490.418C572.001 490.552 573.478 490.77 574.939 491.07C577.662 491.552 580.441 491.635 583.188 491.315C585.945 491.011 588.654 490.376 591.259 489.425C593.889 488.461 596.421 487.245 598.819 485.796C603.63 482.859 608.02 479.283 611.869 475.165C613.77 473.132 615.467 470.916 616.934 468.55C618.428 466.188 619.694 463.542 621.659 461.122C622.633 459.911 623.757 458.828 625.005 457.9C626.246 457.009 627.565 456.231 628.945 455.575C630.349 454.893 631.841 454.409 633.378 454.139C634.918 453.893 636.383 453.855 637.791 453.742C640.597 453.536 643.38 453.084 646.107 452.391C648.865 451.726 651.585 450.909 654.253 449.943C659.611 447.993 664.758 445.507 669.618 442.525C672.06 441.072 674.426 439.495 676.706 437.8C678.964 436.08 681.024 434.105 683.226 432.196C687.663 428.461 692.43 425.137 697.467 422.264C699.981 420.828 702.542 419.486 705.16 418.267C707.777 417.048 710.442 415.951 713.145 414.959C702.521 419.359 692.703 425.497 684.096 433.122C681.998 435.012 679.928 437.11 677.632 438.934C675.348 440.741 672.969 442.425 670.507 443.98C665.602 447.137 660.394 449.796 654.961 451.918C649.521 454.129 643.793 455.554 637.951 456.152C636.487 456.284 635.06 456.341 633.765 456.577C632.452 456.814 631.179 457.237 629.985 457.834C628.773 458.435 627.616 459.14 626.526 459.941C625.467 460.765 624.515 461.717 623.691 462.776C622.064 465.096 620.559 467.5 619.184 469.977C617.639 472.519 615.841 474.896 613.816 477.074C609.833 481.395 605.281 485.152 600.284 488.244C597.732 489.756 595.042 491.022 592.251 492.024C589.426 493.027 586.492 493.69 583.51 493.999C580.521 494.326 577.501 494.221 574.542 493.687C573.096 493.451 571.707 493.12 570.422 493.054C569.237 492.959 568.052 493.233 567.029 493.838C564.842 495.232 563.254 497.392 562.578 499.896C561.633 502.485 561.198 505.33 560.187 508.212C559.691 509.745 558.891 511.163 557.834 512.379C556.648 513.696 554.999 514.505 553.232 514.638C552.349 514.659 551.472 514.489 550.662 514.137C549.965 513.857 549.284 513.542 548.62 513.192C547.472 512.526 546.22 512.06 544.916 511.812C544.291 511.714 543.657 511.686 543.026 511.727C542.374 511.727 541.693 511.926 541.023 512.02C539.69 512.282 538.395 512.707 537.167 513.287C534.655 514.55 532.356 516.198 530.353 518.172C526.224 522.056 522.491 526.526 518.201 530.457C509.716 538.43 499.414 544.21 488.188 547.297" fill="#EF476F"/>
<path d="M232.48 222.387L168.957 259.062L140.607 275.439V276.517V277.603L169.902 260.688L232.48 224.56V222.387Z" fill="#059B89"/>
<path d="M424.787 198.45L422.387 203.468L418.333 212.001L414.27 220.535L409.138 223.502L400.954 228.227L395.889 231.157L395.162 224.872L395.01 223.644L396.22 221.13L400.274 212.597L408.41 207.9L416.594 203.175L424.787 198.45Z" fill="#FFD166"/>
</svg>
